<svg width="1380" height="715" viewBox="0 0 1380 715" fill="none" xmlns="http://www.w3.org/2000/svg">
<g clip-path="url(#clip0_140_1807)">
<rect width="1380" height="715" fill="#D9EDF7"/>
<g clip-path="url(#clip1_140_1807)">
<path d="M1380.01 0H0V715H1380.01V0Z" fill="url(#paint0_radial_140_1807)"/>
<g opacity="0.44">
<path d="M1380 27.3785H0V29.8612H1380V27.3785Z" fill="#C4D8ED"/>
<path d="M1380 68.3421H0V70.8247H1380V68.3421Z" fill="#C4D8ED"/>
<path d="M1380 109.306H0V111.788H1380V109.306Z" fill="#C4D8ED"/>
<path d="M1380 150.269H0V152.752H1380V150.269Z" fill="#C4D8ED"/>
<path d="M1380 191.233H0V193.715H1380V191.233Z" fill="#C4D8ED"/>
<path d="M1380 232.196H0V234.679H1380V232.196Z" fill="#C4D8ED"/>
<path d="M1380 273.16H0V275.642H1380V273.16Z" fill="#C4D8ED"/>
<path d="M1380 314.123H0V316.606H1380V314.123Z" fill="#C4D8ED"/>
<path d="M1380 355.087H0V357.569H1380V355.087Z" fill="#C4D8ED"/>
<path d="M1380 396.05H0V398.533H1380V396.05Z" fill="#C4D8ED"/>
<path d="M1380 437.014H0V439.497H1380V437.014Z" fill="#C4D8ED"/>
<path d="M1380 477.977H0V480.46H1380V477.977Z" fill="#C4D8ED"/>
<path d="M1380 518.941H0V521.424H1380V518.941Z" fill="#C4D8ED"/>
<path d="M1380 559.905H0V562.387H1380V559.905Z" fill="#C4D8ED"/>
<path d="M1380 600.868H0V603.351H1380V600.868Z" fill="#C4D8ED"/>
<path d="M1380 641.832H0V644.314H1380V641.832Z" fill="#C4D8ED"/>
<path d="M1380 682.795H0V685.278H1380V682.795Z" fill="#C4D8ED"/>
</g>
<path d="M837.346 441.773C865.272 462.012 884.831 484.181 903.567 506.54C922.58 528.839 941.411 551.173 959.869 573.596C978.46 595.995 996.142 618.597 1014.34 641.084C1032.29 663.612 1049.71 686.278 1066.57 709.074C1067.89 710.846 1066.17 712.832 1062.75 713.518C1059.55 714.148 1055.98 713.404 1054.45 711.864C1033.1 690.106 1012.31 668.219 992.05 646.198C972.059 624.143 951.531 602.191 931.914 580.036C912.153 557.906 892.795 535.701 873.59 513.452C854.136 491.252 835.477 468.878 825.204 444.568C824.418 442.667 826.737 440.8 830.388 440.378C833.091 440.08 835.803 440.666 837.346 441.773Z" fill="url(#paint1_linear_140_1807)"/>
<path d="M847.85 447.186C859.915 442.161 863.614 428.496 850.811 415.979C838.017 403.456 809.171 391.51 803.46 383.258C797.719 375.005 797.719 375.005 797.719 375.005C797.719 375.005 786.66 383.481 782.07 400.567C777.47 417.642 779.434 432.171 799.818 443.139C813.158 450.334 834.672 452.682 847.85 447.186Z" fill="url(#paint2_linear_140_1807)"/>
<path d="M823.46 410.065C831.817 413.918 848.06 421.818 856.57 425.993C856.091 422.801 854.376 419.459 850.801 415.973C838.007 403.451 809.162 391.505 803.45 383.252C797.709 375 797.709 375 797.709 375C797.709 375 786.65 383.476 782.06 400.561C781.629 402.125 781.37 403.704 781.102 405.268C783.047 410.293 786.257 416.698 791.097 420.73C800.009 428.168 800.613 425.939 800.613 425.939C800.613 425.939 796.243 413.744 794.844 406.862C793.426 399.965 799.233 398.689 799.233 398.689C799.233 398.689 800.45 402.18 805.386 408.183C810.331 414.201 819.55 420.522 819.55 420.522C819.55 420.522 811.797 404.692 823.46 410.065Z" fill="url(#paint3_radial_140_1807)"/>
<g opacity="0.36">
<path d="M814.183 442.225C806.699 437.081 783.239 418.401 795.371 393.838L796.924 394.052C784.983 418.238 808.136 436.664 815.506 441.728L814.183 442.225Z" fill="#5E3F17"/>
</g>
<g opacity="0.36">
<path d="M843.71 439.251L842.1 439.136C843.844 432.647 841.199 414.737 821.927 403.774C804.562 393.923 805.51 393.014 805.903 392.622C806.124 392.373 806.612 392.304 806.967 392.329L806.737 393.163L806.842 392.746L807.188 393.093C807.341 393.039 807.389 392.959 807.37 392.94C807.35 393.153 808.079 394.697 823.096 403.218C842.79 414.385 845.492 432.647 843.71 439.251Z" fill="#5E3F17"/>
</g>
<g opacity="0.36">
<path d="M809.342 404.619L807.787 404.871L827.769 437.999L829.325 437.747L809.342 404.619Z" fill="#5E3F17"/>
</g>
<path d="M833.599 403.476C820.959 395.735 807.197 388.695 803.45 383.258C797.709 375.005 797.709 375.005 797.709 375.005C797.709 375.005 786.65 383.481 782.06 400.567C777.46 417.642 779.424 432.171 799.808 443.139C799.808 443.139 793.397 419.137 833.599 403.476Z" fill="url(#paint4_linear_140_1807)"/>
<path d="M903.567 506.54C886.087 485.676 867.61 465.035 842.55 445.914C837.815 447.165 832.813 448.263 827.542 449.117C838.122 471.659 855.362 492.662 873.59 513.452C877.615 518.109 880.72 519.589 884.755 524.251L913.179 517.95C909.939 514.152 906.825 510.314 903.567 506.54Z" fill="url(#paint5_linear_140_1807)"/>
<path d="M909.438 169.594C909.708 169.448 910.01 169.375 910.344 169.375C910.719 169.375 911.052 169.479 911.344 169.688C911.635 169.896 911.781 170.177 911.781 170.531C911.781 170.865 911.688 171.177 911.5 171.469C910.688 172.344 910.042 173.323 909.562 174.406C909.083 175.469 908.74 176.49 908.531 177.469C908.323 178.427 908.219 179.208 908.219 179.812C908.219 180.083 908.229 180.271 908.25 180.375C908.271 180.458 908.469 180.573 908.844 180.719C909.24 180.865 909.688 181.094 910.188 181.406C910.688 181.698 911.125 182.125 911.5 182.688C911.875 183.25 912.062 184 912.062 184.938C912.062 186.146 911.615 187.167 910.719 188C909.844 188.833 908.781 189.25 907.531 189.25C906.802 189.25 906.042 189.083 905.25 188.75C904.458 188.396 903.792 187.792 903.25 186.938C902.729 186.062 902.469 184.844 902.469 183.281C902.469 181.906 902.729 180.5 903.25 179.062C903.771 177.604 904.417 176.229 905.188 174.938C905.979 173.625 906.76 172.5 907.531 171.562C908.302 170.604 908.938 169.948 909.438 169.594ZM921.156 169.594C921.427 169.448 921.729 169.375 922.062 169.375C922.438 169.375 922.771 169.479 923.062 169.688C923.354 169.896 923.5 170.177 923.5 170.531C923.5 170.865 923.406 171.177 923.219 171.469C922.406 172.344 921.76 173.323 921.281 174.406C920.802 175.469 920.458 176.49 920.25 177.469C920.042 178.427 919.938 179.208 919.938 179.812C919.938 180.083 919.948 180.271 919.969 180.375C919.99 180.458 920.188 180.573 920.562 180.719C920.958 180.865 921.406 181.094 921.906 181.406C922.406 181.698 922.844 182.125 923.219 182.688C923.594 183.25 923.781 184 923.781 184.938C923.781 186.146 923.333 187.167 922.438 188C921.562 188.833 920.5 189.25 919.25 189.25C918.521 189.25 917.76 189.083 916.969 188.75C916.177 188.396 915.51 187.792 914.969 186.938C914.448 186.062 914.188 184.844 914.188 183.281C914.188 181.906 914.448 180.5 914.969 179.062C915.49 177.604 916.135 176.229 916.906 174.938C917.698 173.625 918.479 172.5 919.25 171.562C920.021 170.604 920.656 169.948 921.156 169.594ZM966.719 183.562L966.656 205.875C966.656 209.646 966.01 212.792 964.719 215.312C963.427 217.833 961.583 219.729 959.188 221C956.812 222.271 953.958 222.906 950.625 222.906C946.854 222.906 943.74 222.188 941.281 220.75C938.844 219.312 937.031 217.312 935.844 214.75C934.656 212.188 934.062 209.229 934.062 205.875L934.094 183.438C934.094 182.542 933.854 181.896 933.375 181.5C932.896 181.083 932.312 180.812 931.625 180.688C930.958 180.542 930.302 180.448 929.656 180.406C929.219 180.365 928.917 180.281 928.75 180.156C928.604 180.01 928.531 179.708 928.531 179.25C928.531 179.021 928.615 178.698 928.781 178.281C928.969 177.865 929.24 177.656 929.594 177.656H946.094C946.448 177.656 946.708 177.865 946.875 178.281C947.062 178.698 947.156 179.021 947.156 179.25C947.156 179.958 946.812 180.344 946.125 180.406C945.417 180.448 944.635 180.542 943.781 180.688C942.948 180.833 942.229 181.042 941.625 181.312C941.021 181.583 940.719 181.948 940.719 182.406L940.688 205.625C940.688 210.5 941.51 214.115 943.156 216.469C944.823 218.802 947.354 219.969 950.75 219.969C954.042 219.969 956.583 219.375 958.375 218.188C960.167 216.979 961.417 215.323 962.125 213.219C962.833 211.115 963.188 208.688 963.188 205.938V183.125C963.188 182.417 962.844 181.885 962.156 181.531C961.49 181.156 960.719 180.896 959.844 180.75C958.99 180.583 958.271 180.469 957.688 180.406C957.25 180.365 956.948 180.281 956.781 180.156C956.635 180.01 956.562 179.708 956.562 179.25C956.562 179.021 956.646 178.698 956.812 178.281C957 177.865 957.271 177.656 957.625 177.656H972.156C972.51 177.656 972.771 177.865 972.938 178.281C973.125 178.698 973.219 179.021 973.219 179.25C973.219 180 972.875 180.385 972.188 180.406C970.583 180.49 969.271 180.792 968.25 181.312C967.229 181.812 966.719 182.562 966.719 183.562ZM977.875 222C977.521 222 977.25 221.844 977.062 221.531C976.896 221.219 976.812 220.948 976.812 220.719C976.812 220.031 977.156 219.646 977.844 219.562C978.615 219.458 979.406 219.271 980.219 219C981.052 218.729 981.469 218.25 981.469 217.562V197.688C981.469 196.396 981.188 195.51 980.625 195.031C980.062 194.552 979.417 194.26 978.688 194.156C977.958 194.052 977.333 193.927 976.812 193.781C976.604 193.677 976.427 193.542 976.281 193.375C976.135 193.208 976.062 192.927 976.062 192.531C976.062 192.281 976.125 191.99 976.25 191.656C976.375 191.323 976.562 191.146 976.812 191.125C978.833 191 980.656 190.927 982.281 190.906C983.927 190.865 985.177 190.844 986.031 190.844C986.198 190.844 986.385 190.927 986.594 191.094C986.802 191.26 986.927 191.594 986.969 192.094V195.594C987.344 195.219 988.104 194.615 989.25 193.781C990.417 192.927 991.844 192.135 993.531 191.406C995.219 190.677 997.042 190.312 999 190.312C1000.35 190.312 1001.59 190.51 1002.72 190.906C1003.86 191.281 1004.78 192.031 1005.47 193.156C1006.16 194.26 1006.5 195.896 1006.5 198.062V216.531C1006.5 217.531 1006.75 218.229 1007.25 218.625C1007.75 219.021 1008.33 219.26 1009 219.344C1009.67 219.406 1010.26 219.479 1010.78 219.562C1011.14 219.604 1011.4 219.698 1011.56 219.844C1011.73 219.969 1011.81 220.26 1011.81 220.719C1011.81 220.948 1011.72 221.219 1011.53 221.531C1011.36 221.844 1011.1 222 1010.75 222H997.406C997.052 222 996.781 221.844 996.594 221.531C996.427 221.219 996.344 220.948 996.344 220.719C996.344 220.385 996.406 220.115 996.531 219.906C996.656 219.698 996.917 219.583 997.312 219.562C997.979 219.521 998.698 219.323 999.469 218.969C1000.24 218.615 1000.62 218.146 1000.62 217.562V197.156C1000.62 196.802 1000.54 196.375 1000.38 195.875C1000.23 195.375 999.865 194.938 999.281 194.562C998.719 194.188 997.823 194 996.594 194C995.302 194 994.052 194.219 992.844 194.656C991.635 195.073 990.552 195.583 989.594 196.188C988.635 196.792 987.865 197.365 987.281 197.906V216.531C987.281 217.865 987.667 218.688 988.438 219C989.229 219.292 990.01 219.479 990.781 219.562C991.219 219.604 991.51 219.688 991.656 219.812C991.823 219.938 991.906 220.24 991.906 220.719C991.906 220.948 991.812 221.219 991.625 221.531C991.458 221.844 991.198 222 990.844 222H977.875ZM1028.88 222.906C1025.6 222.906 1022.97 222.135 1020.97 220.594C1018.99 219.052 1017.55 217.042 1016.66 214.562C1015.78 212.083 1015.34 209.438 1015.34 206.625C1015.34 203.812 1015.84 201.167 1016.84 198.688C1017.84 196.208 1019.39 194.198 1021.47 192.656C1023.57 191.094 1026.27 190.312 1029.56 190.312C1031.27 190.312 1032.88 190.5 1034.38 190.875C1035.88 191.229 1037.1 191.875 1038.06 192.812L1037.75 187.5V180.156C1037.75 179.177 1037.52 178.448 1037.06 177.969C1036.62 177.469 1036.07 177.125 1035.41 176.938C1034.76 176.729 1034.1 176.594 1033.44 176.531C1032.79 176.448 1032.26 176.354 1031.84 176.25C1031.64 176.146 1031.46 176.01 1031.31 175.844C1031.17 175.677 1031.09 175.396 1031.09 175C1031.09 174.75 1031.16 174.458 1031.28 174.125C1031.41 173.792 1031.59 173.615 1031.84 173.594C1033.24 173.51 1034.65 173.448 1036.06 173.406C1037.5 173.365 1038.8 173.344 1039.97 173.344C1041.16 173.323 1042.04 173.312 1042.62 173.312C1042.79 173.312 1042.98 173.396 1043.19 173.562C1043.4 173.729 1043.52 174.062 1043.56 174.562V216.531C1043.56 217.865 1043.95 218.688 1044.72 219C1045.51 219.292 1046.29 219.479 1047.06 219.562C1047.5 219.604 1047.79 219.688 1047.94 219.812C1048.1 219.938 1048.19 220.24 1048.19 220.719C1048.19 220.948 1048.09 221.219 1047.91 221.531C1047.74 221.844 1047.48 222 1047.12 222H1040.12C1038.96 222 1038.26 221.74 1038.03 221.219C1037.82 220.698 1037.73 219.948 1037.75 218.969C1036.67 220.156 1035.28 221.115 1033.59 221.844C1031.93 222.552 1030.35 222.906 1028.88 222.906ZM1030.84 219.938C1032.05 219.938 1033.33 219.594 1034.69 218.906C1036.04 218.219 1037.06 217.417 1037.75 216.5V196.562C1037.17 195.458 1036.28 194.635 1035.09 194.094C1033.91 193.552 1032.45 193.281 1030.72 193.281C1028.41 193.281 1026.61 193.865 1025.34 195.031C1024.09 196.198 1023.23 197.792 1022.75 199.812C1022.27 201.812 1022.03 204.083 1022.03 206.625C1022.03 209.104 1022.28 211.354 1022.78 213.375C1023.28 215.396 1024.17 217 1025.44 218.188C1026.71 219.354 1028.51 219.938 1030.84 219.938ZM1065.84 222.906C1061.07 222.906 1057.47 221.458 1055.03 218.562C1052.59 215.646 1051.38 211.583 1051.38 206.375C1051.38 202.896 1052.03 199.969 1053.34 197.594C1054.66 195.198 1056.39 193.385 1058.53 192.156C1060.68 190.927 1062.99 190.312 1065.47 190.312C1068.09 190.312 1070.23 190.771 1071.88 191.688C1073.54 192.583 1074.82 193.844 1075.72 195.469C1076.64 197.073 1077.28 198.948 1077.66 201.094C1077.8 201.885 1077.9 202.719 1077.94 203.594C1078 204.469 1078.03 205.365 1078.03 206.281H1058.09C1058.11 209.573 1058.55 212.198 1059.41 214.156C1060.26 216.115 1061.33 217.521 1062.62 218.375C1063.94 219.229 1065.28 219.656 1066.66 219.656C1068.24 219.656 1069.69 219.302 1071 218.594C1072.31 217.865 1073.3 216.833 1073.97 215.5C1074.03 215.375 1074.09 215.25 1074.16 215.125C1074.22 215 1074.35 214.958 1074.56 215L1076.12 215.719C1076.35 215.802 1076.47 215.927 1076.47 216.094C1076.47 216.177 1076.45 216.271 1076.41 216.375C1076.36 216.458 1076.32 216.531 1076.28 216.594C1075.36 218.427 1074.06 219.938 1072.38 221.125C1070.69 222.312 1068.51 222.906 1065.84 222.906ZM1058.16 203.594L1071.09 203.406C1071.09 199.781 1070.55 197.198 1069.47 195.656C1068.39 194.094 1067.04 193.312 1065.44 193.312C1063.96 193.312 1062.7 193.552 1061.66 194.031C1060.61 194.51 1059.8 195.49 1059.22 196.969C1058.64 198.427 1058.28 200.635 1058.16 203.594ZM1083.88 222C1083.52 222 1083.25 221.844 1083.06 221.531C1082.9 221.219 1082.81 220.948 1082.81 220.719C1082.81 220.031 1083.16 219.646 1083.84 219.562C1084.7 219.479 1085.51 219.302 1086.28 219.031C1087.07 218.74 1087.47 218.25 1087.47 217.562V197.688C1087.47 196.396 1087.2 195.51 1086.66 195.031C1086.11 194.552 1085.48 194.26 1084.75 194.156C1084.02 194.052 1083.38 193.927 1082.81 193.781C1082.6 193.677 1082.43 193.542 1082.28 193.375C1082.14 193.208 1082.06 192.927 1082.06 192.531C1082.06 192.281 1082.12 192 1082.25 191.688C1082.4 191.375 1082.58 191.208 1082.81 191.188C1084.9 191.062 1086.73 190.948 1088.31 190.844C1089.9 190.74 1091.14 190.677 1092.03 190.656C1092.2 190.656 1092.39 190.74 1092.59 190.906C1092.8 191.073 1092.93 191.406 1092.97 191.906V196.438C1093.61 195.417 1094.31 194.448 1095.06 193.531C1095.83 192.594 1096.7 191.823 1097.66 191.219C1098.61 190.615 1099.72 190.312 1100.97 190.312C1102.3 190.312 1103.3 190.531 1103.97 190.969C1104.64 191.406 1105.08 191.958 1105.31 192.625C1105.54 193.292 1105.66 193.99 1105.66 194.719C1105.66 195.51 1105.41 196.167 1104.91 196.688C1104.43 197.188 1103.86 197.562 1103.22 197.812C1102.59 198.062 1102.07 198.188 1101.66 198.188L1098.69 194.438C1098.06 194.438 1097.4 194.677 1096.69 195.156C1096 195.635 1095.35 196.271 1094.75 197.062C1094.15 197.854 1093.66 198.708 1093.28 199.625V216.531C1093.28 217.427 1093.57 218.083 1094.16 218.5C1094.76 218.896 1095.48 219.156 1096.31 219.281C1097.17 219.406 1097.95 219.5 1098.66 219.562C1099.09 219.604 1099.39 219.688 1099.53 219.812C1099.7 219.938 1099.78 220.24 1099.78 220.719C1099.78 220.948 1099.69 221.219 1099.5 221.531C1099.33 221.844 1099.07 222 1098.72 222H1083.88ZM1120.12 222.875C1118.42 222.875 1117.1 222.719 1116.19 222.406C1115.27 222.094 1114.52 221.854 1113.94 221.688C1113.06 221.417 1112.44 221.281 1112.06 221.281C1111.79 221.281 1111.57 221.312 1111.41 221.375C1111.24 221.438 1111.07 221.51 1110.91 221.594C1110.74 221.656 1110.51 221.688 1110.22 221.688C1109.86 221.688 1109.56 221.594 1109.31 221.406C1109.08 221.219 1108.97 220.958 1108.97 220.625C1108.97 219.958 1108.95 219.229 1108.91 218.438C1108.86 217.625 1108.81 216.823 1108.75 216.031C1108.69 215.24 1108.64 214.5 1108.59 213.812C1108.55 213.125 1108.53 212.562 1108.53 212.125C1108.53 211.646 1108.64 211.302 1108.84 211.094C1109.07 210.885 1109.32 210.781 1109.59 210.781C1110.16 210.781 1110.5 211.01 1110.62 211.469C1110.75 211.927 1110.92 212.5 1111.12 213.188C1111.33 213.854 1111.83 214.938 1112.62 216.438C1113.17 217.417 1113.84 218.188 1114.66 218.75C1115.47 219.292 1116.32 219.677 1117.22 219.906C1118.11 220.115 1118.95 220.219 1119.72 220.219C1121.53 220.219 1123.06 219.833 1124.31 219.062C1125.56 218.292 1126.19 217.177 1126.19 215.719C1126.19 214.448 1125.76 213.427 1124.91 212.656C1124.07 211.865 1123.02 211.177 1121.75 210.594C1120.48 209.99 1119.2 209.365 1117.91 208.719C1116.51 208.01 1115.2 207.24 1113.97 206.406C1112.76 205.552 1111.77 204.51 1111 203.281C1110.25 202.031 1109.88 200.469 1109.88 198.594C1109.88 196.74 1110.42 195.198 1111.5 193.969C1112.6 192.74 1113.95 191.823 1115.53 191.219C1117.14 190.615 1118.68 190.312 1120.16 190.312C1122.14 190.312 1123.58 190.521 1124.5 190.938C1125.44 191.333 1126.17 191.531 1126.69 191.531C1127.15 191.531 1127.41 191.417 1127.47 191.188C1127.55 190.938 1127.66 190.708 1127.78 190.5C1127.91 190.271 1128.05 190.104 1128.22 190C1128.41 189.896 1128.59 189.844 1128.78 189.844C1129.05 189.844 1129.29 189.938 1129.5 190.125C1129.71 190.312 1129.81 190.583 1129.81 190.938C1129.81 191.125 1129.79 191.615 1129.75 192.406C1129.73 193.177 1129.72 194.031 1129.72 194.969C1129.72 195.948 1129.75 196.76 1129.81 197.406C1129.88 198.031 1129.91 198.49 1129.91 198.781C1129.91 199.219 1129.81 199.521 1129.62 199.688C1129.46 199.854 1129.26 199.938 1129.03 199.938C1128.51 199.938 1128.2 199.771 1128.09 199.438C1127.74 198.604 1127.28 197.688 1126.72 196.688C1126.18 195.688 1125.41 194.823 1124.41 194.094C1123.41 193.365 1122.03 193 1120.28 193C1119.14 193 1118.17 193.177 1117.38 193.531C1116.6 193.865 1116.02 194.344 1115.62 194.969C1115.23 195.573 1115.03 196.302 1115.03 197.156C1115.03 198.573 1115.77 199.76 1117.25 200.719C1118.75 201.677 1120.49 202.646 1122.47 203.625C1124.09 204.396 1125.61 205.208 1127.03 206.062C1128.47 206.896 1129.62 207.875 1130.5 209C1131.4 210.125 1131.84 211.51 1131.84 213.156C1131.84 216.052 1130.81 218.396 1128.75 220.188C1126.71 221.979 1123.83 222.875 1120.12 222.875ZM1147.34 222.938C1145.47 222.938 1143.95 222.656 1142.78 222.094C1141.61 221.552 1140.75 220.698 1140.19 219.531C1139.65 218.365 1139.38 216.865 1139.38 215.031V193.656H1135.78C1135.53 193.635 1135.34 193.521 1135.22 193.312C1135.09 193.083 1135.03 192.844 1135.03 192.594C1135.03 191.698 1135.32 191.25 1135.91 191.25C1137.24 191.104 1138.33 190.75 1139.19 190.188C1140.04 189.604 1140.76 188.688 1141.34 187.438C1141.93 186.188 1142.46 184.5 1142.94 182.375C1143 182.062 1143.15 181.865 1143.38 181.781C1143.6 181.698 1143.91 181.656 1144.28 181.656C1144.7 181.656 1144.95 181.708 1145.03 181.812C1145.14 181.917 1145.19 182.115 1145.19 182.406V190.938H1154.41C1154.66 190.958 1154.84 191.083 1154.97 191.312C1155.09 191.521 1155.16 191.75 1155.16 192C1155.16 192.438 1155.06 192.823 1154.88 193.156C1154.71 193.49 1154.51 193.656 1154.28 193.656H1145.19V212.75C1145.19 214.521 1145.36 215.875 1145.72 216.812C1146.07 217.729 1146.52 218.365 1147.06 218.719C1147.6 219.052 1148.14 219.219 1148.66 219.219C1150.09 219.219 1151.23 219.083 1152.06 218.812C1152.92 218.521 1153.73 218.115 1154.5 217.594C1154.71 217.448 1154.92 217.521 1155.12 217.812C1155.35 218.104 1155.53 218.438 1155.66 218.812C1155.78 219.188 1155.77 219.438 1155.62 219.562C1155.19 219.938 1154.53 220.396 1153.66 220.938C1152.78 221.458 1151.79 221.917 1150.69 222.312C1149.58 222.729 1148.47 222.938 1147.34 222.938ZM1159.25 214.406C1159.25 212.344 1159.79 210.646 1160.88 209.312C1161.98 207.958 1163.43 206.885 1165.22 206.094C1167.01 205.281 1168.98 204.667 1171.12 204.25C1173.27 203.812 1175.39 203.49 1177.47 203.281V198.469C1177.47 197.698 1177.27 196.906 1176.88 196.094C1176.5 195.26 1175.84 194.562 1174.91 194C1173.99 193.417 1172.7 193.125 1171.03 193.125C1170.14 193.125 1169.47 193.188 1169.03 193.312C1168.59 193.417 1168.24 193.531 1167.97 193.656L1164.22 201.219C1163.05 201.219 1161.99 200.958 1161.03 200.438C1160.09 199.896 1159.62 198.948 1159.62 197.594C1159.62 196.656 1159.92 195.76 1160.5 194.906C1161.1 194.031 1161.96 193.25 1163.06 192.562C1164.19 191.875 1165.53 191.333 1167.09 190.938C1168.68 190.521 1170.45 190.312 1172.41 190.312C1174.76 190.312 1176.66 190.604 1178.09 191.188C1179.55 191.771 1180.66 192.552 1181.41 193.531C1182.18 194.51 1182.7 195.604 1182.97 196.812C1183.24 198 1183.38 199.219 1183.38 200.469V215.719C1183.38 216.531 1183.49 217.292 1183.72 218C1183.95 218.708 1184.23 219.062 1184.56 219.062C1184.85 219.062 1185.1 219.052 1185.31 219.031C1185.54 218.99 1185.84 218.917 1186.22 218.812C1186.57 218.708 1186.86 218.833 1187.09 219.188C1187.34 219.521 1187.47 219.844 1187.47 220.156C1187.47 220.385 1187.41 220.552 1187.28 220.656C1186.74 221.052 1185.93 221.479 1184.84 221.938C1183.76 222.375 1182.57 222.594 1181.28 222.594C1180.2 222.594 1179.39 222.365 1178.84 221.906C1178.3 221.448 1178.03 220.448 1178.03 218.906V218.281C1176.68 219.698 1175.21 220.781 1173.62 221.531C1172.06 222.281 1170.19 222.656 1168 222.656C1166.75 222.656 1165.45 222.385 1164.09 221.844C1162.74 221.302 1161.59 220.427 1160.66 219.219C1159.72 218.01 1159.25 216.406 1159.25 214.406ZM1165.78 214.25C1165.78 215.562 1166.18 216.719 1166.97 217.719C1167.78 218.698 1168.88 219.188 1170.25 219.188C1171.98 219.188 1173.45 218.896 1174.66 218.312C1175.89 217.729 1176.81 217.125 1177.44 216.5V205.5C1175.19 205.833 1173.19 206.271 1171.44 206.812C1169.69 207.333 1168.3 208.167 1167.28 209.312C1166.28 210.438 1165.78 212.083 1165.78 214.25ZM1191.69 222C1191.33 222 1191.06 221.844 1190.88 221.531C1190.71 221.219 1190.62 220.948 1190.62 220.719C1190.62 220.031 1190.97 219.646 1191.66 219.562C1192.43 219.458 1193.22 219.271 1194.03 219C1194.86 218.729 1195.28 218.25 1195.28 217.562V197.688C1195.28 196.396 1195 195.51 1194.44 195.031C1193.88 194.552 1193.23 194.26 1192.5 194.156C1191.77 194.052 1191.15 193.927 1190.62 193.781C1190.42 193.677 1190.24 193.542 1190.09 193.375C1189.95 193.208 1189.88 192.927 1189.88 192.531C1189.88 192.281 1189.94 191.99 1190.06 191.656C1190.19 191.323 1190.38 191.146 1190.62 191.125C1192.65 191 1194.47 190.927 1196.09 190.906C1197.74 190.865 1198.99 190.844 1199.84 190.844C1200.01 190.844 1200.2 190.927 1200.41 191.094C1200.61 191.26 1200.74 191.594 1200.78 192.094V195.594C1201.16 195.219 1201.92 194.615 1203.06 193.781C1204.23 192.927 1205.66 192.135 1207.34 191.406C1209.03 190.677 1210.85 190.312 1212.81 190.312C1214.17 190.312 1215.41 190.51 1216.53 190.906C1217.68 191.281 1218.59 192.031 1219.28 193.156C1219.97 194.26 1220.31 195.896 1220.31 198.062V216.531C1220.31 217.531 1220.56 218.229 1221.06 218.625C1221.56 219.021 1222.15 219.26 1222.81 219.344C1223.48 219.406 1224.07 219.479 1224.59 219.562C1224.95 219.604 1225.21 219.698 1225.38 219.844C1225.54 219.969 1225.62 220.26 1225.62 220.719C1225.62 220.948 1225.53 221.219 1225.34 221.531C1225.18 221.844 1224.92 222 1224.56 222H1211.22C1210.86 222 1210.59 221.844 1210.41 221.531C1210.24 221.219 1210.16 220.948 1210.16 220.719C1210.16 220.385 1210.22 220.115 1210.34 219.906C1210.47 219.698 1210.73 219.583 1211.12 219.562C1211.79 219.521 1212.51 219.323 1213.28 218.969C1214.05 218.615 1214.44 218.146 1214.44 217.562V197.156C1214.44 196.802 1214.35 196.375 1214.19 195.875C1214.04 195.375 1213.68 194.938 1213.09 194.562C1212.53 194.188 1211.64 194 1210.41 194C1209.11 194 1207.86 194.219 1206.66 194.656C1205.45 195.073 1204.36 195.583 1203.41 196.188C1202.45 196.792 1201.68 197.365 1201.09 197.906V216.531C1201.09 217.865 1201.48 218.688 1202.25 219C1203.04 219.292 1203.82 219.479 1204.59 219.562C1205.03 219.604 1205.32 219.688 1205.47 219.812C1205.64 219.938 1205.72 220.24 1205.72 220.719C1205.72 220.948 1205.62 221.219 1205.44 221.531C1205.27 221.844 1205.01 222 1204.66 222H1191.69ZM1242.69 222.906C1239.42 222.906 1236.78 222.135 1234.78 220.594C1232.8 219.052 1231.36 217.042 1230.47 214.562C1229.59 212.083 1229.16 209.438 1229.16 206.625C1229.16 203.812 1229.66 201.167 1230.66 198.688C1231.66 196.208 1233.2 194.198 1235.28 192.656C1237.39 191.094 1240.08 190.312 1243.38 190.312C1245.08 190.312 1246.69 190.5 1248.19 190.875C1249.69 191.229 1250.92 191.875 1251.88 192.812L1251.56 187.5V180.156C1251.56 179.177 1251.33 178.448 1250.88 177.969C1250.44 177.469 1249.89 177.125 1249.22 176.938C1248.57 176.729 1247.92 176.594 1247.25 176.531C1246.6 176.448 1246.07 176.354 1245.66 176.25C1245.45 176.146 1245.27 176.01 1245.12 175.844C1244.98 175.677 1244.91 175.396 1244.91 175C1244.91 174.75 1244.97 174.458 1245.09 174.125C1245.22 173.792 1245.41 173.615 1245.66 173.594C1247.05 173.51 1248.46 173.448 1249.88 173.406C1251.31 173.365 1252.61 173.344 1253.78 173.344C1254.97 173.323 1255.85 173.312 1256.44 173.312C1256.6 173.312 1256.79 173.396 1257 173.562C1257.21 173.729 1257.33 174.062 1257.38 174.562V216.531C1257.38 217.865 1257.76 218.688 1258.53 219C1259.32 219.292 1260.1 219.479 1260.88 219.562C1261.31 219.604 1261.6 219.688 1261.75 219.812C1261.92 219.938 1262 220.24 1262 220.719C1262 220.948 1261.91 221.219 1261.72 221.531C1261.55 221.844 1261.29 222 1260.94 222H1253.94C1252.77 222 1252.07 221.74 1251.84 221.219C1251.64 220.698 1251.54 219.948 1251.56 218.969C1250.48 220.156 1249.09 221.115 1247.41 221.844C1245.74 222.552 1244.17 222.906 1242.69 222.906ZM1244.66 219.938C1245.86 219.938 1247.15 219.594 1248.5 218.906C1249.85 218.219 1250.88 217.417 1251.56 216.5V196.562C1250.98 195.458 1250.09 194.635 1248.91 194.094C1247.72 193.552 1246.26 193.281 1244.53 193.281C1242.22 193.281 1240.43 193.865 1239.16 195.031C1237.91 196.198 1237.04 197.792 1236.56 199.812C1236.08 201.812 1235.84 204.083 1235.84 206.625C1235.84 209.104 1236.09 211.354 1236.59 213.375C1237.09 215.396 1237.98 217 1239.25 218.188C1240.52 219.354 1242.32 219.938 1244.66 219.938ZM908.531 303C908.177 303 907.906 302.792 907.719 302.375C907.552 301.958 907.469 301.635 907.469 301.406C907.469 300.74 907.917 300.354 908.812 300.25C909.521 300.188 910.271 300.146 911.062 300.125C911.854 300.104 912.531 299.969 913.094 299.719C913.677 299.469 913.969 298.979 913.969 298.25V286.312L901.75 263.812C901.042 262.521 900.271 261.771 899.438 261.562C898.604 261.333 897.802 261.177 897.031 261.094C896.594 261.052 896.302 260.969 896.156 260.844C895.99 260.698 895.906 260.396 895.906 259.938C895.906 259.708 896 259.438 896.188 259.125C896.375 258.812 896.635 258.656 896.969 258.656H913.281C913.635 258.656 913.896 258.812 914.062 259.125C914.25 259.438 914.344 259.708 914.344 259.938C914.344 260.625 914 261.01 913.312 261.094C912.083 261.156 910.979 261.26 910 261.406C909.042 261.531 908.562 261.833 908.562 262.312C908.562 262.375 908.573 262.448 908.594 262.531C908.615 262.594 908.646 262.677 908.688 262.781L919.344 284.281H917.594L928.562 262.781C928.646 262.615 928.688 262.448 928.688 262.281C928.625 261.823 928.125 261.531 927.188 261.406C926.25 261.26 925.167 261.156 923.938 261.094C923.25 261.01 922.906 260.625 922.906 259.938C922.906 259.708 922.99 259.438 923.156 259.125C923.344 258.812 923.615 258.656 923.969 258.656H936.938C937.292 258.656 937.552 258.812 937.719 259.125C937.906 259.438 938 259.708 938 259.938C938 260.396 937.917 260.698 937.75 260.844C937.604 260.969 937.312 261.052 936.875 261.094C936.104 261.177 935.302 261.333 934.469 261.562C933.635 261.771 932.865 262.521 932.156 263.812L920.438 285.281V297.844C920.438 298.74 920.74 299.333 921.344 299.625C921.948 299.917 922.667 300.073 923.5 300.094C924.354 300.115 925.125 300.167 925.812 300.25C926.25 300.292 926.594 300.375 926.844 300.5C927.115 300.625 927.25 300.927 927.25 301.406C927.25 301.635 927.156 301.958 926.969 302.375C926.802 302.792 926.542 303 926.188 303H908.531ZM939.062 287.625C939.062 284.625 939.656 281.896 940.844 279.438C942.052 276.958 943.771 274.99 946 273.531C948.25 272.052 950.938 271.312 954.062 271.312C957.188 271.312 959.844 272.052 962.031 273.531C964.219 274.99 965.885 276.958 967.031 279.438C968.177 281.896 968.75 284.625 968.75 287.625C968.75 290.625 968.156 293.354 966.969 295.812C965.802 298.271 964.104 300.24 961.875 301.719C959.646 303.177 956.969 303.906 953.844 303.906C950.719 303.906 948.052 303.177 945.844 301.719C943.656 300.24 941.979 298.271 940.812 295.812C939.646 293.354 939.062 290.625 939.062 287.625ZM945.781 287.625C945.781 291.812 946.354 295.083 947.5 297.438C948.646 299.771 950.792 300.938 953.938 300.938C957.083 300.938 959.208 299.771 960.312 297.438C961.417 295.083 961.969 291.812 961.969 287.625C961.969 283.438 961.396 280.177 960.25 277.844C959.104 275.49 956.958 274.312 953.812 274.312C950.667 274.312 948.542 275.49 947.438 277.844C946.333 280.198 945.781 283.458 945.781 287.625ZM986.438 303.844C984.938 303.844 983.5 303.604 982.125 303.125C980.771 302.667 979.656 301.771 978.781 300.438C977.927 299.104 977.5 297.146 977.5 294.562V277.656C977.5 276.76 977.292 276.115 976.875 275.719C976.479 275.302 976 275.031 975.438 274.906C974.875 274.76 974.333 274.667 973.812 274.625C973.375 274.583 973.073 274.5 972.906 274.375C972.76 274.229 972.688 273.927 972.688 273.469C972.688 273.24 972.781 272.969 972.969 272.656C973.156 272.344 973.417 272.188 973.75 272.188H982.219C982.99 272.188 983.375 272.562 983.375 273.312V294.844C983.375 295.344 983.448 295.958 983.594 296.688C983.76 297.417 984.125 298.062 984.688 298.625C985.271 299.188 986.177 299.469 987.406 299.469C989.51 299.469 991.208 299.188 992.5 298.625C993.812 298.042 994.979 297.208 996 296.125V277.656C996 276.76 995.75 276.115 995.25 275.719C994.75 275.323 994.135 275.062 993.406 274.938C992.677 274.792 991.958 274.688 991.25 274.625C990.812 274.583 990.51 274.5 990.344 274.375C990.198 274.229 990.125 273.927 990.125 273.469C990.125 273.24 990.219 272.969 990.406 272.656C990.594 272.344 990.854 272.188 991.188 272.188H1000.66C1001.43 272.188 1001.81 272.562 1001.81 273.312V296.438C1001.81 297.958 1001.94 298.979 1002.19 299.5C1002.46 300 1002.76 300.25 1003.09 300.25C1003.39 300.25 1003.64 300.229 1003.84 300.188C1004.07 300.146 1004.31 300.083 1004.56 300C1004.92 299.896 1005.21 300.021 1005.44 300.375C1005.69 300.708 1005.81 301.031 1005.81 301.344C1005.81 301.573 1005.75 301.74 1005.62 301.844C1005.42 302.073 1004.78 302.458 1003.72 303C1002.68 303.521 1001.31 303.781 999.625 303.781C998.938 303.781 998.344 303.615 997.844 303.281C997.344 302.948 996.938 302.427 996.625 301.719C996.312 300.99 996.104 300.052 996 298.906C995.646 299.573 994.969 300.292 993.969 301.062C992.99 301.833 991.833 302.49 990.5 303.031C989.188 303.573 987.833 303.844 986.438 303.844ZM1011.69 303C1011.33 303 1011.06 302.844 1010.88 302.531C1010.71 302.219 1010.62 301.948 1010.62 301.719C1010.62 301.031 1010.97 300.646 1011.66 300.562C1012.51 300.479 1013.32 300.302 1014.09 300.031C1014.89 299.74 1015.28 299.25 1015.28 298.562V278.688C1015.28 277.396 1015.01 276.51 1014.47 276.031C1013.93 275.552 1013.29 275.26 1012.56 275.156C1011.83 275.052 1011.19 274.927 1010.62 274.781C1010.42 274.677 1010.24 274.542 1010.09 274.375C1009.95 274.208 1009.88 273.927 1009.88 273.531C1009.88 273.281 1009.94 273 1010.06 272.688C1010.21 272.375 1010.4 272.208 1010.62 272.188C1012.71 272.062 1014.54 271.948 1016.12 271.844C1017.71 271.74 1018.95 271.677 1019.84 271.656C1020.01 271.656 1020.2 271.74 1020.41 271.906C1020.61 272.073 1020.74 272.406 1020.78 272.906V277.438C1021.43 276.417 1022.12 275.448 1022.88 274.531C1023.65 273.594 1024.51 272.823 1025.47 272.219C1026.43 271.615 1027.53 271.312 1028.78 271.312C1030.11 271.312 1031.11 271.531 1031.78 271.969C1032.45 272.406 1032.9 272.958 1033.12 273.625C1033.35 274.292 1033.47 274.99 1033.47 275.719C1033.47 276.51 1033.22 277.167 1032.72 277.688C1032.24 278.188 1031.68 278.562 1031.03 278.812C1030.41 279.062 1029.89 279.188 1029.47 279.188L1026.5 275.438C1025.88 275.438 1025.21 275.677 1024.5 276.156C1023.81 276.635 1023.17 277.271 1022.56 278.062C1021.96 278.854 1021.47 279.708 1021.09 280.625V297.531C1021.09 298.427 1021.39 299.083 1021.97 299.5C1022.57 299.896 1023.29 300.156 1024.12 300.281C1024.98 300.406 1025.76 300.5 1026.47 300.562C1026.91 300.604 1027.2 300.688 1027.34 300.812C1027.51 300.938 1027.59 301.24 1027.59 301.719C1027.59 301.948 1027.5 302.219 1027.31 302.531C1027.15 302.844 1026.89 303 1026.53 303H1011.69ZM1053.72 303C1053.36 303 1053.09 302.792 1052.91 302.375C1052.74 301.958 1052.66 301.635 1052.66 301.406C1052.66 300.719 1053 300.333 1053.69 300.25C1054.69 300.167 1055.69 299.99 1056.69 299.719C1057.71 299.427 1058.22 298.938 1058.22 298.25L1058.25 264.438C1058.25 263.542 1058.01 262.896 1057.53 262.5C1057.05 262.104 1056.47 261.844 1055.78 261.719C1055.11 261.573 1054.46 261.469 1053.81 261.406C1053.38 261.365 1053.07 261.281 1052.91 261.156C1052.76 261.01 1052.69 260.708 1052.69 260.25C1052.69 260.021 1052.77 259.698 1052.94 259.281C1053.12 258.865 1053.4 258.656 1053.75 258.656C1055 258.656 1056.07 258.656 1056.97 258.656C1057.86 258.635 1058.73 258.625 1059.56 258.625C1061.31 258.625 1062.7 258.604 1063.72 258.562C1064.74 258.521 1065.74 258.479 1066.72 258.438C1067.7 258.375 1068.99 258.354 1070.59 258.375C1073.53 258.396 1076.2 258.792 1078.59 259.562C1080.99 260.312 1082.89 261.542 1084.28 263.25C1085.7 264.958 1086.41 267.271 1086.41 270.188C1086.41 272.292 1086.03 274.156 1085.28 275.781C1084.55 277.385 1083.44 278.75 1081.94 279.875C1080.46 280.979 1078.59 281.833 1076.34 282.438C1078.41 282.646 1080.02 283.229 1081.19 284.188C1082.35 285.125 1083.28 286.292 1083.97 287.688C1084.66 289.062 1085.29 290.531 1085.88 292.094C1086.46 293.635 1087.2 295.125 1088.09 296.562C1088.8 297.917 1089.57 298.844 1090.41 299.344C1091.24 299.844 1092.04 300.135 1092.81 300.219C1093.56 300.302 1093.94 300.75 1093.94 301.562C1093.94 301.792 1093.84 302.094 1093.66 302.469C1093.49 302.823 1093.23 303 1092.88 303H1084.53C1083.61 303 1082.82 302.531 1082.16 301.594C1081.51 300.656 1080.92 299.448 1080.38 297.969C1079.83 296.469 1079.27 294.896 1078.69 293.25C1078.12 291.583 1077.47 290.01 1076.72 288.531C1075.99 287.031 1075.09 285.812 1074.03 284.875C1072.97 283.938 1071.67 283.469 1070.12 283.469H1064.56V297.219C1064.56 298.115 1064.85 298.771 1065.44 299.188C1066.02 299.583 1066.73 299.844 1067.56 299.969C1068.4 300.094 1069.19 300.188 1069.94 300.25C1070.38 300.292 1070.67 300.375 1070.81 300.5C1070.98 300.625 1071.06 300.927 1071.06 301.406C1071.06 301.635 1070.97 301.958 1070.78 302.375C1070.61 302.792 1070.35 303 1070 303H1053.72ZM1064.59 280.781H1069.84C1071.57 280.781 1073.18 280.51 1074.66 279.969C1076.14 279.427 1077.33 278.458 1078.25 277.062C1079.17 275.667 1079.62 273.698 1079.62 271.156C1079.62 268.615 1079.17 266.635 1078.25 265.219C1077.33 263.802 1076.08 262.812 1074.5 262.25C1072.92 261.667 1071.12 261.375 1069.12 261.375H1064.62L1064.59 280.781ZM1097.84 303C1097.49 303 1097.22 302.844 1097.03 302.531C1096.86 302.219 1096.78 301.948 1096.78 301.719C1096.78 301.031 1097.12 300.646 1097.81 300.562C1098.58 300.458 1099.38 300.271 1100.19 300C1101 299.729 1101.41 299.25 1101.41 298.562L1101.44 278.688C1101.44 277.396 1101.17 276.51 1100.62 276.031C1100.08 275.552 1099.45 275.26 1098.72 275.156C1097.99 275.052 1097.34 274.927 1096.78 274.781C1096.57 274.677 1096.4 274.542 1096.25 274.375C1096.1 274.208 1096.03 273.927 1096.03 273.531C1096.03 273.281 1096.09 273 1096.22 272.688C1096.34 272.354 1096.53 272.177 1096.78 272.156C1098.86 272.031 1100.75 271.948 1102.44 271.906C1104.12 271.865 1105.42 271.844 1106.31 271.844C1106.48 271.844 1106.67 271.927 1106.88 272.094C1107.08 272.26 1107.21 272.594 1107.25 273.094V297.531C1107.25 298.427 1107.46 299.083 1107.88 299.5C1108.31 299.896 1108.82 300.156 1109.41 300.281C1110.01 300.406 1110.56 300.5 1111.06 300.562C1111.5 300.604 1111.79 300.688 1111.94 300.812C1112.1 300.938 1112.19 301.24 1112.19 301.719C1112.19 301.948 1112.09 302.219 1111.91 302.531C1111.74 302.844 1111.48 303 1111.12 303H1097.84ZM1104.25 266.344C1103.1 266.344 1102.19 265.927 1101.5 265.094C1100.81 264.24 1100.47 263.208 1100.47 262C1100.47 260.771 1100.81 259.74 1101.5 258.906C1102.19 258.073 1103.1 257.656 1104.25 257.656C1105.4 257.656 1106.31 258.073 1107 258.906C1107.69 259.74 1108.03 260.771 1108.03 262C1108.03 263.208 1107.69 264.24 1107 265.094C1106.31 265.927 1105.4 266.344 1104.25 266.344ZM1129.06 318C1126.98 318 1125.08 317.75 1123.38 317.25C1121.67 316.75 1120.2 316.052 1118.97 315.156C1117.74 314.281 1116.79 313.25 1116.12 312.062C1115.46 310.896 1115.12 309.625 1115.12 308.25C1115.12 306.354 1115.68 304.927 1116.78 303.969C1117.89 303.01 1119.04 302.354 1120.25 302C1119.1 301.5 1118.27 300.802 1117.75 299.906C1117.23 298.99 1116.97 297.896 1116.97 296.625C1116.97 295.312 1117.43 294.031 1118.34 292.781C1119.26 291.51 1120.31 290.708 1121.5 290.375C1120.04 289.396 1118.98 288.104 1118.31 286.5C1117.67 284.896 1117.34 283.312 1117.34 281.75C1117.34 279.812 1117.79 278.052 1118.69 276.469C1119.6 274.885 1120.91 273.635 1122.59 272.719C1124.3 271.781 1126.33 271.312 1128.69 271.312C1130.42 271.312 1131.96 271.573 1133.31 272.094C1134.67 272.615 1135.82 273.333 1136.78 274.25C1137.32 273.312 1138.03 272.552 1138.91 271.969C1139.8 271.365 1140.79 271.062 1141.88 271.062C1143.25 271.062 1144.3 271.531 1145.03 272.469C1145.76 273.385 1146.12 274.521 1146.12 275.875C1146.12 276.875 1145.88 277.656 1145.38 278.219C1144.88 278.781 1144.33 279.062 1143.75 279.062L1140.47 273.906C1140.01 274.01 1139.61 274.198 1139.28 274.469C1138.97 274.719 1138.56 275.146 1138.06 275.75C1139.23 277.458 1139.81 279.458 1139.81 281.75C1139.81 283.646 1139.35 285.396 1138.44 287C1137.54 288.604 1136.25 289.885 1134.56 290.844C1132.88 291.802 1130.85 292.281 1128.5 292.281C1127.42 292.281 1126.45 292.24 1125.59 292.156C1124.76 292.052 1124.07 291.865 1123.53 291.594C1122.76 291.865 1122.21 292.271 1121.88 292.812C1121.54 293.354 1121.38 293.927 1121.38 294.531C1121.38 295.635 1121.78 296.49 1122.59 297.094C1123.41 297.698 1124.44 298 1125.69 298H1132.75C1134.96 298 1136.82 298.25 1138.34 298.75C1139.89 299.229 1141.05 300.125 1141.84 301.438C1142.66 302.75 1143.05 304.635 1143.03 307.094C1143.03 308.865 1142.51 310.583 1141.47 312.25C1140.43 313.917 1138.88 315.292 1136.81 316.375C1134.75 317.458 1132.17 318 1129.06 318ZM1129.69 314.969C1130.52 314.969 1131.46 314.865 1132.5 314.656C1133.56 314.469 1134.58 314.115 1135.56 313.594C1136.54 313.094 1137.34 312.396 1137.97 311.5C1138.61 310.604 1138.94 309.458 1138.94 308.062C1138.94 306.938 1138.64 306.042 1138.03 305.375C1137.45 304.729 1136.67 304.271 1135.69 304C1134.71 303.729 1133.64 303.594 1132.47 303.594H1126.91C1126.05 303.594 1125.34 303.562 1124.78 303.5C1124.24 303.458 1123.78 303.385 1123.41 303.281C1123.03 303.198 1122.69 303.104 1122.38 303C1122.02 303.438 1121.67 304.021 1121.31 304.75C1120.98 305.5 1120.81 306.469 1120.81 307.656C1120.81 309.365 1121.24 310.76 1122.09 311.844C1122.95 312.927 1124.05 313.719 1125.41 314.219C1126.76 314.719 1128.19 314.969 1129.69 314.969ZM1128.62 289.281C1130.04 289.281 1131.14 288.938 1131.91 288.25C1132.68 287.562 1133.21 286.646 1133.5 285.5C1133.79 284.333 1133.94 283.062 1133.94 281.688C1133.94 279.583 1133.56 277.812 1132.81 276.375C1132.06 274.938 1130.62 274.219 1128.5 274.219C1127.08 274.219 1125.98 274.552 1125.19 275.219C1124.42 275.865 1123.89 276.75 1123.59 277.875C1123.3 279 1123.16 280.271 1123.16 281.688C1123.16 283.062 1123.31 284.333 1123.62 285.5C1123.94 286.646 1124.49 287.562 1125.28 288.25C1126.07 288.938 1127.19 289.281 1128.62 289.281ZM1148.28 303C1147.93 303 1147.66 302.844 1147.47 302.531C1147.3 302.219 1147.22 301.948 1147.22 301.719C1147.22 301.031 1147.56 300.646 1148.25 300.562C1149.02 300.458 1149.81 300.271 1150.62 300C1151.46 299.729 1151.88 299.25 1151.88 298.562V261.156C1151.88 259.865 1151.6 258.979 1151.06 258.5C1150.52 258.021 1149.89 257.729 1149.16 257.625C1148.43 257.521 1147.78 257.396 1147.22 257.25C1147.01 257.146 1146.83 257.01 1146.69 256.844C1146.54 256.677 1146.47 256.396 1146.47 256C1146.47 255.75 1146.53 255.458 1146.66 255.125C1146.78 254.792 1146.97 254.615 1147.22 254.594C1149.3 254.469 1151.19 254.396 1152.88 254.375C1154.56 254.333 1155.85 254.312 1156.75 254.312C1156.92 254.312 1157.1 254.396 1157.31 254.562C1157.52 254.729 1157.65 255.062 1157.69 255.562V268.5L1157.38 276.594C1157.75 276.219 1158.51 275.615 1159.66 274.781C1160.8 273.927 1162.22 273.135 1163.91 272.406C1165.59 271.677 1167.42 271.312 1169.38 271.312C1170.73 271.312 1171.98 271.51 1173.12 271.906C1174.27 272.281 1175.19 273.031 1175.88 274.156C1176.56 275.26 1176.91 276.896 1176.91 279.062V297.531C1176.91 298.531 1177.16 299.229 1177.66 299.625C1178.16 300.021 1178.74 300.26 1179.41 300.344C1180.07 300.406 1180.67 300.479 1181.19 300.562C1181.54 300.604 1181.8 300.698 1181.97 300.844C1182.14 300.969 1182.22 301.26 1182.22 301.719C1182.22 301.948 1182.12 302.219 1181.94 302.531C1181.77 302.844 1181.51 303 1181.16 303H1167.81C1167.46 303 1167.19 302.844 1167 302.531C1166.83 302.219 1166.75 301.948 1166.75 301.719C1166.75 301.385 1166.81 301.115 1166.94 300.906C1167.06 300.698 1167.32 300.583 1167.72 300.562C1168.39 300.521 1169.1 300.323 1169.88 299.969C1170.65 299.615 1171.03 299.146 1171.03 298.562V278.156C1171.03 277.802 1170.95 277.375 1170.78 276.875C1170.64 276.375 1170.27 275.938 1169.69 275.562C1169.12 275.188 1168.23 275 1167 275C1165.71 275 1164.46 275.219 1163.25 275.656C1162.04 276.073 1160.96 276.583 1160 277.188C1159.04 277.792 1158.27 278.365 1157.69 278.906V297.531C1157.69 298.427 1157.88 299.083 1158.25 299.5C1158.62 299.896 1159.08 300.156 1159.62 300.281C1160.17 300.406 1160.69 300.5 1161.19 300.562C1161.62 300.604 1161.92 300.688 1162.06 300.812C1162.23 300.938 1162.31 301.24 1162.31 301.719C1162.31 301.948 1162.22 302.219 1162.03 302.531C1161.86 302.844 1161.6 303 1161.25 303H1148.28ZM1196.47 303.938C1194.59 303.938 1193.07 303.656 1191.91 303.094C1190.74 302.552 1189.88 301.698 1189.31 300.531C1188.77 299.365 1188.5 297.865 1188.5 296.031V274.656H1184.91C1184.66 274.635 1184.47 274.521 1184.34 274.312C1184.22 274.083 1184.16 273.844 1184.16 273.594C1184.16 272.698 1184.45 272.25 1185.03 272.25C1186.36 272.104 1187.46 271.75 1188.31 271.188C1189.17 270.604 1189.89 269.688 1190.47 268.438C1191.05 267.188 1191.58 265.5 1192.06 263.375C1192.12 263.062 1192.27 262.865 1192.5 262.781C1192.73 262.698 1193.03 262.656 1193.41 262.656C1193.82 262.656 1194.07 262.708 1194.16 262.812C1194.26 262.917 1194.31 263.115 1194.31 263.406V271.938H1203.53C1203.78 271.958 1203.97 272.083 1204.09 272.312C1204.22 272.521 1204.28 272.75 1204.28 273C1204.28 273.438 1204.19 273.823 1204 274.156C1203.83 274.49 1203.64 274.656 1203.41 274.656H1194.31V293.75C1194.31 295.521 1194.49 296.875 1194.84 297.812C1195.2 298.729 1195.65 299.365 1196.19 299.719C1196.73 300.052 1197.26 300.219 1197.78 300.219C1199.22 300.219 1200.35 300.083 1201.19 299.812C1202.04 299.521 1202.85 299.115 1203.62 298.594C1203.83 298.448 1204.04 298.521 1204.25 298.812C1204.48 299.104 1204.66 299.438 1204.78 299.812C1204.91 300.188 1204.9 300.438 1204.75 300.562C1204.31 300.938 1203.66 301.396 1202.78 301.938C1201.91 302.458 1200.92 302.917 1199.81 303.312C1198.71 303.729 1197.59 303.938 1196.47 303.938ZM1219.06 303.875C1217.35 303.875 1216.04 303.719 1215.12 303.406C1214.21 303.094 1213.46 302.854 1212.88 302.688C1212 302.417 1211.38 302.281 1211 302.281C1210.73 302.281 1210.51 302.312 1210.34 302.375C1210.18 302.438 1210.01 302.51 1209.84 302.594C1209.68 302.656 1209.45 302.688 1209.16 302.688C1208.8 302.688 1208.5 302.594 1208.25 302.406C1208.02 302.219 1207.91 301.958 1207.91 301.625C1207.91 300.958 1207.89 300.229 1207.84 299.438C1207.8 298.625 1207.75 297.823 1207.69 297.031C1207.62 296.24 1207.57 295.5 1207.53 294.812C1207.49 294.125 1207.47 293.562 1207.47 293.125C1207.47 292.646 1207.57 292.302 1207.78 292.094C1208.01 291.885 1208.26 291.781 1208.53 291.781C1209.09 291.781 1209.44 292.01 1209.56 292.469C1209.69 292.927 1209.85 293.5 1210.06 294.188C1210.27 294.854 1210.77 295.938 1211.56 297.438C1212.1 298.417 1212.78 299.188 1213.59 299.75C1214.41 300.292 1215.26 300.677 1216.16 300.906C1217.05 301.115 1217.89 301.219 1218.66 301.219C1220.47 301.219 1222 300.833 1223.25 300.062C1224.5 299.292 1225.12 298.177 1225.12 296.719C1225.12 295.448 1224.7 294.427 1223.84 293.656C1223.01 292.865 1221.96 292.177 1220.69 291.594C1219.42 290.99 1218.14 290.365 1216.84 289.719C1215.45 289.01 1214.14 288.24 1212.91 287.406C1211.7 286.552 1210.71 285.51 1209.94 284.281C1209.19 283.031 1208.81 281.469 1208.81 279.594C1208.81 277.74 1209.35 276.198 1210.44 274.969C1211.54 273.74 1212.89 272.823 1214.47 272.219C1216.07 271.615 1217.61 271.312 1219.09 271.312C1221.07 271.312 1222.52 271.521 1223.44 271.938C1224.38 272.333 1225.1 272.531 1225.62 272.531C1226.08 272.531 1226.34 272.417 1226.41 272.188C1226.49 271.938 1226.59 271.708 1226.72 271.5C1226.84 271.271 1226.99 271.104 1227.16 271C1227.34 270.896 1227.53 270.844 1227.72 270.844C1227.99 270.844 1228.23 270.938 1228.44 271.125C1228.65 271.312 1228.75 271.583 1228.75 271.938C1228.75 272.125 1228.73 272.615 1228.69 273.406C1228.67 274.177 1228.66 275.031 1228.66 275.969C1228.66 276.948 1228.69 277.76 1228.75 278.406C1228.81 279.031 1228.84 279.49 1228.84 279.781C1228.84 280.219 1228.75 280.521 1228.56 280.688C1228.4 280.854 1228.2 280.938 1227.97 280.938C1227.45 280.938 1227.14 280.771 1227.03 280.438C1226.68 279.604 1226.22 278.688 1225.66 277.688C1225.11 276.688 1224.34 275.823 1223.34 275.094C1222.34 274.365 1220.97 274 1219.22 274C1218.07 274 1217.1 274.177 1216.31 274.531C1215.54 274.865 1214.96 275.344 1214.56 275.969C1214.17 276.573 1213.97 277.302 1213.97 278.156C1213.97 279.573 1214.71 280.76 1216.19 281.719C1217.69 282.677 1219.43 283.646 1221.41 284.625C1223.03 285.396 1224.55 286.208 1225.97 287.062C1227.41 287.896 1228.56 288.875 1229.44 290C1230.33 291.125 1230.78 292.51 1230.78 294.156C1230.78 297.052 1229.75 299.396 1227.69 301.188C1225.65 302.979 1222.77 303.875 1219.06 303.875ZM1238.75 314.25C1238.42 314.25 1238.1 314.146 1237.81 313.938C1237.52 313.75 1237.38 313.49 1237.38 313.156C1237.38 312.781 1237.61 312.323 1238.09 311.781C1238.95 310.844 1239.57 309.719 1239.97 308.406C1240.36 307.094 1240.56 305.948 1240.56 304.969C1240.56 304.573 1240.54 304.219 1240.5 303.906C1240.46 303.615 1240.4 303.385 1240.31 303.219C1239.54 303.052 1238.76 302.688 1237.97 302.125C1237.2 301.562 1236.81 300.604 1236.81 299.25C1236.81 297.854 1237.22 296.792 1238.03 296.062C1238.86 295.333 1239.84 294.969 1240.97 294.969C1242.36 294.969 1243.53 295.49 1244.47 296.531C1245.43 297.573 1245.91 299.188 1245.91 301.375C1245.91 303.312 1245.51 305.156 1244.72 306.906C1243.93 308.677 1243.03 310.188 1242.03 311.438C1241.03 312.688 1240.22 313.542 1239.59 314C1239.36 314.167 1239.08 314.25 1238.75 314.25ZM927.688 384C927.333 384 927.062 383.792 926.875 383.375C926.708 382.958 926.625 382.635 926.625 382.406C926.625 381.719 926.969 381.333 927.656 381.25C928.656 381.167 929.656 380.99 930.656 380.719C931.677 380.427 932.188 379.938 932.188 379.25L932.219 345.438C932.219 344.542 931.948 343.896 931.406 343.5C930.885 343.104 930.26 342.844 929.531 342.719C928.802 342.573 928.115 342.469 927.469 342.406C927.031 342.365 926.729 342.281 926.562 342.156C926.417 342.01 926.344 341.708 926.344 341.25C926.344 341.021 926.427 340.698 926.594 340.281C926.781 339.865 927.052 339.656 927.406 339.656H942.875C943.229 339.656 943.49 339.865 943.656 340.281C943.844 340.698 943.938 341.021 943.938 341.25C943.938 341.938 943.594 342.323 942.906 342.406C941.906 342.49 940.948 342.677 940.031 342.969C939.135 343.24 938.688 343.719 938.688 344.406L938.656 378.219C938.656 379.115 938.896 379.76 939.375 380.156C939.854 380.552 940.438 380.812 941.125 380.938C941.812 381.062 942.469 381.167 943.094 381.25C943.531 381.292 943.823 381.375 943.969 381.5C944.135 381.625 944.219 381.927 944.219 382.406C944.219 382.635 944.125 382.958 943.938 383.375C943.771 383.792 943.51 384 943.156 384H927.688ZM958.125 384C957.771 384 957.312 383.833 956.75 383.5C956.188 383.167 955.531 382.469 954.781 381.406C953.969 380.26 953.083 378.896 952.125 377.312C951.167 375.708 950.156 374.052 949.094 372.344C948.052 370.615 947 369 945.938 367.5C944.875 365.979 943.833 364.729 942.812 363.75C941.792 362.75 940.833 362.198 939.938 362.094L954.438 344.125C954.604 343.938 954.688 343.76 954.688 343.594C954.688 343.302 954.469 343.083 954.031 342.938C953.594 342.792 953.094 342.688 952.531 342.625C951.969 342.542 951.5 342.479 951.125 342.438C950.729 342.396 950.469 342.281 950.344 342.094C950.219 341.885 950.156 341.615 950.156 341.281C950.156 341.052 950.24 340.729 950.406 340.312C950.594 339.875 950.865 339.656 951.219 339.656H965.312C965.667 339.656 965.927 339.875 966.094 340.312C966.281 340.729 966.375 341.052 966.375 341.281C966.375 342.052 966.031 342.438 965.344 342.438C964.281 342.438 963.198 342.635 962.094 343.031C960.99 343.427 960.021 343.927 959.188 344.531L946.906 359.031C947.885 359.677 948.979 360.74 950.188 362.219C951.396 363.677 952.635 365.323 953.906 367.156C955.198 368.969 956.448 370.76 957.656 372.531C958.865 374.302 959.938 375.812 960.875 377.062C961.646 378.083 962.615 379.01 963.781 379.844C964.948 380.677 965.917 381.135 966.688 381.219C967.125 381.26 967.417 381.448 967.562 381.781C967.729 382.115 967.812 382.521 967.812 383C967.812 383.229 967.719 383.458 967.531 383.688C967.365 383.896 967.104 384 966.75 384H958.125ZM971 384C970.646 384 970.375 383.844 970.188 383.531C970.021 383.219 969.938 382.948 969.938 382.719C969.938 382.031 970.281 381.646 970.969 381.562C971.74 381.458 972.531 381.271 973.344 381C974.177 380.729 974.594 380.25 974.594 379.562V359.688C974.594 358.396 974.312 357.51 973.75 357.031C973.188 356.552 972.542 356.26 971.812 356.156C971.083 356.052 970.458 355.927 969.938 355.781C969.729 355.677 969.552 355.542 969.406 355.375C969.26 355.208 969.188 354.927 969.188 354.531C969.188 354.281 969.25 353.99 969.375 353.656C969.5 353.323 969.688 353.146 969.938 353.125C971.958 353 973.781 352.927 975.406 352.906C977.052 352.865 978.302 352.844 979.156 352.844C979.323 352.844 979.51 352.927 979.719 353.094C979.927 353.26 980.052 353.594 980.094 354.094V357.594C980.469 357.219 981.229 356.615 982.375 355.781C983.542 354.927 984.969 354.135 986.656 353.406C988.344 352.677 990.167 352.312 992.125 352.312C993.479 352.312 994.719 352.51 995.844 352.906C996.99 353.281 997.906 354.031 998.594 355.156C999.281 356.26 999.625 357.896 999.625 360.062V378.531C999.625 379.531 999.875 380.229 1000.38 380.625C1000.88 381.021 1001.46 381.26 1002.12 381.344C1002.79 381.406 1003.39 381.479 1003.91 381.562C1004.26 381.604 1004.52 381.698 1004.69 381.844C1004.85 381.969 1004.94 382.26 1004.94 382.719C1004.94 382.948 1004.84 383.219 1004.66 383.531C1004.49 383.844 1004.23 384 1003.88 384H990.531C990.177 384 989.906 383.844 989.719 383.531C989.552 383.219 989.469 382.948 989.469 382.719C989.469 382.385 989.531 382.115 989.656 381.906C989.781 381.698 990.042 381.583 990.438 381.562C991.104 381.521 991.823 381.323 992.594 380.969C993.365 380.615 993.75 380.146 993.75 379.562V359.156C993.75 358.802 993.667 358.375 993.5 357.875C993.354 357.375 992.99 356.938 992.406 356.562C991.844 356.188 990.948 356 989.719 356C988.427 356 987.177 356.219 985.969 356.656C984.76 357.073 983.677 357.583 982.719 358.188C981.76 358.792 980.99 359.365 980.406 359.906V378.531C980.406 379.865 980.792 380.688 981.562 381C982.354 381.292 983.135 381.479 983.906 381.562C984.344 381.604 984.635 381.688 984.781 381.812C984.948 381.938 985.031 382.24 985.031 382.719C985.031 382.948 984.938 383.219 984.75 383.531C984.583 383.844 984.323 384 983.969 384H971ZM1008 368.625C1008 365.625 1008.59 362.896 1009.78 360.438C1010.99 357.958 1012.71 355.99 1014.94 354.531C1017.19 353.052 1019.88 352.312 1023 352.312C1026.12 352.312 1028.78 353.052 1030.97 354.531C1033.16 355.99 1034.82 357.958 1035.97 360.438C1037.11 362.896 1037.69 365.625 1037.69 368.625C1037.69 371.625 1037.09 374.354 1035.91 376.812C1034.74 379.271 1033.04 381.24 1030.81 382.719C1028.58 384.177 1025.91 384.906 1022.78 384.906C1019.66 384.906 1016.99 384.177 1014.78 382.719C1012.59 381.24 1010.92 379.271 1009.75 376.812C1008.58 374.354 1008 371.625 1008 368.625ZM1014.72 368.625C1014.72 372.812 1015.29 376.083 1016.44 378.438C1017.58 380.771 1019.73 381.938 1022.88 381.938C1026.02 381.938 1028.15 380.771 1029.25 378.438C1030.35 376.083 1030.91 372.812 1030.91 368.625C1030.91 364.438 1030.33 361.177 1029.19 358.844C1028.04 356.49 1025.9 355.312 1022.75 355.312C1019.6 355.312 1017.48 356.49 1016.38 358.844C1015.27 361.198 1014.72 364.458 1014.72 368.625ZM1053.03 384.281L1043.47 358.094C1042.84 357.052 1042.24 356.365 1041.66 356.031C1041.09 355.677 1040.43 355.458 1039.66 355.375C1039.22 355.333 1038.93 355.25 1038.78 355.125C1038.61 354.979 1038.53 354.677 1038.53 354.219C1038.53 353.99 1038.62 353.719 1038.81 353.406C1039 353.094 1039.26 352.938 1039.59 352.938H1052.25C1052.6 352.938 1052.86 353.094 1053.03 353.406C1053.22 353.719 1053.31 353.99 1053.31 354.219C1053.31 354.906 1052.97 355.292 1052.28 355.375C1051.51 355.458 1050.76 355.594 1050.03 355.781C1049.32 355.948 1048.97 356.375 1048.97 357.062L1055.69 375.406L1062.88 353.5H1065.88L1073.84 375.312L1080.12 357.062C1080.12 356.604 1079.9 356.271 1079.44 356.062C1079 355.833 1078.48 355.677 1077.88 355.594C1077.27 355.51 1076.71 355.438 1076.19 355.375C1075.5 355.292 1075.16 354.906 1075.16 354.219C1075.16 353.99 1075.24 353.719 1075.41 353.406C1075.59 353.094 1075.86 352.938 1076.22 352.938H1086.38C1086.73 352.938 1086.99 353.094 1087.16 353.406C1087.34 353.719 1087.44 353.99 1087.44 354.219C1087.44 354.677 1087.35 354.979 1087.19 355.125C1087.04 355.25 1086.75 355.333 1086.31 355.375C1085.54 355.458 1084.92 355.677 1084.44 356.031C1083.98 356.365 1083.44 357.052 1082.81 358.094L1073.53 384.281H1071.22L1062.94 361.781L1055.34 384.281H1053.03ZM1113.97 384C1113.61 384 1113.34 383.792 1113.16 383.375C1112.99 382.958 1112.91 382.635 1112.91 382.406C1112.91 381.74 1113.35 381.354 1114.25 381.25C1114.96 381.188 1115.71 381.146 1116.5 381.125C1117.29 381.104 1117.97 380.969 1118.53 380.719C1119.11 380.469 1119.41 379.979 1119.41 379.25V367.312L1107.19 344.812C1106.48 343.521 1105.71 342.771 1104.88 342.562C1104.04 342.333 1103.24 342.177 1102.47 342.094C1102.03 342.052 1101.74 341.969 1101.59 341.844C1101.43 341.698 1101.34 341.396 1101.34 340.938C1101.34 340.708 1101.44 340.438 1101.62 340.125C1101.81 339.812 1102.07 339.656 1102.41 339.656H1118.72C1119.07 339.656 1119.33 339.812 1119.5 340.125C1119.69 340.438 1119.78 340.708 1119.78 340.938C1119.78 341.625 1119.44 342.01 1118.75 342.094C1117.52 342.156 1116.42 342.26 1115.44 342.406C1114.48 342.531 1114 342.833 1114 343.312C1114 343.375 1114.01 343.448 1114.03 343.531C1114.05 343.594 1114.08 343.677 1114.12 343.781L1124.78 365.281H1123.03L1134 343.781C1134.08 343.615 1134.12 343.448 1134.12 343.281C1134.06 342.823 1133.56 342.531 1132.62 342.406C1131.69 342.26 1130.6 342.156 1129.38 342.094C1128.69 342.01 1128.34 341.625 1128.34 340.938C1128.34 340.708 1128.43 340.438 1128.59 340.125C1128.78 339.812 1129.05 339.656 1129.41 339.656H1142.38C1142.73 339.656 1142.99 339.812 1143.16 340.125C1143.34 340.438 1143.44 340.708 1143.44 340.938C1143.44 341.396 1143.35 341.698 1143.19 341.844C1143.04 341.969 1142.75 342.052 1142.31 342.094C1141.54 342.177 1140.74 342.333 1139.91 342.562C1139.07 342.771 1138.3 343.521 1137.59 344.812L1125.88 366.281V378.844C1125.88 379.74 1126.18 380.333 1126.78 380.625C1127.39 380.917 1128.1 381.073 1128.94 381.094C1129.79 381.115 1130.56 381.167 1131.25 381.25C1131.69 381.292 1132.03 381.375 1132.28 381.5C1132.55 381.625 1132.69 381.927 1132.69 382.406C1132.69 382.635 1132.59 382.958 1132.41 383.375C1132.24 383.792 1131.98 384 1131.62 384H1113.97ZM1144.5 368.625C1144.5 365.625 1145.09 362.896 1146.28 360.438C1147.49 357.958 1149.21 355.99 1151.44 354.531C1153.69 353.052 1156.38 352.312 1159.5 352.312C1162.62 352.312 1165.28 353.052 1167.47 354.531C1169.66 355.99 1171.32 357.958 1172.47 360.438C1173.61 362.896 1174.19 365.625 1174.19 368.625C1174.19 371.625 1173.59 374.354 1172.41 376.812C1171.24 379.271 1169.54 381.24 1167.31 382.719C1165.08 384.177 1162.41 384.906 1159.28 384.906C1156.16 384.906 1153.49 384.177 1151.28 382.719C1149.09 381.24 1147.42 379.271 1146.25 376.812C1145.08 374.354 1144.5 371.625 1144.5 368.625ZM1151.22 368.625C1151.22 372.812 1151.79 376.083 1152.94 378.438C1154.08 380.771 1156.23 381.938 1159.38 381.938C1162.52 381.938 1164.65 380.771 1165.75 378.438C1166.85 376.083 1167.41 372.812 1167.41 368.625C1167.41 364.438 1166.83 361.177 1165.69 358.844C1164.54 356.49 1162.4 355.312 1159.25 355.312C1156.1 355.312 1153.98 356.49 1152.88 358.844C1151.77 361.198 1151.22 364.458 1151.22 368.625ZM1191.88 384.844C1190.38 384.844 1188.94 384.604 1187.56 384.125C1186.21 383.667 1185.09 382.771 1184.22 381.438C1183.36 380.104 1182.94 378.146 1182.94 375.562V358.656C1182.94 357.76 1182.73 357.115 1182.31 356.719C1181.92 356.302 1181.44 356.031 1180.88 355.906C1180.31 355.76 1179.77 355.667 1179.25 355.625C1178.81 355.583 1178.51 355.5 1178.34 355.375C1178.2 355.229 1178.12 354.927 1178.12 354.469C1178.12 354.24 1178.22 353.969 1178.41 353.656C1178.59 353.344 1178.85 353.188 1179.19 353.188H1187.66C1188.43 353.188 1188.81 353.562 1188.81 354.312V375.844C1188.81 376.344 1188.89 376.958 1189.03 377.688C1189.2 378.417 1189.56 379.062 1190.12 379.625C1190.71 380.188 1191.61 380.469 1192.84 380.469C1194.95 380.469 1196.65 380.188 1197.94 379.625C1199.25 379.042 1200.42 378.208 1201.44 377.125V358.656C1201.44 357.76 1201.19 357.115 1200.69 356.719C1200.19 356.323 1199.57 356.062 1198.84 355.938C1198.11 355.792 1197.4 355.688 1196.69 355.625C1196.25 355.583 1195.95 355.5 1195.78 355.375C1195.64 355.229 1195.56 354.927 1195.56 354.469C1195.56 354.24 1195.66 353.969 1195.84 353.656C1196.03 353.344 1196.29 353.188 1196.62 353.188H1206.09C1206.86 353.188 1207.25 353.562 1207.25 354.312V377.438C1207.25 378.958 1207.38 379.979 1207.62 380.5C1207.9 381 1208.2 381.25 1208.53 381.25C1208.82 381.25 1209.07 381.229 1209.28 381.188C1209.51 381.146 1209.75 381.083 1210 381C1210.35 380.896 1210.65 381.021 1210.88 381.375C1211.12 381.708 1211.25 382.031 1211.25 382.344C1211.25 382.573 1211.19 382.74 1211.06 382.844C1210.85 383.073 1210.22 383.458 1209.16 384C1208.11 384.521 1206.75 384.781 1205.06 384.781C1204.38 384.781 1203.78 384.615 1203.28 384.281C1202.78 383.948 1202.38 383.427 1202.06 382.719C1201.75 381.99 1201.54 381.052 1201.44 379.906C1201.08 380.573 1200.41 381.292 1199.41 382.062C1198.43 382.833 1197.27 383.49 1195.94 384.031C1194.62 384.573 1193.27 384.844 1191.88 384.844ZM1217.12 384C1216.77 384 1216.5 383.844 1216.31 383.531C1216.15 383.219 1216.06 382.948 1216.06 382.719C1216.06 382.031 1216.41 381.646 1217.09 381.562C1217.95 381.479 1218.76 381.302 1219.53 381.031C1220.32 380.74 1220.72 380.25 1220.72 379.562V359.688C1220.72 358.396 1220.45 357.51 1219.91 357.031C1219.36 356.552 1218.73 356.26 1218 356.156C1217.27 356.052 1216.62 355.927 1216.06 355.781C1215.85 355.677 1215.68 355.542 1215.53 355.375C1215.39 355.208 1215.31 354.927 1215.31 354.531C1215.31 354.281 1215.38 354 1215.5 353.688C1215.65 353.375 1215.83 353.208 1216.06 353.188C1218.15 353.062 1219.98 352.948 1221.56 352.844C1223.15 352.74 1224.39 352.677 1225.28 352.656C1225.45 352.656 1225.64 352.74 1225.84 352.906C1226.05 353.073 1226.18 353.406 1226.22 353.906V358.438C1226.86 357.417 1227.56 356.448 1228.31 355.531C1229.08 354.594 1229.95 353.823 1230.91 353.219C1231.86 352.615 1232.97 352.312 1234.22 352.312C1235.55 352.312 1236.55 352.531 1237.22 352.969C1237.89 353.406 1238.33 353.958 1238.56 354.625C1238.79 355.292 1238.91 355.99 1238.91 356.719C1238.91 357.51 1238.66 358.167 1238.16 358.688C1237.68 359.188 1237.11 359.562 1236.47 359.812C1235.84 360.062 1235.32 360.188 1234.91 360.188L1231.94 356.438C1231.31 356.438 1230.65 356.677 1229.94 357.156C1229.25 357.635 1228.6 358.271 1228 359.062C1227.4 359.854 1226.91 360.708 1226.53 361.625V378.531C1226.53 379.427 1226.82 380.083 1227.41 380.5C1228.01 380.896 1228.73 381.156 1229.56 381.281C1230.42 381.406 1231.2 381.5 1231.91 381.562C1232.34 381.604 1232.64 381.688 1232.78 381.812C1232.95 381.938 1233.03 382.24 1233.03 382.719C1233.03 382.948 1232.94 383.219 1232.75 383.531C1232.58 383.844 1232.32 384 1231.97 384H1217.12ZM980.625 465C980.271 465 980 464.792 979.812 464.375C979.646 463.958 979.562 463.635 979.562 463.406C979.562 462.719 979.906 462.333 980.594 462.25C981.594 462.167 982.594 461.99 983.594 461.719C984.615 461.427 985.125 460.938 985.125 460.25V426.438C985.125 425.542 984.854 424.896 984.312 424.5C983.792 424.104 983.167 423.844 982.438 423.719C981.708 423.573 981.021 423.469 980.375 423.406C979.938 423.365 979.635 423.281 979.469 423.156C979.323 423.01 979.25 422.708 979.25 422.25C979.25 422.021 979.333 421.698 979.5 421.281C979.688 420.865 979.958 420.656 980.312 420.656H998.938C1003.19 420.677 1006.77 421.281 1009.69 422.469C1012.6 423.656 1014.95 425.26 1016.72 427.281C1018.49 429.302 1019.77 431.583 1020.56 434.125C1021.35 436.646 1021.75 439.25 1021.75 441.938C1021.75 445.188 1021.32 448.073 1020.47 450.594C1019.61 453.115 1018.46 455.281 1017 457.094C1015.54 458.906 1013.9 460.396 1012.06 461.562C1010.23 462.729 1008.32 463.594 1006.34 464.156C1004.36 464.719 1002.44 465 1000.56 465H980.625ZM991.75 459.75C991.75 460.042 991.917 460.354 992.25 460.688C992.583 461 993.208 461.271 994.125 461.5C995.062 461.729 996.438 461.844 998.25 461.844C1000.15 461.844 1002.03 461.646 1003.91 461.25C1005.78 460.833 1007.48 459.979 1009 458.688C1010.54 457.375 1011.77 455.396 1012.69 452.75C1013.6 450.104 1014.06 446.542 1014.06 442.062C1014.06 438.188 1013.57 435.052 1012.59 432.656C1011.61 430.24 1010.32 428.385 1008.72 427.094C1007.14 425.781 1005.4 424.885 1003.5 424.406C1001.6 423.927 999.75 423.688 997.938 423.688H991.781L991.75 459.75ZM1039.47 465.844C1037.97 465.844 1036.53 465.604 1035.16 465.125C1033.8 464.667 1032.69 463.771 1031.81 462.438C1030.96 461.104 1030.53 459.146 1030.53 456.562V439.656C1030.53 438.76 1030.32 438.115 1029.91 437.719C1029.51 437.302 1029.03 437.031 1028.47 436.906C1027.91 436.76 1027.36 436.667 1026.84 436.625C1026.41 436.583 1026.1 436.5 1025.94 436.375C1025.79 436.229 1025.72 435.927 1025.72 435.469C1025.72 435.24 1025.81 434.969 1026 434.656C1026.19 434.344 1026.45 434.188 1026.78 434.188H1035.25C1036.02 434.188 1036.41 434.562 1036.41 435.312V456.844C1036.41 457.344 1036.48 457.958 1036.62 458.688C1036.79 459.417 1037.16 460.062 1037.72 460.625C1038.3 461.188 1039.21 461.469 1040.44 461.469C1042.54 461.469 1044.24 461.188 1045.53 460.625C1046.84 460.042 1048.01 459.208 1049.03 458.125V439.656C1049.03 438.76 1048.78 438.115 1048.28 437.719C1047.78 437.323 1047.17 437.062 1046.44 436.938C1045.71 436.792 1044.99 436.688 1044.28 436.625C1043.84 436.583 1043.54 436.5 1043.38 436.375C1043.23 436.229 1043.16 435.927 1043.16 435.469C1043.16 435.24 1043.25 434.969 1043.44 434.656C1043.62 434.344 1043.89 434.188 1044.22 434.188H1053.69C1054.46 434.188 1054.84 434.562 1054.84 435.312V458.438C1054.84 459.958 1054.97 460.979 1055.22 461.5C1055.49 462 1055.79 462.25 1056.12 462.25C1056.42 462.25 1056.67 462.229 1056.88 462.188C1057.1 462.146 1057.34 462.083 1057.59 462C1057.95 461.896 1058.24 462.021 1058.47 462.375C1058.72 462.708 1058.84 463.031 1058.84 463.344C1058.84 463.573 1058.78 463.74 1058.66 463.844C1058.45 464.073 1057.81 464.458 1056.75 465C1055.71 465.521 1054.34 465.781 1052.66 465.781C1051.97 465.781 1051.38 465.615 1050.88 465.281C1050.38 464.948 1049.97 464.427 1049.66 463.719C1049.34 462.99 1049.14 462.052 1049.03 460.906C1048.68 461.573 1048 462.292 1047 463.062C1046.02 463.833 1044.86 464.49 1043.53 465.031C1042.22 465.573 1040.86 465.844 1039.47 465.844ZM1074.25 465.938C1072.38 465.938 1070.85 465.656 1069.69 465.094C1068.52 464.552 1067.66 463.698 1067.09 462.531C1066.55 461.365 1066.28 459.865 1066.28 458.031V436.656H1062.69C1062.44 436.635 1062.25 436.521 1062.12 436.312C1062 436.083 1061.94 435.844 1061.94 435.594C1061.94 434.698 1062.23 434.25 1062.81 434.25C1064.15 434.104 1065.24 433.75 1066.09 433.188C1066.95 432.604 1067.67 431.688 1068.25 430.438C1068.83 429.188 1069.36 427.5 1069.84 425.375C1069.91 425.062 1070.05 424.865 1070.28 424.781C1070.51 424.698 1070.81 424.656 1071.19 424.656C1071.6 424.656 1071.85 424.708 1071.94 424.812C1072.04 424.917 1072.09 425.115 1072.09 425.406V433.938H1081.31C1081.56 433.958 1081.75 434.083 1081.88 434.312C1082 434.521 1082.06 434.75 1082.06 435C1082.06 435.438 1081.97 435.823 1081.78 436.156C1081.61 436.49 1081.42 436.656 1081.19 436.656H1072.09V455.75C1072.09 457.521 1072.27 458.875 1072.62 459.812C1072.98 460.729 1073.43 461.365 1073.97 461.719C1074.51 462.052 1075.04 462.219 1075.56 462.219C1077 462.219 1078.14 462.083 1078.97 461.812C1079.82 461.521 1080.64 461.115 1081.41 460.594C1081.61 460.448 1081.82 460.521 1082.03 460.812C1082.26 461.104 1082.44 461.438 1082.56 461.812C1082.69 462.188 1082.68 462.438 1082.53 462.562C1082.09 462.938 1081.44 463.396 1080.56 463.938C1079.69 464.458 1078.7 464.917 1077.59 465.312C1076.49 465.729 1075.38 465.938 1074.25 465.938ZM1086.38 465C1086.02 465 1085.75 464.844 1085.56 464.531C1085.4 464.219 1085.31 463.948 1085.31 463.719C1085.31 463.031 1085.66 462.646 1086.34 462.562C1087.11 462.458 1087.91 462.271 1088.72 462C1089.53 461.729 1089.94 461.25 1089.94 460.562L1089.97 440.688C1089.97 439.396 1089.7 438.51 1089.16 438.031C1088.61 437.552 1087.98 437.26 1087.25 437.156C1086.52 437.052 1085.88 436.927 1085.31 436.781C1085.1 436.677 1084.93 436.542 1084.78 436.375C1084.64 436.208 1084.56 435.927 1084.56 435.531C1084.56 435.281 1084.62 435 1084.75 434.688C1084.88 434.354 1085.06 434.177 1085.31 434.156C1087.4 434.031 1089.28 433.948 1090.97 433.906C1092.66 433.865 1093.95 433.844 1094.84 433.844C1095.01 433.844 1095.2 433.927 1095.41 434.094C1095.61 434.26 1095.74 434.594 1095.78 435.094V459.531C1095.78 460.427 1095.99 461.083 1096.41 461.5C1096.84 461.896 1097.35 462.156 1097.94 462.281C1098.54 462.406 1099.09 462.5 1099.59 462.562C1100.03 462.604 1100.32 462.688 1100.47 462.812C1100.64 462.938 1100.72 463.24 1100.72 463.719C1100.72 463.948 1100.62 464.219 1100.44 464.531C1100.27 464.844 1100.01 465 1099.66 465H1086.38ZM1092.78 428.344C1091.64 428.344 1090.72 427.927 1090.03 427.094C1089.34 426.24 1089 425.208 1089 424C1089 422.771 1089.34 421.74 1090.03 420.906C1090.72 420.073 1091.64 419.656 1092.78 419.656C1093.93 419.656 1094.84 420.073 1095.53 420.906C1096.22 421.74 1096.56 422.771 1096.56 424C1096.56 425.208 1096.22 426.24 1095.53 427.094C1094.84 427.927 1093.93 428.344 1092.78 428.344ZM1118.5 465.906C1113.73 465.906 1110.12 464.458 1107.69 461.562C1105.25 458.646 1104.03 454.583 1104.03 449.375C1104.03 445.896 1104.69 442.969 1106 440.594C1107.31 438.198 1109.04 436.385 1111.19 435.156C1113.33 433.927 1115.65 433.312 1118.12 433.312C1120.75 433.312 1122.89 433.771 1124.53 434.688C1126.2 435.583 1127.48 436.844 1128.38 438.469C1129.29 440.073 1129.94 441.948 1130.31 444.094C1130.46 444.885 1130.55 445.719 1130.59 446.594C1130.66 447.469 1130.69 448.365 1130.69 449.281H1110.75C1110.77 452.573 1111.21 455.198 1112.06 457.156C1112.92 459.115 1113.99 460.521 1115.28 461.375C1116.59 462.229 1117.94 462.656 1119.31 462.656C1120.9 462.656 1122.34 462.302 1123.66 461.594C1124.97 460.865 1125.96 459.833 1126.62 458.5C1126.69 458.375 1126.75 458.25 1126.81 458.125C1126.88 458 1127.01 457.958 1127.22 458L1128.78 458.719C1129.01 458.802 1129.12 458.927 1129.12 459.094C1129.12 459.177 1129.1 459.271 1129.06 459.375C1129.02 459.458 1128.98 459.531 1128.94 459.594C1128.02 461.427 1126.72 462.938 1125.03 464.125C1123.34 465.312 1121.17 465.906 1118.5 465.906ZM1110.81 446.594L1123.75 446.406C1123.75 442.781 1123.21 440.198 1122.12 438.656C1121.04 437.094 1119.7 436.312 1118.09 436.312C1116.61 436.312 1115.35 436.552 1114.31 437.031C1113.27 437.51 1112.46 438.49 1111.88 439.969C1111.29 441.427 1110.94 443.635 1110.81 446.594ZM1146.53 465.875C1144.82 465.875 1143.51 465.719 1142.59 465.406C1141.68 465.094 1140.93 464.854 1140.34 464.688C1139.47 464.417 1138.84 464.281 1138.47 464.281C1138.2 464.281 1137.98 464.312 1137.81 464.375C1137.65 464.438 1137.48 464.51 1137.31 464.594C1137.15 464.656 1136.92 464.688 1136.62 464.688C1136.27 464.688 1135.97 464.594 1135.72 464.406C1135.49 464.219 1135.38 463.958 1135.38 463.625C1135.38 462.958 1135.35 462.229 1135.31 461.438C1135.27 460.625 1135.22 459.823 1135.16 459.031C1135.09 458.24 1135.04 457.5 1135 456.812C1134.96 456.125 1134.94 455.562 1134.94 455.125C1134.94 454.646 1135.04 454.302 1135.25 454.094C1135.48 453.885 1135.73 453.781 1136 453.781C1136.56 453.781 1136.91 454.01 1137.03 454.469C1137.16 454.927 1137.32 455.5 1137.53 456.188C1137.74 456.854 1138.24 457.938 1139.03 459.438C1139.57 460.417 1140.25 461.188 1141.06 461.75C1141.88 462.292 1142.73 462.677 1143.62 462.906C1144.52 463.115 1145.35 463.219 1146.12 463.219C1147.94 463.219 1149.47 462.833 1150.72 462.062C1151.97 461.292 1152.59 460.177 1152.59 458.719C1152.59 457.448 1152.17 456.427 1151.31 455.656C1150.48 454.865 1149.43 454.177 1148.16 453.594C1146.89 452.99 1145.6 452.365 1144.31 451.719C1142.92 451.01 1141.6 450.24 1140.38 449.406C1139.17 448.552 1138.18 447.51 1137.41 446.281C1136.66 445.031 1136.28 443.469 1136.28 441.594C1136.28 439.74 1136.82 438.198 1137.91 436.969C1139.01 435.74 1140.35 434.823 1141.94 434.219C1143.54 433.615 1145.08 433.312 1146.56 433.312C1148.54 433.312 1149.99 433.521 1150.91 433.938C1151.84 434.333 1152.57 434.531 1153.09 434.531C1153.55 434.531 1153.81 434.417 1153.88 434.188C1153.96 433.938 1154.06 433.708 1154.19 433.5C1154.31 433.271 1154.46 433.104 1154.62 433C1154.81 432.896 1155 432.844 1155.19 432.844C1155.46 432.844 1155.7 432.938 1155.91 433.125C1156.11 433.312 1156.22 433.583 1156.22 433.938C1156.22 434.125 1156.2 434.615 1156.16 435.406C1156.14 436.177 1156.12 437.031 1156.12 437.969C1156.12 438.948 1156.16 439.76 1156.22 440.406C1156.28 441.031 1156.31 441.49 1156.31 441.781C1156.31 442.219 1156.22 442.521 1156.03 442.688C1155.86 442.854 1155.67 442.938 1155.44 442.938C1154.92 442.938 1154.6 442.771 1154.5 442.438C1154.15 441.604 1153.69 440.688 1153.12 439.688C1152.58 438.688 1151.81 437.823 1150.81 437.094C1149.81 436.365 1148.44 436 1146.69 436C1145.54 436 1144.57 436.177 1143.78 436.531C1143.01 436.865 1142.43 437.344 1142.03 437.969C1141.64 438.573 1141.44 439.302 1141.44 440.156C1141.44 441.573 1142.18 442.76 1143.66 443.719C1145.16 444.677 1146.9 445.646 1148.88 446.625C1150.5 447.396 1152.02 448.208 1153.44 449.062C1154.88 449.896 1156.03 450.875 1156.91 452C1157.8 453.125 1158.25 454.51 1158.25 456.156C1158.25 459.052 1157.22 461.396 1155.16 463.188C1153.11 464.979 1150.24 465.875 1146.53 465.875ZM1165.94 432.125C1165.67 432.271 1165.36 432.344 1165.03 432.344C1164.66 432.344 1164.32 432.24 1164.03 432.031C1163.74 431.823 1163.59 431.542 1163.59 431.188C1163.59 430.854 1163.69 430.542 1163.88 430.25C1164.69 429.354 1165.33 428.375 1165.81 427.312C1166.29 426.25 1166.64 425.24 1166.84 424.281C1167.05 423.302 1167.16 422.51 1167.16 421.906C1167.16 421.635 1167.15 421.448 1167.12 421.344C1167.1 421.24 1166.9 421.125 1166.5 421C1166.12 420.854 1165.69 420.635 1165.19 420.344C1164.69 420.031 1164.25 419.594 1163.88 419.031C1163.5 418.469 1163.31 417.719 1163.31 416.781C1163.31 415.552 1163.75 414.531 1164.62 413.719C1165.52 412.885 1166.59 412.469 1167.84 412.469C1168.59 412.469 1169.35 412.646 1170.12 413C1170.92 413.333 1171.57 413.927 1172.09 414.781C1172.64 415.635 1172.91 416.854 1172.91 418.438C1172.91 419.812 1172.65 421.229 1172.12 422.688C1171.6 424.125 1170.95 425.5 1170.16 426.812C1169.39 428.104 1168.61 429.229 1167.84 430.188C1167.07 431.125 1166.44 431.771 1165.94 432.125ZM1177.81 432.125C1177.54 432.271 1177.24 432.344 1176.91 432.344C1176.53 432.344 1176.2 432.24 1175.91 432.031C1175.61 431.823 1175.47 431.542 1175.47 431.188C1175.47 430.854 1175.56 430.542 1175.75 430.25C1176.56 429.354 1177.21 428.375 1177.69 427.312C1178.17 426.25 1178.51 425.24 1178.72 424.281C1178.93 423.302 1179.03 422.51 1179.03 421.906C1179.03 421.635 1179.02 421.448 1179 421.344C1178.98 421.24 1178.77 421.125 1178.38 421C1178 420.854 1177.56 420.635 1177.06 420.344C1176.56 420.031 1176.12 419.594 1175.75 419.031C1175.38 418.469 1175.19 417.719 1175.19 416.781C1175.19 415.552 1175.62 414.531 1176.5 413.719C1177.4 412.885 1178.47 412.469 1179.72 412.469C1180.47 412.469 1181.23 412.646 1182 413C1182.79 413.333 1183.45 413.927 1183.97 414.781C1184.51 415.635 1184.78 416.854 1184.78 418.438C1184.78 419.812 1184.52 421.229 1184 422.688C1183.48 424.125 1182.82 425.5 1182.03 426.812C1181.26 428.104 1180.49 429.229 1179.72 430.188C1178.95 431.125 1178.31 431.771 1177.81 432.125Z" fill="black"/>
<path d="M732.192 260.199C727.647 288.1 727.766 315.981 717.676 342.868C712.681 342.18 707.275 343.091 703.545 345.672C698.318 341.996 694.085 336.975 690.063 332.68C679.881 321.798 671.599 309.973 659.641 300.257C649.637 292.129 632.015 295.615 630.61 308.005C630.114 312.397 629.855 316.783 629.676 321.169C628.934 321.191 628.166 321.24 627.431 321.348C617.573 318.589 604.766 322.46 604.621 332.518C604.435 344.191 607.257 355.242 610.583 366.324C606.582 368.016 603.892 371.399 602.699 375.157C590.377 361.808 577.266 349.201 555.986 342.511C549.633 340.51 543.498 342.088 539.278 345.493C533.852 338.401 528.234 331.401 522.398 324.488C510.824 310.792 489.326 325.946 494.977 339.181C496.434 342.597 497.792 346.035 499.091 349.478C486.603 340.629 472.558 334.025 455.532 331.775C449.867 331.021 444.951 333.206 441.732 336.59C439.095 334.632 436.273 332.816 433.185 331.238C422.844 325.963 408.554 330.609 407.348 340.976C403.572 338.271 399.524 335.787 395.072 333.662C381.014 326.949 366.71 336.66 370.056 348.61C365.862 345.552 361.45 342.619 356.6 339.935C346.948 334.611 337.587 338.2 333.492 344.679C331.18 343.866 328.815 343.118 326.357 342.467C315.638 339.648 305.86 345.298 304.276 354.141C301.262 370.976 312.697 388.159 324.065 403.124C317.91 405.948 313.505 411.62 315.433 417.546C317.539 424.025 319.812 430.467 322.184 436.876C313.101 431.746 302.673 428.656 290.39 429.306C283.765 429.654 279.181 434.409 277.664 439.484C270.562 442.384 266.017 448.918 270.774 456.704C274.98 463.547 279.101 470.416 283.182 477.302C266.772 470.693 249.044 469.142 229.897 476.234C223.199 478.728 219.489 485.159 220.887 490.988C227.764 519.621 242.538 548.217 257.875 574.384C265.103 586.708 275.279 603.847 289.569 614.773C284.925 615.694 280.956 618.232 278.472 621.453C271.429 623.377 265.825 628.637 267.494 636.341C273.026 661.874 294.107 682.304 314.108 701.471C318.745 705.901 326.324 706.66 332.651 704.892C338.329 708.357 344.338 711.469 351.002 714.083C358.422 716.983 370.327 712.662 372.149 705.949C372.938 703.103 373.474 700.262 373.945 697.448C374.932 697.892 375.926 698.348 376.899 698.857C386.214 703.119 397.801 701.081 401.862 692.335C402.452 691.077 403.366 688.436 404.188 685.709C410.27 690.28 416.543 696.472 420.704 698.738C427.773 702.566 439.068 701.769 443.699 695.322C448.025 689.288 461.017 667.73 447.747 664.395C455.585 666.369 462.263 665.366 467.755 662.167C475.108 660.947 480.269 655.839 480.667 649.609C483.714 647.495 485.695 644.48 485.463 640.755C485.119 635.414 484.549 630.112 483.82 624.83C484.436 625.595 485.046 626.354 485.675 627.108C495.162 638.142 518.602 628.507 514.448 615.738C510.672 604.059 506.259 592.553 501.569 581.118C502.98 578.749 503.642 576.103 503.086 573.354C502.854 572.183 502.503 571.049 502.211 569.884C503.192 570.014 504.139 570.22 505.14 570.307C506.531 570.431 507.942 570.339 509.36 570.128C510.99 571.96 512.54 573.831 514.222 575.636C525.531 587.706 551.64 574.037 541.643 560.937C537.94 556.079 534.654 551.085 531.613 546C533.071 544.216 533.978 541.96 534.124 539.217C534.382 534.472 534.243 529.771 533.872 525.087C536.158 525.537 538.483 525.537 540.709 525.168C549.878 533.296 567.713 529.37 569.356 517.236C570.767 506.69 570.005 496.269 568.163 485.913C574.026 487.74 580.194 486.645 584.739 483.939C585.726 485.153 586.7 486.292 587.681 487.301C595.968 495.824 617.48 491.611 616.711 479.558C616.393 474.559 615.552 469.739 614.393 465.011C615.91 465.737 617.42 466.496 618.984 467.185C620.011 467.646 621.057 467.998 622.084 468.296C627.013 473.577 632.419 478.549 638.786 482.974C649.75 490.575 668.029 480.306 664.418 469.283C663.066 465.119 661.264 460.95 659.509 456.758C660.582 457.1 661.688 457.344 662.808 457.441C665.359 474.461 668.399 491.389 673.766 508.083C679.291 525.233 707.825 520.115 706.215 502.932C706.023 500.85 705.824 498.774 705.632 496.702C710.727 507.199 717.113 517.209 726.03 526.106C735.047 535.101 748.005 530.709 752.881 522.462C758.632 520.147 762.766 515.284 761.335 508.371C758.93 496.762 757.274 485.061 755.73 473.361C765.164 476.95 778.924 470.763 779.355 461.774C780.932 428.618 777.083 395.684 773.333 362.708C769.391 328.039 771.902 293.132 764.853 258.664C761.693 243.043 734.596 245.51 732.192 260.199ZM354.871 393.749C358.86 398.759 363.06 403.649 367.386 408.48C367.207 408.453 367.008 408.426 366.829 408.426C363.066 403.606 358.402 398.282 353.878 392.702C354.202 393.049 354.533 393.402 354.871 393.749ZM325.099 477.709C324.913 478.555 324.8 479.422 324.814 480.306C323.634 477.883 322.502 475.448 321.382 473.008C322.647 474.553 323.899 476.12 325.099 477.709ZM324.025 667.648C323.568 667.659 323.104 667.692 322.654 667.735C321.627 666.678 320.627 665.604 319.633 664.525C321.09 665.593 322.541 666.634 324.025 667.648ZM420.022 662.486C420.631 662.606 421.254 662.698 421.87 662.763C421.824 663.083 421.777 663.397 421.724 663.723C421.168 663.305 420.598 662.899 420.022 662.486Z" fill="url(#paint6_radial_140_1807)"/>
<path d="M559.928 15.1174C560.697 44.6566 566.308 73.5561 561.127 102.775C555.801 102.716 550.381 104.38 547.029 107.541C540.875 104.418 535.502 99.7662 530.487 95.8406C517.786 85.8966 506.868 74.7272 492.545 66.2201C480.574 59.1064 462.984 65.0435 463.965 78.0781C464.309 82.6976 464.906 87.2847 465.588 91.8609C464.82 91.9856 464.044 92.132 463.296 92.3434C452.53 90.7765 440.009 96.475 441.824 106.929C443.931 119.063 449.039 130.151 454.67 141.207C450.854 143.489 448.727 147.355 448.231 151.411C432.821 139.19 416.749 127.836 393.362 123.699C386.373 122.463 380.331 124.908 376.614 128.996C369.592 122.354 362.384 115.837 354.97 109.434C340.276 96.7515 320.951 115.3 329.424 128.286C331.611 131.637 333.698 135.026 335.718 138.425C321.024 130.894 305.15 125.89 287.051 125.803C281.029 125.765 276.358 128.676 273.688 132.613C270.568 130.932 267.289 129.419 263.771 128.188C252.011 124.079 238.099 130.78 238.887 141.695C234.442 139.385 229.751 137.346 224.723 135.725C208.81 130.618 195.891 142.573 201.714 154.523C196.765 151.904 191.605 149.443 186.053 147.296C174.989 143.045 165.992 148.001 163.011 155.261C160.454 154.724 157.85 154.258 155.174 153.911C143.494 152.398 134.471 159.55 134.57 168.93C134.755 186.784 150 203.105 164.734 217.121C158.904 220.862 155.452 227.33 158.619 233.224C162.077 239.671 165.701 246.047 169.417 252.386C158.983 248.254 147.568 246.432 134.954 248.72C128.157 249.962 124.328 255.492 123.758 260.958C116.967 264.9 113.536 272.279 120.002 279.718C125.712 286.257 131.337 292.845 136.922 299.449C118.604 294.759 99.908 295.491 81.4441 305.364C74.9847 308.834 72.401 315.986 74.998 321.853C87.7643 350.649 108.706 378.356 129.773 403.476C139.698 415.318 153.617 431.746 170.59 441.197C165.953 442.764 162.335 445.914 160.388 449.585C153.464 452.518 148.681 458.71 151.934 466.485C162.686 492.24 188.577 510.648 213.089 527.885C218.767 531.875 226.783 531.653 232.998 528.996C239.57 531.832 246.407 534.272 253.833 536.099C262.101 538.143 273.596 532.087 274.172 524.886C274.424 521.828 274.424 518.819 274.357 515.826C275.47 516.162 276.59 516.498 277.696 516.899C288.197 520.088 299.817 516.449 302.302 506.847C302.666 505.459 303.097 502.607 303.408 499.674C310.616 503.605 318.341 509.206 323.104 511.011C331.187 514.053 342.754 511.738 346.285 504.44C349.584 497.608 358.826 473.54 344.397 471.826C352.917 472.84 359.648 470.921 364.709 466.876C372.096 464.642 376.442 458.667 375.627 452.144C378.377 449.552 379.841 446.164 378.86 442.336C377.456 436.832 375.819 431.41 374.031 426.037C374.826 426.742 375.601 427.452 376.402 428.146C388.413 438.345 410.826 425.256 404.009 412.569C397.788 400.949 390.957 389.601 383.836 378.356C384.829 375.721 384.995 372.879 383.875 370.109C383.412 368.927 382.815 367.794 382.292 366.628C383.339 366.628 384.359 366.715 385.412 366.682C386.883 366.633 388.327 366.346 389.758 365.939C391.805 367.626 393.78 369.355 395.886 371.009C409.991 382.037 434.378 364.416 421.426 352.156C416.636 347.602 412.244 342.852 408.09 337.983C409.249 335.934 409.746 333.478 409.362 330.615C408.693 325.659 407.619 320.801 406.321 315.991C408.785 316.16 411.19 315.851 413.436 315.178C424.533 322.4 442.261 315.975 441.586 303.174C440.976 292.048 438.127 281.339 434.192 270.842C440.625 271.965 446.819 270.013 450.993 266.608C452.245 267.735 453.491 268.787 454.71 269.709C464.985 277.463 486.463 270.257 483.29 257.851C481.985 252.711 480.156 247.82 478.03 243.076C479.752 243.634 481.475 244.215 483.224 244.73C484.383 245.066 485.529 245.294 486.656 245.467C492.81 250.293 499.389 254.739 506.868 258.491C519.741 264.938 536.681 251.87 530.765 240.913C528.545 236.776 525.862 232.687 523.206 228.572C524.385 228.783 525.577 228.892 526.763 228.849C532.752 246.161 539.225 263.322 548.089 279.93C557.185 296.987 585.779 287.911 580.737 270.311C580.121 268.175 579.512 266.049 578.902 263.918C586.249 274.139 594.855 283.682 605.853 291.733C616.969 299.872 629.55 293.615 632.982 284.419C638.487 281.258 641.826 275.668 638.978 268.69C634.194 256.973 630.186 245.055 626.284 233.11C636.771 235.594 649.836 227.368 648.504 217.988C643.622 183.385 633.154 149.736 622.773 116.021C611.868 80.5776 607.608 44.0439 593.51 9.22365C587.157 -6.55989 559.531 -0.427573 559.928 15.1174ZM194.824 203.354C199.945 208.017 205.265 212.539 210.698 216.98C210.499 216.98 210.294 216.98 210.108 216.996C205.259 212.496 199.369 207.589 193.585 202.394C193.996 202.714 194.407 203.04 194.824 203.354ZM180.461 294.363C180.435 295.268 180.488 296.179 180.673 297.096C178.977 294.737 177.321 292.357 175.678 289.977C177.301 291.408 178.904 292.867 180.461 294.363ZM216.713 491.503C216.25 491.573 215.766 491.671 215.315 491.768C214.043 490.814 212.798 489.833 211.552 488.846C213.262 489.762 214.971 490.651 216.713 491.503ZM315.26 473.507C315.916 473.561 316.585 473.572 317.234 473.556C317.248 473.897 317.261 474.228 317.268 474.57C316.618 474.206 315.943 473.854 315.26 473.507Z" fill="url(#paint7_radial_140_1807)"/>
<path d="M241.08 610.896C240.384 584.068 235.283 557.814 239.994 531.268C244.823 531.322 249.752 529.82 252.8 526.941C258.385 529.777 263.274 534.011 267.825 537.568C279.366 546.601 289.284 556.746 302.288 564.478C313.167 570.935 329.14 565.546 328.258 553.704C327.94 549.518 327.397 545.344 326.781 541.19C327.483 541.076 328.186 540.935 328.868 540.746C338.646 542.172 350.022 536.999 348.365 527.5C346.451 516.477 341.813 506.408 336.699 496.366C340.164 494.3 342.098 490.787 342.549 487.1C356.547 498.204 371.149 508.517 392.388 512.269C398.735 513.391 404.227 511.168 407.599 507.454C413.973 513.489 420.525 519.41 427.256 525.222C440.605 536.739 458.161 519.893 450.463 508.094C448.482 505.058 446.581 501.973 444.746 498.893C458.095 505.736 472.511 510.279 488.948 510.35C494.42 510.388 498.66 507.742 501.091 504.163C503.92 505.692 506.902 507.064 510.095 508.186C520.774 511.917 533.415 505.822 532.699 495.911C536.734 498.015 540.994 499.864 545.558 501.333C560.021 505.974 571.747 495.119 566.454 484.259C570.959 486.639 575.643 488.878 580.684 490.825C590.734 494.685 598.903 490.18 601.606 483.587C603.938 484.08 606.29 484.497 608.721 484.812C619.334 486.189 627.536 479.694 627.443 471.17C627.271 454.953 613.432 440.129 600.042 427.398C605.342 423.998 608.469 418.126 605.601 412.769C602.454 406.914 599.161 401.128 595.789 395.37C605.27 399.117 615.631 400.776 627.099 398.694C633.273 397.566 636.745 392.54 637.268 387.579C643.443 384 646.55 377.298 640.687 370.537C635.499 364.595 630.385 358.614 625.317 352.617C641.959 356.874 658.945 356.218 675.7 347.244C681.576 344.088 683.915 337.593 681.563 332.268C669.969 306.113 650.936 280.943 631.809 258.128C622.793 247.376 610.146 232.449 594.729 223.86C598.943 222.44 602.229 219.577 603.998 216.242C610.278 213.575 614.624 207.957 611.669 200.893C601.897 177.502 578.392 160.78 556.119 145.116C550.964 141.494 543.684 141.689 538.039 144.113C532.07 141.532 525.856 139.32 519.118 137.655C511.612 135.806 501.164 141.304 500.634 147.843C500.409 150.625 500.409 153.358 500.469 156.074C499.462 155.765 498.441 155.461 497.434 155.098C487.894 152.197 477.341 155.505 475.082 164.229C474.75 165.492 474.36 168.078 474.075 170.751C467.529 167.178 460.513 162.093 456.187 160.45C448.847 157.69 438.339 159.794 435.133 166.419C432.138 172.622 423.745 194.484 436.842 196.04C429.111 195.118 422.989 196.864 418.392 200.535C411.68 202.568 407.732 207.99 408.474 213.916C405.976 216.269 404.645 219.349 405.539 222.83C406.818 227.824 408.302 232.752 409.931 237.632C409.209 236.987 408.507 236.347 407.778 235.713C396.867 226.452 376.508 238.337 382.696 249.864C388.347 260.416 394.555 270.728 401.021 280.938C400.113 283.329 399.967 285.91 400.981 288.431C401.405 289.505 401.942 290.535 402.425 291.592C401.471 291.592 400.55 291.511 399.583 291.544C398.252 291.587 396.94 291.853 395.641 292.221C393.78 290.692 391.984 289.114 390.076 287.618C377.264 277.604 355.116 293.604 366.876 304.746C371.228 308.883 375.216 313.199 378.993 317.624C377.933 319.483 377.482 321.717 377.833 324.32C378.443 328.82 379.417 333.234 380.603 337.604C378.363 337.452 376.177 337.728 374.137 338.347C364.053 331.786 347.948 337.62 348.571 349.25C349.121 359.357 351.711 369.084 355.288 378.616C349.445 377.597 343.821 379.37 340.024 382.466C338.885 381.441 337.759 380.487 336.652 379.646C327.318 372.603 307.807 379.147 310.696 390.414C311.881 395.083 313.538 399.523 315.472 403.839C313.909 403.33 312.345 402.804 310.755 402.337C309.702 402.028 308.662 401.817 307.635 401.66C302.05 397.273 296.068 393.239 289.277 389.834C277.584 383.978 262.201 395.847 267.573 405.802C269.587 409.56 272.025 413.279 274.437 417.015C273.364 416.814 272.277 416.717 271.211 416.76C265.771 401.036 259.882 385.448 251.839 370.358C243.571 354.868 217.601 363.109 222.186 379.099C222.735 381.034 223.292 382.97 223.848 384.906C217.177 375.623 209.36 366.959 199.376 359.639C189.273 352.243 177.844 357.936 174.731 366.286C169.729 369.16 166.701 374.235 169.278 380.573C173.624 391.217 177.268 402.039 180.812 412.889C171.286 410.633 159.42 418.105 160.626 426.628C165.058 458.06 174.565 488.624 183.999 519.242C193.91 551.438 197.772 584.621 210.579 616.253C216.356 630.589 241.451 625.02 241.08 610.896ZM572.714 439.917C568.064 435.688 563.227 431.573 558.292 427.544C558.464 427.544 558.663 427.544 558.828 427.523C563.234 431.616 568.587 436.068 573.841 440.79C573.463 440.503 573.092 440.205 572.714 439.917ZM585.759 357.253C585.785 356.434 585.732 355.599 585.567 354.764C587.11 356.912 588.621 359.07 590.112 361.233C588.628 359.932 587.177 358.609 585.759 357.253ZM552.839 178.18C553.257 178.12 553.701 178.028 554.105 177.941C555.271 178.814 556.397 179.703 557.53 180.598C555.973 179.763 554.416 178.955 552.839 178.18ZM463.322 194.533C462.726 194.484 462.123 194.473 461.527 194.489C461.514 194.186 461.5 193.876 461.494 193.573C462.09 193.898 462.7 194.213 463.322 194.533Z" fill="white"/>
<path fill-rule="evenodd" clip-rule="evenodd" d="M479.182 450.377C539.443 450.377 588.601 409.901 588.601 360.273C588.601 310.645 539.443 270.17 479.182 270.17C418.915 270.17 369.764 310.645 369.764 360.273C369.764 409.901 418.921 450.377 479.182 450.377Z" fill="#0889BC"/>
<path fill-rule="evenodd" clip-rule="evenodd" d="M468.244 276.335L479.189 282.402L490.133 276.335L478.831 345.72L468.244 276.335Z" fill="white"/>
<path fill-rule="evenodd" clip-rule="evenodd" d="M495.161 276.958L503.813 285.135L516.302 281.594L483.448 346.214L495.161 276.958Z" fill="white"/>
<path fill-rule="evenodd" clip-rule="evenodd" d="M520.966 283.259L526.743 292.991L539.927 292.216L487.755 347.678L520.966 283.259Z" fill="white"/>
<path fill-rule="evenodd" clip-rule="evenodd" d="M543.902 294.808L546.393 305.435L559.385 307.479L491.445 349.998L543.902 294.808Z" fill="white"/>
<path fill-rule="evenodd" clip-rule="evenodd" d="M562.399 310.83L561.458 321.62L573.35 326.342L494.28 353.024L562.399 310.83Z" fill="white"/>
<path fill-rule="evenodd" clip-rule="evenodd" d="M575.211 330.219L570.879 340.439L580.869 347.521L496.062 356.548L575.211 330.219Z" fill="white"/>
<path fill-rule="evenodd" clip-rule="evenodd" d="M581.446 351.658L574.026 360.615L581.439 369.572L496.666 360.327L581.446 351.658Z" fill="white"/>
<path fill-rule="evenodd" clip-rule="evenodd" d="M580.684 373.693L570.693 380.774L575.019 390.994L496.062 364.107L580.684 373.693Z" fill="white"/>
<path fill-rule="evenodd" clip-rule="evenodd" d="M572.985 394.812L561.093 399.534L562.041 410.329L494.273 367.631L572.985 394.812Z" fill="white"/>
<path fill-rule="evenodd" clip-rule="evenodd" d="M558.868 413.583L545.889 415.627L543.392 426.249L491.438 370.651L558.868 413.583Z" fill="white"/>
<path fill-rule="evenodd" clip-rule="evenodd" d="M539.297 428.726L526.113 427.946L520.349 437.678L487.741 372.972L539.297 428.726Z" fill="white"/>
<path fill-rule="evenodd" clip-rule="evenodd" d="M515.607 439.202L503.118 435.656L494.466 443.838L483.436 374.425L515.607 439.202Z" fill="white"/>
<path fill-rule="evenodd" clip-rule="evenodd" d="M489.405 444.304L478.467 438.237L467.522 444.304L478.818 374.924L489.405 444.304Z" fill="white"/>
<path fill-rule="evenodd" clip-rule="evenodd" d="M462.487 443.686L453.835 435.504L441.347 439.05L474.2 374.425L462.487 443.686Z" fill="white"/>
<path fill-rule="evenodd" clip-rule="evenodd" d="M436.682 437.385L430.905 427.653L417.722 428.428L469.894 372.966L436.682 437.385Z" fill="white"/>
<path fill-rule="evenodd" clip-rule="evenodd" d="M413.747 425.831L411.25 415.204L398.271 413.165L466.204 370.646L413.747 425.831Z" fill="white"/>
<path fill-rule="evenodd" clip-rule="evenodd" d="M395.244 409.814L396.198 399.024L384.306 394.302L463.368 367.615L395.244 409.814Z" fill="white"/>
<path fill-rule="evenodd" clip-rule="evenodd" d="M382.444 390.425L386.776 380.205L376.779 373.123L461.586 364.096L382.444 390.425Z" fill="white"/>
<path fill-rule="evenodd" clip-rule="evenodd" d="M376.203 368.981L383.616 360.024L376.21 351.067L460.977 360.311L376.203 368.981Z" fill="white"/>
<path fill-rule="evenodd" clip-rule="evenodd" d="M376.965 346.951L386.955 339.87L382.629 329.65L461.593 356.537L376.965 346.951Z" fill="white"/>
<path fill-rule="evenodd" clip-rule="evenodd" d="M384.663 325.832L396.555 321.104L395.608 310.315L463.375 353.013L384.663 325.832Z" fill="white"/>
<path fill-rule="evenodd" clip-rule="evenodd" d="M398.781 307.056L411.766 305.017L414.257 294.396L466.211 349.988L398.781 307.056Z" fill="white"/>
<path fill-rule="evenodd" clip-rule="evenodd" d="M418.352 291.918L431.535 292.693L437.306 282.96L469.914 347.667L418.352 291.918Z" fill="white"/>
<path fill-rule="evenodd" clip-rule="evenodd" d="M442.042 281.437L454.53 284.983L463.182 276.806L474.213 346.214L442.042 281.437Z" fill="white"/>
</g>
</g>
<defs>
<radialGradient id="paint0_radial_140_1807" cx="0" cy="0" r="1" gradientUnits="userSpaceOnUse" gradientTransform="translate(690.005 357.5) scale(881.685 456.815)">
<stop offset="0.3333" stop-color="#FDFEFE"/>
<stop offset="0.5943" stop-color="#F9FCFD"/>
<stop offset="0.8581" stop-color="#EDF4F9"/>
<stop offset="1" stop-color="#E3EEF6"/>
</radialGradient>
<linearGradient id="paint1_linear_140_1807" x1="929.773" y1="581.161" x2="949.608" y2="562.392" gradientUnits="userSpaceOnUse">
<stop stop-color="#FDCC7B"/>
<stop offset="0.1455" stop-color="#B92C00"/>
<stop offset="0.4788" stop-color="#B93800"/>
<stop offset="0.9515" stop-color="#FBB36B"/>
</linearGradient>
<linearGradient id="paint2_linear_140_1807" x1="808.709" y1="401.981" x2="814.022" y2="444.042" gradientUnits="userSpaceOnUse">
<stop offset="0.097" stop-color="#907160"/>
<stop offset="1" stop-color="#5E4A3D"/>
</linearGradient>
<radialGradient id="paint3_radial_140_1807" cx="0" cy="0" r="1" gradientUnits="userSpaceOnUse" gradientTransform="translate(823.272 404.71) rotate(9.45109) scale(43.9525 24.4458)">
<stop stop-color="#8BEE17"/>
<stop offset="1" stop-color="#09A200"/>
</radialGradient>
<linearGradient id="paint4_linear_140_1807" x1="790.676" y1="404.593" x2="813.287" y2="451.255" gradientUnits="userSpaceOnUse">
<stop offset="0.1394"/>
<stop offset="0.9455" stop-color="white"/>
</linearGradient>
<linearGradient id="paint5_linear_140_1807" x1="849.849" y1="488.738" x2="866.457" y2="473.023" gradientUnits="userSpaceOnUse">
<stop offset="0.1394" stop-color="#FDCC7B"/>
<stop offset="0.4121" stop-color="#6F4C38"/>
<stop offset="0.4788" stop-color="#563D2A"/>
<stop offset="0.5515" stop-color="#7A5A42"/>
<stop offset="0.9455" stop-color="#FFF9B6"/>
</linearGradient>
<radialGradient id="paint6_radial_140_1807" cx="0" cy="0" r="1" gradientUnits="userSpaceOnUse" gradientTransform="translate(500.183 481.509) scale(282.451 231.163)">
<stop stop-color="#8BEE17"/>
<stop offset="1" stop-color="#09A200"/>
</radialGradient>
<radialGradient id="paint7_radial_140_1807" cx="0" cy="0" r="1" gradientUnits="userSpaceOnUse" gradientTransform="translate(362.811 275.234) rotate(-7.24034) scale(295.312 243.582)">
<stop stop-color="#FFAF1F"/>
<stop offset="1" stop-color="#FF8300"/>
</radialGradient>
<clipPath id="clip0_140_1807">
<rect width="1380" height="715" fill="white"/>
</clipPath>
<clipPath id="clip1_140_1807">
<rect width="1380" height="715" fill="white"/>
</clipPath>
</defs>
</svg>
