<?xml version="1.0" encoding="utf-8"?>
<!-- Generator: Adobe Illustrator 27.5.0, SVG Export Plug-In . SVG Version: 6.00 Build 0)  -->
<svg version="1.1" id="Capa_1" xmlns="http://www.w3.org/2000/svg" xmlns:xlink="http://www.w3.org/1999/xlink" x="0px" y="0px"
	 viewBox="0 0 2122 2122" style="enable-background:new 0 0 2122 2122;" xml:space="preserve">
<path style="fill:#493F92;" d="M652.049,1651.734L352.105,942.763c-4.102-9.698-6.053-19.826-6.053-29.783
	c-0.004-30.005,17.632-58.633,46.929-71.044l489.697-207.177v0c-3.958-10.49-8.112-20.839-12.475-31.082l0,0L346.339,825.307
	c-38.558,16.319-56.753,61.193-40.437,99.751l318.3,752.363C633.644,1669.036,642.941,1660.482,652.049,1651.734
	C652.049,1651.735,652.049,1651.735,652.049,1651.734z"/>
<path style="fill:#493F92;" d="M854.156,1370.116l-105.6,102.283l7.255-146.838l-145.807-18.787l119.318-85.88l-76.218-125.713
	l141.537,39.745l50.76-137.971l57.178,135.439l29.555-9.816l0,0c6.191-38.352,9.956-77.1,11.327-115.92
	c2.842-79.819-4.374-159.982-21.306-238.032c-0.003-0.013-0.006-0.027-0.01-0.041c-16.904,6.372-35.961-1.652-43.061-18.435
	c-7.281-17.202,0.767-37.051,17.969-44.333c2.806-1.187,5.684-1.926,8.565-2.324c-0.004-0.013-0.007-0.026-0.011-0.039
	c-4.376-15.006-9.122-29.909-14.233-44.682c-1.071-3.077-2.148-6.151-3.244-9.217l0,0L399.123,856.445
	c-23.246,9.809-37.315,32.653-37.315,56.536c0,7.91,1.54,15.922,4.806,23.647l297.538,703.28l0,0
	c78.357-77.893,143.202-169.474,190.565-269.296l0,0L854.156,1370.116z"/>
<path style="fill:#F8DAD0;" d="M664.152,1639.907l-297.538-703.28c-3.267-7.725-4.806-15.737-4.806-23.647
	c0-23.883,14.07-46.727,37.315-56.536L888.13,649.556c-0.888-2.479-1.787-4.954-2.707-7.421c-0.904-2.467-1.818-4.926-2.744-7.376
	L392.981,841.936c-29.297,12.41-46.934,41.039-46.929,71.044c0,9.957,1.95,20.085,6.053,29.783l299.945,708.971
	c2.036-1.954,4.06-3.916,6.076-5.89C660.143,1643.875,662.152,1641.896,664.152,1639.907z"/>
<path style="fill:#F8DAD0;" d="M430.674,903.131c-17.206,7.279-25.252,27.128-17.973,44.331
	c7.279,17.204,27.125,25.253,44.331,17.974c17.203-7.279,25.25-27.128,17.97-44.331
	C467.723,903.901,447.877,895.852,430.674,903.131z"/>
<path style="fill:#F8DAD0;" d="M897.053,705.819c-17.202,7.281-25.25,27.131-17.969,44.333c7.1,16.784,26.157,24.807,43.061,18.435
	c-4.747-21.882-10.258-43.597-16.526-65.092C902.736,703.892,899.859,704.631,897.053,705.819z"/>
<path style="fill:#F8DAD0;" d="M526.613,1172.568c-1.503-3.552-5.637-5.228-9.189-3.727l-2.929,1.237
	c-3.552,1.506-5.228,5.637-3.724,9.189l131.985,311.97c1.503,3.552,5.637,5.228,9.189,3.727l2.929-1.237
	c3.552-1.506,5.228-5.637,3.724-9.189L526.613,1172.568z"/>
<path style="fill:#F8DAD0;" d="M512.413,899.185c1.503,3.552,5.639,5.232,9.191,3.727l311.97-131.985
	c3.552-1.501,5.228-5.637,3.725-9.189l-1.238-2.928c-1.503-3.552-5.639-5.228-9.189-3.722L514.9,887.072
	c-3.552,1.501-5.228,5.637-3.725,9.189L512.413,899.185z"/>
<path style="fill:#FFFFFF;" d="M845.4,996.956l-50.76,137.971l-141.537-39.745l76.218,125.713l-119.318,85.88l145.807,18.787
	l-7.255,146.838l105.6-102.283l0.56,0.494c26.165-55.146,47-112.813,61.819-172.06c6.28-25.086,11.476-50.44,15.597-75.971
	l-29.555,9.816L845.4,996.956z"/>
<path style="fill:#352E70;" d="M854.717,1370.61c-47.363,99.822-112.208,191.403-190.565,269.296l71.893,169.931
	c9.804,23.24,32.653,37.314,56.531,37.314c7.915,0,15.927-1.539,23.651-4.81l465.526-196.948h-0.001l-148.204-13.567
	l-257.476,108.931c-0.885,0.374-1.805,0.55-2.711,0.55c-2.737,0-5.351-1.61-6.479-4.279l-1.239-2.921
	c-1.502-3.553,0.172-7.689,3.725-9.195l227.881-96.411l-99.322-9.092c-2.538-0.232-5.032-0.597-7.485-1.071
	c-0.821-0.158-1.608-0.396-2.418-0.58c-1.612-0.367-3.226-0.726-4.794-1.192c-0.946-0.281-1.852-0.638-2.782-0.955
	c-1.387-0.472-2.778-0.931-4.126-1.48c-0.965-0.393-1.89-0.852-2.835-1.283c-1.258-0.574-2.518-1.138-3.737-1.776
	c-0.946-0.495-1.854-1.046-2.774-1.58c-1.157-0.67-2.313-1.336-3.43-2.063c-0.905-0.591-1.774-1.225-2.652-1.851
	c-1.067-0.762-2.128-1.526-3.153-2.339c-0.851-0.675-1.667-1.385-2.488-2.095c-0.979-0.85-1.949-1.707-2.885-2.604
	c-0.788-0.755-1.544-1.534-2.299-2.321c-0.889-0.928-1.76-1.87-2.602-2.841c-0.718-0.829-1.413-1.674-2.095-2.533
	c-0.797-1.003-1.567-2.021-2.312-3.063c-0.641-0.894-1.262-1.795-1.862-2.716c-0.701-1.074-1.368-2.168-2.016-3.278
	c-0.554-0.948-1.097-1.899-1.61-2.871c-0.603-1.142-1.16-2.306-1.705-3.479c-0.461-0.994-0.921-1.986-1.341-3.002
	c-0.498-1.207-0.941-2.437-1.379-3.672c-0.364-1.03-0.734-2.053-1.056-3.1c-0.39-1.275-0.711-2.571-1.034-3.87
	c-0.26-1.05-0.539-2.091-0.756-3.156c-0.273-1.347-0.465-2.716-0.667-4.084c-0.155-1.052-0.338-2.095-0.449-3.159
	c-0.149-1.437-0.2-2.895-0.267-4.351c-0.046-1.024-0.135-2.037-0.14-3.069c-0.001-0.168-0.023-0.33-0.023-0.497
	c0.004-2.249,0.108-4.515,0.318-6.795l8.513-93.019L854.717,1370.61z"/>
<path style="fill:#352E70;" d="M918.131,642.061c-7.91,0.005-15.917,1.539-23.643,4.805l-6.358,2.69
	c1.096,3.066,2.174,6.14,3.244,9.217c5.111,14.773,9.856,29.676,14.233,44.682c1.537-0.212,3.076-0.317,4.605-0.317
	c13.181,0,25.71,7.753,31.168,20.654c7.283,17.207-0.766,37.056-17.968,44.333c-0.418,0.177-0.837,0.344-1.258,0.503
	c16.932,78.05,24.147,158.212,21.306,238.032c-1.371,38.82-5.135,77.568-11.327,115.92l35.936-11.935l33.629-367.386l-27.027-63.882
	C964.857,656.135,942.009,642.066,918.131,642.061z"/>
<path style="fill:#352E70;" d="M882.679,634.758l5.674-2.4c9.693-4.103,19.821-6.053,29.779-6.053
	c30.005,0,58.628,17.636,71.049,46.93l15.561,36.781l3.022-33.016l3.866-42.243l0,0l-2.966-7.01
	c-0.92-2.176-1.959-4.263-3.055-6.307c-0.321-0.601-0.666-1.183-1.002-1.773c-0.849-1.485-1.741-2.931-2.677-4.339
	c-0.37-0.558-0.733-1.122-1.117-1.666c-1.302-1.849-2.655-3.651-4.101-5.358c-0.004-0.003-0.006-0.007-0.008-0.01
	c-1.459-1.721-3.009-3.344-4.603-4.916c-0.455-0.449-0.927-0.878-1.392-1.314c-1.219-1.143-2.47-2.241-3.756-3.296
	c-0.492-0.404-0.978-0.813-1.479-1.204c-1.741-1.356-3.519-2.66-5.363-3.857c-0.003-0.003-0.007-0.005-0.011-0.008
	c-1.861-1.207-3.784-2.305-5.738-3.345c-0.549-0.292-1.11-0.561-1.665-0.84c-1.479-0.741-2.979-1.434-4.502-2.078
	c-0.585-0.247-1.165-0.502-1.756-0.735c-2.003-0.79-4.03-1.519-6.093-2.139c-0.045-0.014-0.089-0.032-0.135-0.046
	c-2.112-0.63-4.26-1.143-6.423-1.589c-0.619-0.128-1.244-0.23-1.866-0.343c-1.616-0.292-3.24-0.533-4.876-0.721
	c-0.653-0.075-1.303-0.157-1.959-0.216c-2.096-0.187-4.202-0.305-6.319-0.317c-0.114-0.001-0.229-0.012-0.343-0.012
	c-0.021,0-0.041-0.002-0.062-0.002c-1.316,0-2.638,0.126-3.958,0.194c-1.138,0.06-2.272,0.056-3.409,0.168
	c-1.284,0.126-2.566,0.378-3.849,0.571c-1.192,0.179-2.387,0.295-3.577,0.533c-1.285,0.257-2.559,0.645-3.839,0.971
	c-1.18,0.301-2.366,0.536-3.54,0.897c-2.444,0.752-4.872,1.634-7.275,2.65l-38.709,16.377
	C874.567,613.919,878.72,624.268,882.679,634.758z"/>
<path style="fill:#352E70;" d="M822.367,1856.855c-9.703,4.103-19.831,6.053-29.792,6.053c-30.005,0-58.628-17.636-71.039-46.93
	l-69.487-164.243c-9.109,8.747-18.406,17.301-27.848,25.686l0,0l77.86,184.036c0.92,2.174,1.958,4.261,3.053,6.302
	c0.324,0.604,0.669,1.19,1.008,1.782c0.845,1.479,1.733,2.92,2.668,4.323c0.374,0.564,0.74,1.134,1.129,1.684
	c1.286,1.826,2.622,3.604,4.05,5.292c0.022,0.025,0.039,0.052,0.061,0.077c1.452,1.712,2.994,3.327,4.579,4.891
	c0.471,0.464,0.957,0.906,1.439,1.356c1.198,1.123,2.429,2.202,3.692,3.24c0.51,0.419,1.016,0.845,1.536,1.249
	c1.696,1.321,3.429,2.588,5.224,3.757c0.05,0.033,0.096,0.071,0.146,0.102c1.847,1.197,3.757,2.287,5.694,3.32
	c0.571,0.304,1.153,0.584,1.731,0.873c1.454,0.729,2.931,1.41,4.429,2.046c0.601,0.255,1.198,0.516,1.806,0.756
	c1.978,0.779,3.979,1.499,6.016,2.113c0.068,0.02,0.134,0.048,0.202,0.068c2.106,0.628,4.245,1.138,6.401,1.584
	c0.63,0.131,1.264,0.234,1.896,0.349c1.607,0.291,3.222,0.53,4.848,0.717c0.658,0.075,1.316,0.158,1.976,0.217
	c2.103,0.188,4.214,0.307,6.339,0.318c0.105,0.001,0.208,0.011,0.313,0.011c0.022,0,0.043,0.003,0.065,0.003
	c1.415,0,2.837-0.129,4.257-0.209c1.037-0.059,2.069-0.051,3.107-0.153c1.446-0.142,2.889-0.415,4.334-0.643
	c1.032-0.162,2.065-0.255,3.094-0.462c1.498-0.299,2.986-0.738,4.479-1.132c0.966-0.256,1.939-0.44,2.9-0.736
	c2.446-0.753,4.876-1.634,7.28-2.652l562.574-238.003c2.73-1.155,5.33-2.49,7.852-3.92c0.798-0.453,1.548-0.955,2.323-1.433
	c1.699-1.046,3.359-2.136,4.951-3.3c0.382-0.279,0.812-0.506,1.189-0.792l-0.138-0.012l-65.564-6.002L822.367,1856.855z"/>
<path style="fill:#685276;" d="M816.227,1842.342c-7.724,3.272-15.736,4.81-23.651,4.81c-23.878,0-46.727-14.074-56.531-37.314
	l-71.893-169.931l0,0c-2,1.989-4.009,3.968-6.027,5.938c-2.016,1.973-4.04,3.935-6.076,5.89c0,0,0,0,0,0l69.487,164.243
	c12.411,29.294,41.034,46.93,71.039,46.93c9.961,0,20.089-1.95,29.792-6.053l492.631-208.418h-0.001l-33.244-3.043L816.227,1842.342
	z"/>
<path style="fill:#685276;" d="M888.13,649.556L888.13,649.556l6.358-2.69c7.726-3.267,15.733-4.801,23.643-4.805
	c23.878,0.005,46.726,14.074,56.541,37.315l27.027,63.882l3.043-33.241l-15.561-36.781c-12.421-29.294-41.044-46.93-71.049-46.93
	c-9.958,0-20.085,1.95-29.779,6.053l-5.674,2.4v0c0.926,2.451,1.84,4.909,2.744,7.376
	C886.343,644.602,887.242,647.077,888.13,649.556z"/>
<path style="fill:#685276;" d="M922.144,768.587c0.004,0.014,0.008,0.027,0.01,0.041c0.422-0.159,0.84-0.326,1.258-0.503
	c17.202-7.277,25.251-27.126,17.968-44.333c-5.458-12.901-17.987-20.654-31.168-20.654c-1.53,0-3.068,0.105-4.605,0.317
	c0.004,0.013,0.007,0.027,0.011,0.039C911.886,724.99,917.397,746.705,922.144,768.587z"/>
<path style="fill:#685276;" d="M826.664,1752.318c-5.457-12.9-17.985-20.651-31.164-20.651c-4.395,0-8.863,0.862-13.163,2.682
	c-17.207,7.282-25.251,27.122-17.974,44.329c5.461,12.901,17.991,20.654,31.169,20.654c1.099,0,2.201-0.054,3.304-0.163
	c3.311-0.328,6.63-1.153,9.855-2.518C825.898,1789.369,833.942,1769.529,826.664,1752.318z"/>
<path style="fill:#685276;" d="M865.642,1734.109l1.239,2.921c1.128,2.669,3.742,4.279,6.479,4.279c0.906,0,1.827-0.177,2.711-0.55
	l257.476-108.931l0,0l-23.714-2.171l-12.586-1.152l-227.881,96.411C865.814,1726.42,864.141,1730.556,865.642,1734.109z"/>
<path style="fill:#675C8A;" d="M932.133,1122.579L932.133,1122.579c-4.12,25.531-9.317,50.885-15.597,75.971
	c-14.82,59.248-35.654,116.914-61.819,172.06l0,0l82.868,73.053l9.7-105.982c0.002,0,0.002,0,0.003-0.001l20.782-227.036
	L932.133,1122.579z"/>
<path style="fill:#FFFFFF;" d="M630.559,1087.316c-27.569,2.012-39.807-9.969-51.695-26.081c7.086,22.548,3.99,40.78-11.106,59.893
	c21.964-3.747,42.904,20.292,57.588,38.344c-1.018-3.001-1.101-3.898-1.454-5.262c-0.524-2.008-1.011-4.03-1.452-6.061
	c-0.853-3.927-1.542-7.888-2.012-11.878c-1.542-13.028-1.674-28.195,4.424-40.166
	C626.439,1092.987,628.39,1090.059,630.559,1087.316z"/>
<path style="fill:#E6682D;" d="M472.822,1595.792c-5.652,58.875-30.567,97.885-84,127.211
	c54.28,12.784,79.104,88.609,95.349,144.536c0.575-7.908,1.26-10.056,1.774-13.545c0.755-5.145,1.605-10.276,2.567-15.381
	c1.861-9.881,4.139-19.688,6.94-29.344c9.152-31.532,23.637-66.621,49.367-88.268c6.704-5.637,14.054-10.475,21.727-14.689
	C501.041,1684.065,484.51,1644.523,472.822,1595.792z"/>
<path style="fill:#E6682D;" d="M1840.099,319.112c-5.657,58.874-30.573,97.886-84.005,127.211
	c54.285,12.784,79.108,88.614,95.352,144.536c0.575-7.908,1.262-10.056,1.773-13.544c0.755-5.14,1.603-10.27,2.568-15.382
	c1.861-9.88,4.136-19.688,6.943-29.344c9.15-31.532,23.635-66.616,49.364-88.263c6.704-5.642,14.051-10.48,21.725-14.689
	C1868.313,407.385,1851.787,367.843,1840.099,319.112z"/>
<path style="fill:#493F92;" d="M1224.468,1223.572c0.022-0.014,0.044-0.028,0.067-0.042
	c-90.252-73.175-114.34-203.704-51.684-305.195c47.101-76.288,130.785-116.148,214.397-110.932
	c-24.852,15.197-46.605,36.303-62.962,62.791c-50.964,82.559-31.733,188.607,41.118,248.613
	c22.945-20.65,44.867-42.452,65.619-65.335c6.985-7.701,13.838-15.523,20.553-23.46c-12.27-26.223-29.971-48.969-57.392-57.296
	c50.695-17.636,75.905-45.345,84.724-90.103c5.055,25.412,12.374,47.924,33.474,66.965c11.558-17.156,22.548-34.698,32.945-52.576
	c40.177-69.03,71.647-143.11,93.555-219.912c0.004-0.014,0.007-0.027,0.011-0.04c-17.914-2.353-30.922-18.426-29.263-36.574
	c1.704-18.602,18.162-32.302,36.765-30.596c3.034,0.277,5.92,0.983,8.647,1.991c0.002-0.013,0.006-0.026,0.008-0.038
	c3.224-15.296,6.075-30.678,8.541-46.115c0.514-3.217,1.014-6.433,1.493-9.652l-528.762-48.403
	c-1.876-0.171-3.733-0.254-5.582-0.254c-31.128-0.023-58.064,24.017-60.92,55.602l-69.607,760.453c0.001,0,0.001,0,0.001,0
	C1078.798,1299.934,1154.376,1266.238,1224.468,1223.572z"/>
<path style="fill:#493F92;" d="M1104.481,455.308c-41.689-3.821-78.912,27.159-82.728,68.849l-10.124,110.601v-0.001L1007.763,677
	l-3.022,33.016l-3.043,33.241l-33.629,367.386l-20.782,227.036l0,0c12.28-2.934,24.514-6.088,36.671-9.5l70.169-766.607
	c3.683-39.832,37.333-69.898,76.611-69.921c2.324,0,4.663,0.106,7.019,0.323l529.504,48.471c1.458-11.121,2.681-22.205,3.67-33.293"
	/>
<path style="fill:#F8DAD0;" d="M1130.739,491.652c-39.278,0.023-72.928,30.088-76.611,69.921l-70.169,766.607l0,0
	c2.717-0.763,5.431-1.538,8.14-2.327c2.708-0.785,5.413-1.581,8.113-2.39l69.607-760.453c2.855-31.585,29.792-55.625,60.92-55.602
	c1.849,0,3.706,0.083,5.582,0.254l528.762,48.403l0,0c0.389-2.606,0.762-5.214,1.118-7.822c0.367-2.601,0.72-5.2,1.061-7.796l0,0
	l-529.504-48.471C1135.402,491.759,1133.063,491.652,1130.739,491.652z"/>
<path style="fill:#F8DAD0;" d="M1135.934,631.083c18.607,1.705,35.064-11.995,36.77-30.602c1.7-18.602-12-35.059-30.602-36.765
	c-18.602-1.701-35.064,12-36.765,30.602C1103.632,612.919,1117.333,629.382,1135.934,631.083z"/>
<path style="fill:#F8DAD0;" d="M1646.394,609.88c-18.603-1.705-35.061,11.995-36.765,30.596
	c-1.659,18.149,11.35,34.221,29.263,36.574c6.141-21.533,11.53-43.27,16.149-65.18
	C1652.314,610.863,1649.428,610.157,1646.394,609.88z"/>
<path style="fill:#FFFFFF;" d="M1365.364,1118.844c0.013-0.012,0.025-0.023,0.039-0.035
	c-72.851-60.007-92.083-166.054-41.118-248.613c16.357-26.489,38.11-47.595,62.962-62.791
	c-83.611-5.217-167.296,34.644-214.397,110.932c-62.655,101.491-38.568,232.02,51.684,305.195
	C1274.58,1193.06,1321.828,1158.019,1365.364,1118.844z"/>
<path style="fill:#FFFFFF;" d="M1512.337,949.646c0.015-0.022,0.028-0.045,0.044-0.067c-21.1-19.041-28.419-41.553-33.474-66.965
	c-8.82,44.758-34.029,72.467-84.724,90.103c27.421,8.326,45.122,31.072,57.392,57.296c0.002-0.001,0.002-0.002,0.004-0.004
	C1473.281,1004.361,1493.561,977.511,1512.337,949.646z"/>
<path style="fill:#F8DAD0;" d="M1057.859,1189.917l3.164,0.292c3.842,0.351,7.272-2.505,7.623-6.344l30.875-337.33
	c0.355-3.844-2.5-7.274-6.339-7.625l-3.167-0.287c-3.84-0.351-7.27,2.5-7.62,6.344l-30.879,337.329
	C1051.165,1186.137,1054.02,1189.567,1057.859,1189.917z"/>
<path style="fill:#F8DAD0;" d="M1222.37,606.439l337.334,30.875c3.839,0.351,7.269-2.5,7.62-6.344l0.292-3.162
	c0.351-3.839-2.504-7.269-6.343-7.625l-337.335-30.875c-3.839-0.351-7.269,2.505-7.62,6.344l-0.292,3.162
	C1215.676,602.658,1218.531,606.088,1222.37,606.439z"/>
<path style="fill:#3B3189;" d="M1675.13,1643.27c0.632-0.885,1.27-1.763,1.864-2.675c0.722-1.11,1.385-2.258,2.05-3.408
	c0.536-0.926,1.09-1.839,1.589-2.791c0.636-1.213,1.196-2.468,1.767-3.719c0.433-0.948,0.893-1.88,1.288-2.849
	c0.544-1.339,1.001-2.722,1.47-4.099c0.32-0.936,0.679-1.853,0.963-2.807c0.462-1.558,0.82-3.162,1.184-4.763
	c0.188-0.818,0.426-1.614,0.586-2.443c0.474-2.451,0.839-4.943,1.071-7.479l92.681-1012.521c0.21-2.28,0.314-4.547,0.318-6.796
	c0-0.168-0.022-0.33-0.023-0.497c-0.004-1.028-0.094-2.038-0.14-3.057c-0.066-1.461-0.118-2.925-0.268-4.367
	c-0.11-1.057-0.292-2.094-0.446-3.141c-0.201-1.375-0.394-2.749-0.669-4.101c-0.216-1.06-0.493-2.099-0.754-3.145
	c-0.324-1.304-0.647-2.606-1.038-3.885c-0.319-1.04-0.688-2.059-1.05-3.081c-0.438-1.243-0.884-2.479-1.386-3.693
	c-0.417-1.008-0.873-1.996-1.331-2.983c-0.548-1.179-1.109-2.349-1.715-3.497c-0.51-0.967-1.051-1.914-1.601-2.857
	c-0.651-1.115-1.321-2.214-2.026-3.294c-0.597-0.913-1.216-1.811-1.85-2.698c-0.75-1.048-1.525-2.073-2.326-3.082
	c-0.677-0.853-1.368-1.696-2.081-2.519c-0.844-0.975-1.719-1.919-2.612-2.851c-0.751-0.784-1.509-1.564-2.293-2.316
	c-0.938-0.899-1.91-1.759-2.894-2.61c-0.815-0.706-1.629-1.414-2.475-2.086c-1.029-0.817-2.095-1.584-3.167-2.349
	c-0.874-0.624-1.74-1.256-2.641-1.843c-1.12-0.731-2.281-1.4-3.443-2.072c-0.916-0.53-1.818-1.079-2.759-1.571
	c-1.224-0.641-2.49-1.207-3.753-1.783c-0.94-0.429-1.862-0.887-2.824-1.278c-1.35-0.549-2.743-1.009-4.132-1.482
	c-0.928-0.316-1.834-0.673-2.777-0.953c-1.564-0.465-3.172-0.823-4.779-1.188c-0.816-0.186-1.611-0.426-2.438-0.585
	c-2.452-0.473-4.947-0.839-7.484-1.071l-41.853-3.83c-0.989,11.088-2.212,22.172-3.67,33.293l0,0l6.128,0.561
	c39.828,3.678,69.898,37.319,69.921,76.598c0,2.324-0.106,4.667-0.318,7.023l-86.425,944.198
	c-3.683,39.833-37.329,69.898-76.608,69.921c-2.329,0-4.666-0.107-7.023-0.319l-535.632-49.027
	c-39.833-3.687-69.902-37.333-69.925-76.611c0-2.314,0.106-4.662,0.323-7.032v0.014l16.256-177.592l0,0
	c-12.157,3.412-24.391,6.567-36.671,9.5l-9.702,105.984l-8.514,93.019c-0.21,2.28-0.314,4.546-0.318,6.795
	c0,0.168,0.022,0.33,0.023,0.497c0.005,1.031,0.094,2.045,0.14,3.069c0.067,1.455,0.118,2.914,0.267,4.351
	c0.111,1.064,0.294,2.107,0.449,3.159c0.201,1.369,0.394,2.737,0.667,4.084c0.217,1.064,0.496,2.106,0.756,3.156
	c0.323,1.299,0.645,2.596,1.034,3.87c0.32,1.047,0.692,2.071,1.056,3.1c0.438,1.235,0.881,2.466,1.379,3.672
	c0.419,1.015,0.88,2.009,1.341,3.002c0.546,1.173,1.103,2.337,1.705,3.479c0.513,0.971,1.057,1.923,1.61,2.871
	c0.648,1.109,1.314,2.204,2.016,3.278c0.601,0.92,1.223,1.823,1.862,2.716c0.745,1.042,1.515,2.06,2.312,3.063
	c0.682,0.858,1.376,1.705,2.095,2.533c0.842,0.971,1.713,1.913,2.602,2.841c0.754,0.787,1.513,1.568,2.299,2.321
	c0.935,0.897,1.905,1.754,2.885,2.604c0.821,0.709,1.638,1.42,2.488,2.095c1.025,0.814,2.086,1.578,3.153,2.339
	c0.877,0.626,1.747,1.262,2.652,1.851c1.117,0.727,2.273,1.393,3.43,2.063c0.921,0.533,1.83,1.085,2.774,1.58
	c1.218,0.639,2.479,1.202,3.737,1.776c0.943,0.43,1.87,0.891,2.835,1.283c1.348,0.549,2.739,1.008,4.126,1.48
	c0.928,0.317,1.837,0.674,2.782,0.955c1.569,0.466,3.183,0.826,4.794,1.192c0.81,0.184,1.596,0.422,2.418,0.58
	c2.453,0.473,4.946,0.839,7.485,1.071l99.322,9.092l12.586,1.152l23.714,2.171l148.206,13.566l33.244,3.044l65.565,6.002
	l225.669,20.659c2.331,0.213,4.642,0.317,6.94,0.317c0.144,0,0.283-0.02,0.425-0.021c0.986-0.006,1.954-0.097,2.931-0.14
	c1.5-0.067,3.003-0.121,4.485-0.275c1.039-0.109,2.057-0.294,3.086-0.445c1.39-0.204,2.781-0.399,4.149-0.678
	c1.049-0.214,2.075-0.493,3.108-0.75c1.313-0.327,2.626-0.651,3.913-1.046c1.037-0.318,2.05-0.689,3.068-1.05
	c1.243-0.44,2.48-0.884,3.694-1.386c1.01-0.419,1.999-0.88,2.988-1.34c1.175-0.547,2.341-1.104,3.485-1.709
	c0.971-0.513,1.921-1.058,2.866-1.611c1.109-0.649,2.201-1.312,3.274-2.015c0.921-0.602,1.824-1.227,2.718-1.868
	c1.038-0.744,2.053-1.51,3.052-2.304c0.861-0.684,1.711-1.385,2.542-2.106c0.965-0.836,1.9-1.7,2.821-2.583
	c0.794-0.761,1.581-1.529,2.344-2.324c0.886-0.926,1.733-1.883,2.572-2.852c0.717-0.829,1.435-1.657,2.117-2.516
	C1673.617,1645.379,1674.375,1644.328,1675.13,1643.27z"/>
<path style="fill:#3B3189;" d="M1655.049,611.832c14.001,5.169,23.369,19.241,21.945,34.812
	c-1.609,17.551-16.353,30.74-33.638,30.74c-1.034,0-2.077-0.047-3.127-0.144c-0.452-0.041-0.903-0.092-1.349-0.15
	c-21.908,76.802-53.379,150.882-93.555,219.912c-10.397,17.878-21.387,35.421-32.945,52.576c-0.016,0.022-0.029,0.044-0.044,0.067
	c10.91,9.833,25.522,18.733,45.455,26.615c-7.282,2.527-14.305,5.572-20.788,9.296c-24.876,14.273-40.3,39.93-50.626,63.337
	c-3.16,7.171-5.854,14.504-8.168,21.933c-1.202,3.839-2.293,7.706-3.305,11.597c-0.683,2.629-1.441,4.223-2.463,10.253
	c-4.996-19.532-11.27-42.165-20.865-62.668c-0.001,0.001-0.002,0.003-0.004,0.004c-6.715,7.938-13.568,15.76-20.553,23.46
	c-20.751,22.883-42.674,44.685-65.619,65.335c-0.014,0.012-0.026,0.023-0.039,0.035c6.68,5.502,13.815,10.62,21.385,15.293
	c31.39,19.379,66.193,28.621,100.56,28.621c35.37,0,70.279-9.781,100.581-28.367c-4.473,10.331-9.749,20.496-15.853,30.379
	c-44.339,71.824-121.167,111.371-199.808,111.371c-42.047,0-84.601-11.298-123.007-35.009c-8.732-5.391-16.989-11.264-24.754-17.56
	c-70.091,42.666-145.67,76.362-224.254,99.89l-16.82,183.746v0.014c-0.176,1.862-0.258,3.715-0.258,5.567
	c-0.023,31.128,24.022,58.065,55.607,60.921l535.628,49.027c1.875,0.171,3.743,0.254,5.591,0.254
	c31.128,0.023,58.065-24.012,60.916-55.602l86.425-944.194c0.172-1.88,0.259-3.742,0.259-5.591
	c0.024-31.123-24.022-58.055-55.608-60.911l-6.869-0.629l0,0c-0.479,3.219-0.979,6.435-1.493,9.652
	C1661.124,581.155,1658.274,596.536,1655.049,611.832z"/>
<path style="fill:#826899;" d="M1665.083,556.065l6.869,0.629c31.586,2.855,55.631,29.787,55.608,60.911
	c0,1.848-0.088,3.71-0.259,5.591l-86.425,944.194c-2.85,31.59-29.788,55.625-60.916,55.602c-1.848,0-3.715-0.083-5.591-0.254
	l-535.628-49.027c-31.584-2.856-55.63-29.793-55.607-60.921c0-1.853,0.083-3.705,0.258-5.567v-0.014l16.82-183.746c0,0,0,0-0.001,0
	c-2.701,0.809-5.405,1.605-8.113,2.39c-2.709,0.789-5.423,1.564-8.14,2.327l-16.256,177.592v-0.014
	c-0.217,2.37-0.323,4.718-0.323,7.032c0.023,39.279,30.092,72.925,69.925,76.611l535.632,49.027
	c2.357,0.213,4.694,0.319,7.023,0.319c39.279-0.023,72.924-30.088,76.608-69.921l86.425-944.198
	c0.212-2.357,0.318-4.699,0.318-7.023c-0.023-39.278-30.092-72.919-69.921-76.598l-6.128-0.561
	c-0.341,2.596-0.694,5.196-1.061,7.796C1665.846,550.852,1665.472,553.46,1665.083,556.065z"/>
<path style="fill:#826899;" d="M1643.356,677.385c17.285,0,32.029-13.188,33.638-30.74c1.424-15.572-7.944-29.644-21.945-34.812
	c-0.002,0.012-0.006,0.026-0.008,0.038c-4.618,21.91-10.007,43.646-16.149,65.18c-0.004,0.013-0.007,0.027-0.011,0.04
	c0.446,0.058,0.897,0.109,1.349,0.15C1641.279,677.337,1642.322,677.385,1643.356,677.385z"/>
<path style="fill:#826899;" d="M1564.123,1508.664c-1.051-0.096-2.092-0.143-3.127-0.143c-17.285,0.001-32.031,13.188-33.638,30.74
	c-1.701,18.606,11.999,35.064,30.6,36.769c1.049,0.096,2.086,0.143,3.12,0.143c17.288,0,32.041-13.189,33.645-30.743
	C1596.433,1526.827,1582.729,1510.364,1564.123,1508.664z"/>
<path style="fill:#826899;" d="M1059.83,1462.501c-1.048-0.096-2.086-0.143-3.118-0.143c-17.288,0.001-32.037,13.19-33.647,30.744
	c-1.7,18.602,12,35.064,30.602,36.765c1.05,0.096,2.093,0.143,3.127,0.143c17.289,0,32.034-13.188,33.643-30.739
	C1092.137,1480.665,1078.431,1464.206,1059.83,1462.501z"/>
<path style="fill:#8177B6;" d="M1249.222,1241.132c38.406,23.711,80.96,35.009,123.007,35.009
	c78.642,0,155.469-39.547,199.808-111.371c6.104-9.883,11.38-20.048,15.853-30.379c-30.302,18.586-65.211,28.367-100.581,28.367
	c-34.367,0-69.17-9.242-100.56-28.621c-7.57-4.673-14.705-9.792-21.385-15.293c-43.536,39.176-90.784,74.217-140.829,104.687
	c-0.023,0.014-0.045,0.028-0.067,0.042C1232.233,1229.868,1240.49,1235.741,1249.222,1241.132z"/>
<path style="fill:#8177B6;" d="M1472.443,1092.678c1.022-6.029,1.78-7.623,2.463-10.253c1.012-3.891,2.102-7.758,3.305-11.597
	c2.314-7.43,5.008-14.763,8.168-21.933c10.326-23.407,25.75-49.065,50.626-63.337c6.482-3.724,13.505-6.769,20.788-9.296
	c-19.933-7.883-34.545-16.783-45.455-26.615c-18.776,27.865-39.056,54.715-60.759,80.363
	C1461.173,1050.513,1467.447,1073.146,1472.443,1092.678z"/>
<path style="fill:#826899;" d="M1478.344,1526.139l-337.328-30.878c-0.214-0.019-0.427-0.029-0.639-0.029
	c-3.574,0-6.649,2.748-6.984,6.373l-0.288,3.17c-0.351,3.84,2.505,7.268,6.345,7.619l337.328,30.879
	c0.215,0.019,0.428,0.029,0.638,0.029c3.575,0,6.649-2.747,6.986-6.373l0.286-3.165
	C1485.038,1529.923,1482.184,1526.49,1478.344,1526.139z"/>
<path style="fill:#826899;" d="M1656.277,890.455l-3.171-0.291c-0.214-0.019-0.427-0.029-0.638-0.029
	c-3.575,0-6.649,2.748-6.981,6.373l-30.878,337.333c-0.351,3.839,2.505,7.268,6.344,7.619l3.166,0.291
	c0.214,0.019,0.427,0.029,0.639,0.029c3.575,0,6.649-2.747,6.98-6.373l30.883-337.328
	C1662.967,894.235,1660.116,890.806,1656.277,890.455z"/>
<path style="fill:#EEC95F;" d="M1408.889,1853.059c-11.595-39.137-18.11-82.109-35.718-119.001
	c-3.367-7.064-14.338-3.372-14.294,3.873c0.243,40.741,15.83,82.66,27.556,121.315c6.373,21.004,13.131,41.895,20.263,62.651
	c5.627,16.37,8.555,34.524,22.031,45.992c3.401,2.894,10.26,2.446,11.138-2.938c2.86-17.52-5.569-32.633-11.128-49.13
	C1421.737,1895.027,1415.125,1874.097,1408.889,1853.059z"/>
<path style="fill:#EEC95F;" d="M1441.756,1723.446c-4.409-5.968-16.068-2.787-13.101,5.525c6.397,17.93,14.363,33.764,24.77,49.793
	c4.424,6.816,16.891,31.995,28.799,25.325c11.401-6.377-2.348-22.767-6.285-29.169
	C1465.059,1757.254,1454.063,1740.104,1441.756,1723.446z"/>
<path style="fill:#EEC95F;" d="M1286.263,1762.784c-6.397,17.74-10.67,35.79-15.128,54.1c-3.601,14.787-8.37,29.447-5.852,44.604
	c1.018,6.119,9.097,5.666,11.995,1.568c9.637-13.632,11.347-32.092,14.787-48.171c3.586-16.745,6.884-33.115,8.672-50.143
	C1301.659,1755.987,1288.894,1755.48,1286.263,1762.784z"/>
<path style="fill:#EEC95F;" d="M1303.988,259.073c-25.944,51.434-55.44,102.538-73.725,157.315
	c-2.884,8.638,9.159,12.429,13.837,5.832c32.892-46.358,56.395-99.6,82.202-150.105
	C1333.863,257.324,1311.481,244.223,1303.988,259.073z"/>
<path style="fill:#EEC95F;" d="M1153.396,395.921c4.862-11.323,4.322-23.347,5.417-35.518c1.432-15.908,4.751-31.284,8.112-46.855
	c2.646-12.249-15.479-17.432-18.885-5.204c-6.904,24.751-16.482,63.338-5.106,87.576
	C1144.748,399.789,1151.647,399.989,1153.396,395.921z"/>
<path style="fill:#EEC95F;" d="M1003.689,214.035c8.677,21.944,17.228,43.937,25.551,66.012
	c16.059,42.587,27.245,90.67,49.744,130.285c4.117,7.245,17.837,4.638,16.746-4.536c-5.549-46.504-27.196-93.291-43.352-136.998
	c-8.726-23.606-17.761-47.079-27.145-70.431c-7.033-17.506-10.641-35.922-26.383-47.026c-3.897-2.748-10.752-0.078-11.566,4.707
	C983.805,176.491,996.249,195.219,1003.689,214.035z"/>
<path style="fill:#EEC95F;" d="M596.286,1793.527c-25.204,0-25.247,39.167,0,39.167
	C621.489,1832.693,621.53,1793.527,596.286,1793.527z"/>
<path style="fill:#EEC95F;" d="M402.247,1610.579c0-8.507-9.627-14.173-17.013-9.764c-0.463,0.278-0.926,0.556-1.389,0.829
	c-6.701,4.005-6.701,13.866,0,17.866l1.389,0.833C392.62,1624.752,402.247,1619.086,402.247,1610.579z"/>
<path style="fill:#EEC95F;" d="M1918.554,547.317c0.41,9.135,7.406,16.862,16.858,16.862c8.819,0,17.267-7.756,16.862-16.862
	c-0.409-9.13-7.41-16.857-16.862-16.857C1926.594,530.459,1918.145,538.215,1918.554,547.317z"/>
<path style="fill:#EEC95F;" d="M1742.735,385.723c2.568-2.572,3.586-6.411,2.621-9.92c-1.028-3.737-3.712-5.744-7.123-7.123
	c-1.822-0.736-3.591-0.57-5.418,0c-6.207,1.944-9.521,9.125-6.095,14.977C1730.038,389.333,1738.106,390.352,1742.735,385.723z"/>
<path style="fill:#EEC95F;" d="M1842.788,1235.145c-25.403-10.806-50.475-19.401-77.929-22.796
	c-8.555-1.057-12.409,13.16-4.482,16.555c24.029,10.285,48.92,18.421,72.731,29.208c21.876,9.91,42.806,24.171,66.226,29.881
	c8.161,1.988,13.023-7.474,7.859-13.501C1890.779,1255.344,1865.58,1244.846,1842.788,1235.145z"/>
<path style="fill:#EEC95F;" d="M1984.075,1137.079c-28.424-9.398-67.152,1.973-96.702,4.273
	c-35.035,2.724-70.533,2.641-105.398,6.977c-10.758,1.339-10.763,15.401,0,16.76c36.18,4.565,73.915,1.964,110.178-0.93
	c28.248-2.251,69.334-0.692,93.198-17.301C1989.161,1144.202,1988.61,1138.575,1984.075,1137.079z"/>
<path style="fill:#EEC95F;" d="M1880.757,1050.541c-32.492,5.944-63.386,16.575-93.666,29.939
	c-9.535,4.205-2.709,19.357,7.001,16.604c31.707-8.979,62.134-20.677,90.786-36.765
	C1890.438,1057.197,1886.477,1049.494,1880.757,1050.541z"/>
<path style="fill:#EEC95F;" d="M396.99,1349.284c-23.754,12.048-45.281,29.047-67.098,44.263
	c-17.469,12.18-41.386,23.747-51.647,42.909c-3.452,6.451,2.215,12.414,8.78,11.42c22.826-3.445,44.263-24.78,62.79-37.925
	c20.131-14.28,41.43-27.839,59.41-44.813C417.87,1356.976,406.897,1344.255,396.99,1349.284z"/>
<path style="fill:#EEC95F;" d="M373.482,1292.675c-41.596,0.483-86.507,16.701-126.321,27.683
	c-21.121,5.827-42.017,12.234-62.814,19.133c-17.213,5.71-37.43,10.197-49.603,24.248c-2.521,2.914-1.947,8.405,2.451,9.282
	c17.147,3.425,32.782-3.372,49.269-8.219c22.492-6.616,44.952-13.34,67.498-19.771c40.501-11.562,85.871-17.452,124.411-34.295
	C387.49,1306.755,382.491,1292.573,373.482,1292.675z"/>
<path style="fill:#EEC95F;" d="M242.803,1219.418c-5.169,1.934-6.083,8.268-1.493,11.439c14.879,10.285,32.853,10.578,50.356,12.624
	c21.381,2.5,42.833,4.712,64.363,3.971c9.13-0.317,11.206-13.456,2.173-16.063c-18.965-5.477-38.417-8.424-57.953-11.143
	C281.283,1217.61,261.219,1212.534,242.803,1219.418z"/>
</svg>
