<svg width="310" height="355" viewBox="0 0 310 355" fill="none" xmlns="http://www.w3.org/2000/svg">
<rect width="310" height="355" fill="#FF9999"/>
<path d="M219.302 208.168L219.959 212.328C220.092 213.17 220.898 213.727 221.722 213.546C222.472 213.382 222.971 212.661 222.866 211.891L222.172 206.776L219.302 208.168Z" fill="white"/>
<path opacity="0.39" d="M142.671 309.579C221.465 309.579 285.341 306.943 285.341 303.691C285.341 300.438 221.465 297.802 142.671 297.802C63.8758 297.802 0 300.438 0 303.691C0 306.943 63.8758 309.579 142.671 309.579Z" fill="#FF9999"/>
<path d="M53.087 257.67C53.087 252.678 53.855 248.262 55.391 244.422C56.991 240.582 59.135 237.382 61.823 234.822C64.575 232.198 67.775 230.214 71.423 228.87C75.135 227.526 79.135 226.854 83.423 226.854C87.711 226.854 91.679 227.526 95.327 228.87C99.039 230.214 102.271 232.198 105.023 234.822C107.775 237.382 109.919 240.582 111.455 244.422C113.055 248.262 113.855 252.678 113.855 257.67C113.855 263.942 112.703 269.286 110.399 273.702C108.095 278.054 104.959 281.478 100.991 283.974C101.951 284.422 103.071 284.902 104.351 285.414C105.695 285.926 107.071 286.438 108.479 286.95C109.951 287.462 111.455 287.942 112.991 288.39C114.527 288.902 115.967 289.35 117.311 289.734C117.375 290.118 117.407 290.438 117.407 290.694C117.407 291.014 117.407 291.302 117.407 291.558C117.407 295.206 116.447 297.862 114.527 299.526C112.671 301.19 110.207 302.022 107.135 302.022C104.191 302.022 101.151 301.19 98.015 299.526C94.879 297.926 91.679 295.59 88.415 292.518L84.191 288.582H83.423C79.071 288.582 75.039 287.91 71.327 286.566C67.615 285.158 64.415 283.142 61.727 280.518C59.039 277.894 56.927 274.662 55.391 270.822C53.855 266.982 53.087 262.598 53.087 257.67ZM70.367 257.67C70.367 263.494 71.551 267.846 73.919 270.726C76.287 273.606 79.455 275.046 83.423 275.046C87.455 275.046 90.655 273.606 93.023 270.726C95.391 267.846 96.575 263.494 96.575 257.67C96.575 251.91 95.391 247.59 93.023 244.71C90.719 241.83 87.551 240.39 83.519 240.39C79.551 240.39 76.351 241.83 73.919 244.71C71.551 247.526 70.367 251.846 70.367 257.67ZM175.206 265.35C175.206 268.806 174.598 271.974 173.382 274.854C172.23 277.67 170.534 280.102 168.294 282.15C166.054 284.134 163.334 285.67 160.134 286.758C156.934 287.846 153.318 288.39 149.286 288.39C145.254 288.39 141.638 287.846 138.438 286.758C135.238 285.67 132.518 284.134 130.278 282.15C128.038 280.102 126.31 277.67 125.094 274.854C123.942 271.974 123.366 268.806 123.366 265.35V228.678C124.07 228.55 125.19 228.39 126.726 228.198C128.262 227.942 129.734 227.814 131.142 227.814C132.614 227.814 133.894 227.942 134.982 228.198C136.134 228.39 137.094 228.774 137.862 229.35C138.63 229.926 139.206 230.726 139.59 231.75C139.974 232.774 140.166 234.118 140.166 235.782V265.062C140.166 268.134 140.998 270.534 142.662 272.262C144.39 273.99 146.598 274.854 149.286 274.854C152.038 274.854 154.246 273.99 155.91 272.262C157.574 270.534 158.406 268.134 158.406 265.062V228.678C159.11 228.55 160.23 228.39 161.766 228.198C163.302 227.942 164.774 227.814 166.182 227.814C167.654 227.814 168.934 227.942 170.022 228.198C171.174 228.39 172.134 228.774 172.902 229.35C173.67 229.926 174.246 230.726 174.63 231.75C175.014 232.774 175.206 234.118 175.206 235.782V265.35ZM204.204 286.47C203.5 286.662 202.38 286.854 200.844 287.046C199.372 287.238 197.9 287.334 196.428 287.334C194.956 287.334 193.644 287.206 192.492 286.95C191.404 286.758 190.476 286.374 189.708 285.798C188.94 285.222 188.364 284.422 187.98 283.398C187.596 282.374 187.404 281.03 187.404 279.366V228.678C188.108 228.55 189.228 228.39 190.764 228.198C192.3 227.942 193.772 227.814 195.18 227.814C196.652 227.814 197.932 227.942 199.02 228.198C200.172 228.39 201.132 228.774 201.9 229.35C202.668 229.926 203.244 230.726 203.628 231.75C204.012 232.774 204.204 234.118 204.204 235.782V286.47ZM239.982 242.118H216.366C215.918 241.414 215.502 240.454 215.118 239.238C214.734 238.022 214.542 236.742 214.542 235.398C214.542 232.902 215.086 231.11 216.174 230.022C217.326 228.934 218.798 228.39 220.59 228.39H256.398C259.214 230.694 260.622 233.766 260.622 237.606C260.622 239.206 260.238 240.806 259.47 242.406C258.766 243.942 257.838 245.414 256.686 246.822L234.894 273.126H259.47C259.918 273.83 260.334 274.79 260.718 276.006C261.102 277.222 261.294 278.502 261.294 279.846C261.294 282.342 260.718 284.134 259.566 285.222C258.478 286.31 257.038 286.854 255.246 286.854H217.422C216.334 285.958 215.438 284.742 214.734 283.206C214.03 281.67 213.678 279.91 213.678 277.926C213.678 276.326 214.094 274.694 214.926 273.03C215.758 271.366 216.75 269.83 217.902 268.422L239.982 242.118Z" fill="white"/>
<path d="M194.194 57.0001H188.52V63.0257L194.693 57.0248" fill="#F6F6F6"/>
<path d="M183.025 198.317H85.9241V64.0837C85.9241 60.1713 89.2005 57.0001 93.2427 57.0001H188.52V192.999C188.52 195.936 186.06 198.317 183.025 198.317Z" fill="#F6F6F6"/>
<path d="M199.867 81.8506H188.52V62.4911C188.52 59.4589 191.06 57.0001 194.194 57.0001C197.326 57.0001 199.867 59.4582 199.867 62.4911V81.8506Z" fill="#DADADA"/>
<path d="M80.251 173.467H91.5973V192.826C91.5973 195.859 89.0576 198.317 85.9242 198.317C82.7914 198.317 80.251 195.859 80.251 192.826V173.467Z" fill="white"/>
<path d="M182.847 173.467H85.9241V198.317H182.847V173.467Z" fill="white"/>
<path d="M177.174 173.467H188.52V192.826C188.52 195.859 185.981 198.317 182.847 198.317C179.714 198.317 177.174 195.859 177.174 192.826V173.467Z" fill="#DADADA"/>
<path d="M165.008 78.6707H160.209C159.168 78.6707 158.321 77.8513 158.321 76.8441V72.1992C158.321 71.1921 159.169 70.3727 160.209 70.3727H165.008C166.048 70.3727 166.895 71.1921 166.895 72.1992V76.8441C166.895 77.8513 166.048 78.6707 165.008 78.6707ZM160.209 71.041C159.548 71.041 159.012 71.5603 159.012 72.1992V76.8441C159.012 77.4831 159.548 78.0023 160.209 78.0023H165.008C165.668 78.0023 166.204 77.4824 166.204 76.8441V72.1992C166.204 71.561 165.668 71.041 165.008 71.041H160.209Z" fill="#E6332A"/>
<path d="M165.008 93.3739H160.209C159.168 93.3739 158.321 92.5546 158.321 91.5474V86.9025C158.321 85.8953 159.169 85.076 160.209 85.076H165.008C166.048 85.076 166.895 85.8953 166.895 86.9025V91.5474C166.895 92.5546 166.048 93.3739 165.008 93.3739ZM160.209 85.7443C159.548 85.7443 159.012 86.2636 159.012 86.9025V91.5474C159.012 92.1863 159.548 92.7056 160.209 92.7056H165.008C165.668 92.7056 166.204 92.1856 166.204 91.5474V86.9025C166.204 86.2642 165.668 85.7443 165.008 85.7443H160.209Z" fill="#E6332A"/>
<path d="M165.008 108.077H160.209C159.168 108.077 158.321 107.258 158.321 106.251V101.606C158.321 100.599 159.169 99.7792 160.209 99.7792H165.008C166.048 99.7792 166.895 100.599 166.895 101.606V106.251C166.895 107.258 166.048 108.077 165.008 108.077ZM160.209 100.447C159.548 100.447 159.012 100.966 159.012 101.605V106.25C159.012 106.889 159.548 107.408 160.209 107.408H165.008C165.668 107.408 166.204 106.888 166.204 106.25V101.605C166.204 100.966 165.668 100.447 165.008 100.447H160.209Z" fill="#E6332A"/>
<path d="M165.008 122.78H160.209C159.168 122.78 158.321 121.961 158.321 120.954V116.309C158.321 115.302 159.169 114.482 160.209 114.482H165.008C166.048 114.482 166.895 115.302 166.895 116.309V120.954C166.895 121.961 166.048 122.78 165.008 122.78ZM160.209 115.15C159.548 115.15 159.012 115.669 159.012 116.308V120.953C159.012 121.592 159.548 122.111 160.209 122.111H165.008C165.668 122.111 166.204 121.591 166.204 120.953V116.308C166.204 115.669 165.668 115.15 165.008 115.15H160.209Z" fill="#E6332A"/>
<path d="M165.008 137.484H160.209C159.168 137.484 158.321 136.664 158.321 135.657V131.012C158.321 130.005 159.169 129.186 160.209 129.186H165.008C166.048 129.186 166.895 130.005 166.895 131.012V135.657C166.895 136.664 166.048 137.484 165.008 137.484ZM160.209 129.853C159.548 129.853 159.012 130.373 159.012 131.012V135.657C159.012 136.295 159.548 136.815 160.209 136.815H165.008C165.668 136.815 166.204 136.295 166.204 135.657V131.012C166.204 130.373 165.668 129.853 165.008 129.853H160.209Z" fill="#E6332A"/>
<path d="M165.008 152.187H160.209C159.168 152.187 158.321 151.368 158.321 150.36V145.716C158.321 144.708 159.169 143.889 160.209 143.889H165.008C166.048 143.889 166.895 144.708 166.895 145.716V150.36C166.895 151.368 166.048 152.187 165.008 152.187ZM160.209 144.557C159.548 144.557 159.012 145.076 159.012 145.715V150.36C159.012 150.999 159.548 151.518 160.209 151.518H165.008C165.668 151.518 166.204 150.998 166.204 150.36V145.715C166.204 145.076 165.668 144.557 165.008 144.557H160.209Z" fill="#E6332A"/>
<path d="M165.008 166.89H160.209C159.168 166.89 158.321 166.07 158.321 165.064V160.419C158.321 159.412 159.169 158.592 160.209 158.592H165.008C166.048 158.592 166.895 159.412 166.895 160.419V165.064C166.895 166.07 166.048 166.89 165.008 166.89ZM160.209 159.26C159.548 159.26 159.012 159.779 159.012 160.418V165.063C159.012 165.702 159.548 166.221 160.209 166.221H165.008C165.668 166.221 166.204 165.702 166.204 165.063V160.418C166.204 159.779 165.668 159.26 165.008 159.26H160.209Z" fill="#E6332A"/>
<path d="M151.532 70.7062H98.5934V74.521H151.532V70.7062Z" fill="#DADADA"/>
<path d="M151.532 85.6326H98.5934V89.4475H151.532V85.6326Z" fill="#DADADA"/>
<path d="M119.999 91.8147H98.5934V95.6296H119.999V91.8147Z" fill="#DADADA"/>
<path d="M151.532 101.673H98.5934V105.487H151.532V101.673Z" fill="#DADADA"/>
<path d="M151.532 114.231H98.5934V118.046H151.532V114.231Z" fill="#DADADA"/>
<path d="M151.532 129.519H98.5934V133.334H151.532V129.519Z" fill="#DADADA"/>
<path d="M151.532 135.242H98.5934V139.057H151.532V135.242Z" fill="#DADADA"/>
<path d="M151.532 144.222H98.5934V148.037H151.532V144.222Z" fill="#DADADA"/>
<path d="M127.019 149.945H98.5934V153.76H127.019V149.945Z" fill="#DADADA"/>
<path d="M151.532 157.972H98.5934V161.787H151.532V157.972Z" fill="#DADADA"/>
<path d="M127.019 163.695H98.5934V167.51H127.019V163.695Z" fill="#DADADA"/>
<path d="M119.999 120.413H98.5934V124.228H119.999V120.413Z" fill="#DADADA"/>
<path d="M162.666 76.9043C162.637 76.9043 162.607 76.9029 162.578 76.9009C162.228 76.8722 161.918 76.6737 161.753 76.3736C161.379 75.6959 160.908 75.0757 160.353 74.5297C159.952 74.1354 159.957 73.5005 160.365 73.1122C160.773 72.7239 161.428 72.7285 161.83 73.1235C162.164 73.453 162.475 73.8039 162.759 74.1741C164.523 72.0582 166.415 70.0191 168.396 68.099C168.8 67.7067 169.456 67.7067 169.86 68.0977C170.266 68.4887 170.266 69.1236 169.862 69.5152C167.596 71.712 165.45 74.0679 163.485 76.5173C163.287 76.7626 162.984 76.9043 162.666 76.9043Z" fill="#575756"/>
<path d="M162.666 92.0901C162.637 92.0901 162.607 92.0887 162.578 92.0867C162.228 92.0573 161.918 91.8595 161.753 91.5594C161.379 90.8817 160.908 90.2615 160.353 89.7155C159.952 89.3212 159.957 88.6863 160.365 88.298C160.773 87.9097 161.428 87.915 161.83 88.3093C162.164 88.6388 162.475 88.9897 162.759 89.3599C164.523 87.2447 166.414 85.2063 168.396 83.2855C168.8 82.8932 169.456 82.8932 169.86 83.2842C170.266 83.6751 170.266 84.31 169.862 84.7017C167.595 86.8991 165.449 89.2543 163.485 91.7031C163.287 91.9477 162.984 92.0901 162.666 92.0901Z" fill="#575756"/>
<path d="M162.666 135.756C162.637 135.756 162.607 135.755 162.578 135.753C162.228 135.724 161.918 135.525 161.753 135.225C161.379 134.548 160.908 133.927 160.354 133.382C159.952 132.988 159.957 132.353 160.365 131.965C160.773 131.576 161.429 131.582 161.829 131.975C162.164 132.305 162.475 132.656 162.759 133.026C164.523 130.911 166.414 128.872 168.396 126.951C168.8 126.559 169.456 126.559 169.86 126.95C170.266 127.342 170.266 127.976 169.862 128.368C167.596 130.565 165.449 132.921 163.485 135.369C163.287 135.614 162.984 135.756 162.666 135.756Z" fill="#575756"/>
<path d="M162.666 164.429C162.637 164.429 162.607 164.428 162.578 164.426C162.228 164.397 161.918 164.199 161.753 163.899C161.379 163.221 160.908 162.601 160.353 162.055C159.952 161.661 159.957 161.026 160.365 160.637C160.773 160.25 161.428 160.254 161.83 160.649C162.164 160.978 162.475 161.329 162.759 161.699C164.523 159.583 166.415 157.544 168.396 155.624C168.8 155.232 169.456 155.232 169.86 155.623C170.266 156.014 170.266 156.649 169.862 157.04C167.596 159.237 165.45 161.592 163.485 164.042C163.287 164.288 162.984 164.429 162.666 164.429Z" fill="#575756"/>
<path d="M204.84 253.932L205.676 257.302C205.676 257.302 206.714 262.389 208.79 263.329C210.866 264.269 209.828 256.654 209.661 256.233C209.494 255.812 208.898 251.145 208.442 250.468C207.985 249.79 207.785 250.192 205.341 250.927C205.341 250.927 204.297 251.745 204.84 253.932Z" fill="black"/>
<path d="M226.967 221.947C226.967 221.947 224.162 222.921 223.86 224.962C223.559 227.004 236.515 232.447 236.515 232.447C236.515 232.447 237.118 232.423 236.515 231.669L231.995 226.517C231.995 226.517 230.319 223.941 228.96 223.455C227.828 223.05 226.967 221.947 226.967 221.947Z" fill="black"/>
<path d="M204.84 248.147L205.585 251.635L206.102 251.947C206.871 252.41 207.885 252.138 208.296 251.357V247.7L204.84 248.147Z" fill="white"/>
<path d="M191.332 129.825C192.881 129.825 194.138 128.609 194.138 127.109C194.138 125.609 192.881 124.394 191.332 124.394C189.783 124.394 188.527 125.609 188.527 127.109C188.527 128.609 189.783 129.825 191.332 129.825Z" fill="#1D1D1B"/>
<path d="M194.338 140.906C195.887 140.906 197.143 139.69 197.143 138.191C197.143 136.691 195.887 135.475 194.338 135.475C192.788 135.475 191.532 136.691 191.532 138.191C191.532 139.69 192.788 140.906 194.338 140.906Z" fill="#1D1D1B"/>
<path d="M193.877 137.008C195.427 137.008 196.683 135.792 196.683 134.292C196.683 132.793 195.427 131.577 193.877 131.577C192.328 131.577 191.072 132.793 191.072 134.292C191.072 135.792 192.328 137.008 193.877 137.008Z" fill="#1D1D1B"/>
<path d="M195.985 153.187C196.169 152.937 196.273 152.796 196.352 152.672C196.355 152.666 196.359 152.661 196.363 152.655C196.656 152.687 196.952 152.683 197.243 152.629C197.425 152.591 197.608 152.563 197.792 152.543C197.96 152.532 198.048 152.524 198.066 152.521C198.269 152.541 198.491 152.579 198.578 152.588C199.245 152.661 199.902 152.797 200.556 152.941C201.321 153.109 204.369 155.081 204.985 154.696L223.15 182.636L221.598 185.267L190.843 156.085C190.843 156.085 195.398 153.988 195.985 153.187Z" fill="#FFCB9C"/>
<path d="M162.636 162.445C162.415 162.225 162.291 162.102 162.192 161.99C162.188 161.985 162.184 161.981 162.179 161.975C161.895 162.05 161.602 162.09 161.305 162.08C161.12 162.07 160.934 162.068 160.749 162.076C160.581 162.09 160.493 162.096 160.474 162.095C160.277 162.144 160.064 162.215 159.979 162.237C159.331 162.408 158.703 162.641 158.08 162.88C157.351 163.159 156.603 163.082 155.934 162.793L140.46 195.578L142.41 197.948L168.176 164.545C168.177 164.545 163.344 163.149 162.636 162.445Z" fill="#FFCB9C"/>
<path d="M228.527 218.977L226.967 221.947C226.779 222.791 227.999 224.817 228.881 224.951L230.303 225.169L231.885 218.725L228.527 218.977Z" fill="white"/>
<path d="M241.513 183.779C236.536 183.586 221.249 184.05 209.038 190.762C200.07 195.692 172.215 194.691 172.215 194.691C172.215 194.691 162.69 206.804 179.246 214.888C195.801 222.972 194.757 227.303 196.994 232.354C198.763 236.35 202.7 243.491 204.297 247.564C204.744 248.705 206.066 249.274 207.23 248.804L207.264 248.791C207.995 248.495 208.508 247.846 208.609 247.085C209.391 241.182 211.55 224.572 211.376 222.323C211.164 219.58 202.122 207.887 202.122 207.887C202.122 207.887 220.989 206.443 228.595 201.102C228.595 201.102 229.359 211.135 228.539 214.239C228.202 215.513 227.729 217.341 227.286 219.059C228.751 219.672 230.129 220.46 231.518 221.23C234.88 215.95 244.339 200.74 245.989 194.173C248.001 186.16 245.261 183.924 241.513 183.779Z" fill="#1B364F"/>
<path opacity="0.39" d="M190.362 200.359C190.362 200.359 188.531 206.628 196.787 213.296C205.043 219.964 211.321 225.068 210.697 230.346L208.608 247.084C208.608 247.084 207.385 250.409 204.684 248.197L199.712 237.95C199.712 237.95 196.409 231.711 195.273 227.813C195.273 227.813 194.677 224.297 186.753 219.013C178.828 213.727 174.327 213.845 170.693 207.505C167.06 201.164 172.216 194.691 172.216 194.691L190.362 200.359Z" fill="#274F6D"/>
<path d="M190.706 152.879L194.55 156.144C203.135 163.434 208.65 173.524 210.047 184.495L210.74 189.93L163.79 194.451L165.967 157.819L190.706 152.879Z" fill="#662483"/>
<path d="M210.74 189.93C210.74 189.93 208.046 190.695 203.136 197.008C195.346 207.023 166.648 202.804 163.79 194.451C160.932 186.099 210.74 189.93 210.74 189.93Z" fill="#662483"/>
<path d="M166.887 168.75L163.79 172.244L153.077 167.462C153.077 167.462 159.982 152.521 175.288 151.186L188.019 150.904L190.068 155.001L166.887 168.75Z" fill="#662483"/>
<path d="M201.495 166.843L204.864 172.244L214.646 167.462C214.646 167.462 209.352 150.734 192.435 151.186L179.705 150.904L177.655 155.001L201.495 166.843Z" fill="#662483"/>
<path d="M250.661 169.162L87.9588 196.543L90.5754 211.109L253.278 183.728L250.661 169.162Z" fill="#FFF48D"/>
<path d="M253.288 183.719L274.602 172.632L250.673 169.152C249.52 172.919 249.858 176.913 251.626 180.42L253.288 183.719Z" fill="#FFCC66"/>
<path d="M268.327 171.72C268.327 171.72 267.445 173.047 267.829 174.046C268.214 175.044 269.012 175.54 269.012 175.54L274.602 172.633L268.327 171.72Z" fill="#1D1D1B"/>
<path d="M87.9722 196.552L72.3582 199.177L74.9718 213.744L90.5858 211.12L87.9722 196.552Z" fill="#1D1D1B"/>
<path d="M76.957 198.384L74.6508 198.771L77.2644 213.337L79.5705 212.95L76.957 198.384Z" fill="#FFED00"/>
<path d="M83.7878 197.236L81.4816 197.623L84.0952 212.189L86.4014 211.802L83.7878 197.236Z" fill="#FFED00"/>
<path d="M70.6966 214.45L74.9701 213.731L72.3566 199.165L68.0831 199.884C63.927 200.582 61.1436 204.409 61.8651 208.432C62.5867 212.454 66.5405 215.148 70.6966 214.45Z" fill="#FF5E5A"/>
<path d="M105.914 203.964L97.0681 205.451C95.7437 205.673 94.4718 204.806 94.2419 203.525C94.0119 202.243 94.9075 201.012 96.2319 200.789L105.078 199.302C106.402 199.08 107.674 199.946 107.904 201.228C108.133 202.51 107.238 203.74 105.914 203.964Z" fill="#1D1D1B"/>
<path d="M138.764 204.063C139.019 204.06 139.259 204.076 139.485 204.106C140.072 203.553 141.912 201.813 142.087 201.556C142.296 201.25 142.242 200.882 141.695 201.014C141.148 201.145 138.932 203.285 138.932 203.285C138.932 203.285 140.328 200.487 140.758 199.781C141.187 199.076 141.004 197.971 140.384 198.589C139.765 199.207 138.053 202.489 138.053 202.489C138.053 202.489 139.139 198.509 139.526 197.731C139.913 196.953 139.272 196.598 138.762 196.784C138.251 196.97 136.209 202.835 136.209 202.835C136.209 202.835 136.892 199.119 137.249 197.917C137.607 196.714 136.744 196.271 136.275 196.812C135.857 197.292 134.552 202.909 134.263 204.17C135.254 204.514 137.902 204.076 138.764 204.063Z" fill="#FFCB9C"/>
<path d="M173.216 131.578C173.216 131.578 170.756 130.635 170.023 132.761C169.289 134.888 169.85 139.2 173.648 140.343C177.445 141.487 176.909 137.628 176.909 137.628L173.216 131.578Z" fill="#FFCB9C"/>
<path d="M226.172 189.98C225.918 190.015 225.684 190.067 225.465 190.129C224.798 189.67 222.705 188.224 222.491 187.995C222.236 187.723 222.231 187.353 222.792 187.401C223.353 187.45 225.883 189.235 225.883 189.235C225.883 189.235 224.058 186.677 223.522 186.044C222.987 185.41 222.993 184.292 223.703 184.81C224.413 185.329 226.624 188.318 226.624 188.318C226.624 188.318 224.92 184.546 224.415 183.835C223.909 183.124 224.486 182.678 225.02 182.786C225.554 182.894 228.502 188.386 228.502 188.386C228.502 188.386 227.238 184.816 226.695 183.681C226.15 182.545 226.933 181.979 227.482 182.444C227.971 182.857 230.15 188.213 230.637 189.417C229.711 189.904 227.025 189.865 226.172 189.98Z" fill="#FFCB9C"/>
<path d="M195.425 135.497C195.737 139.32 195.187 142.872 189.613 146.131C189.613 146.131 186.956 149.426 188.349 153.363C189.743 157.298 178.283 158.338 179.3 152.566C180.317 146.794 176.67 140.695 174.143 137.287C171.616 133.879 171.519 126.148 175.964 123.109C177.711 121.914 182.421 121.812 185.624 122.894C191.059 124.731 194.971 129.944 195.425 135.497Z" fill="#FFCB9C"/>
<path d="M188.703 130.294C188.73 132.488 190.59 134.246 192.857 134.22C195.124 134.194 196.94 132.394 196.913 130.2C196.886 128.005 195.026 126.248 192.759 126.274C190.493 126.3 188.677 128.099 188.703 130.294Z" stroke="#1D1D1B" stroke-miterlimit="10"/>
<path d="M178.387 130.411C178.414 132.606 180.274 134.363 182.541 134.337C184.808 134.311 186.624 132.511 186.597 130.317C186.57 128.123 184.71 126.365 182.443 126.391C180.176 126.417 178.36 128.217 178.387 130.411Z" stroke="#1D1D1B" stroke-miterlimit="10"/>
<path d="M187.695 127.109L190.786 134.863L186.438 134.913L187.695 127.109Z" fill="#FF6252"/>
<path d="M189.522 127.872L185.722 127.914" stroke="#1D1D1B" stroke-miterlimit="10"/>
<path d="M190.378 130.305C190.494 130.734 190.838 131.019 191.146 130.941C191.454 130.863 191.61 130.451 191.494 130.022C191.378 129.592 191.034 129.307 190.726 129.386C190.417 129.463 190.262 129.875 190.378 130.305Z" fill="black"/>
<path d="M183.344 130.643C183.46 131.072 183.804 131.357 184.113 131.279C184.421 131.201 184.577 130.789 184.461 130.36C184.345 129.93 184.001 129.646 183.692 129.724C183.384 129.801 183.228 130.213 183.344 130.643Z" fill="black"/>
<path d="M177.144 140.343C178.693 140.343 179.949 139.128 179.949 137.628C179.949 136.128 178.693 134.913 177.144 134.913C175.594 134.913 174.338 136.128 174.338 137.628C174.338 139.128 175.594 140.343 177.144 140.343Z" fill="#1D1D1B"/>
<path d="M175.203 138.192C176.753 138.192 178.009 136.976 178.009 135.476C178.009 133.976 176.753 132.761 175.203 132.761C173.654 132.761 172.398 133.976 172.398 135.476C172.398 136.976 173.654 138.192 175.203 138.192Z" fill="#1D1D1B"/>
<path d="M174.338 134.292C175.887 134.292 177.143 133.077 177.143 131.578C177.143 130.078 175.887 128.863 174.338 128.863C172.789 128.863 171.533 130.078 171.533 131.578C171.533 133.077 172.789 134.292 174.338 134.292Z" fill="#1D1D1B"/>
<path d="M188.527 127.109C190.076 127.109 191.332 125.893 191.332 124.394C191.332 122.894 190.076 121.678 188.527 121.678C186.977 121.678 185.721 122.894 185.721 124.394C185.721 125.893 186.977 127.109 188.527 127.109Z" fill="#1D1D1B"/>
<path d="M179.215 143.852C180.765 143.852 182.021 142.636 182.021 141.137C182.021 139.637 180.765 138.421 179.215 138.421C177.666 138.421 176.41 139.637 176.41 141.137C176.41 142.636 177.666 143.852 179.215 143.852Z" fill="#1D1D1B"/>
<path d="M183.306 147.027C184.855 147.027 186.111 145.811 186.111 144.311C186.111 142.812 184.855 141.596 183.306 141.596C181.756 141.596 180.5 142.812 180.5 144.311C180.5 145.811 181.756 147.027 183.306 147.027Z" fill="#1D1D1B"/>
<path d="M187.842 148.809C189.391 148.809 190.647 147.593 190.647 146.094C190.647 144.594 189.391 143.378 187.842 143.378C186.292 143.378 185.036 144.594 185.036 146.094C185.036 147.593 186.292 148.809 187.842 148.809Z" fill="#1D1D1B"/>
<path d="M192.688 147.652C194.238 147.652 195.494 146.436 195.494 144.936C195.494 143.437 194.238 142.221 192.688 142.221C191.139 142.221 189.883 143.437 189.883 144.936C189.883 146.436 191.139 147.652 192.688 147.652Z" fill="#1D1D1B"/>
<path d="M194.338 144.805C195.887 144.805 197.143 143.59 197.143 142.09C197.143 140.59 195.887 139.374 194.338 139.374C192.788 139.374 191.532 140.59 191.532 142.09C191.532 143.59 192.788 144.805 194.338 144.805Z" fill="#1D1D1B"/>
<path d="M194.427 139.687C195.976 139.687 197.232 138.471 197.232 136.971C197.232 135.471 195.976 134.256 194.427 134.256C192.878 134.256 191.621 135.471 191.621 136.971C191.621 138.471 192.878 139.687 194.427 139.687Z" fill="#1D1D1B"/>
<path d="M190.786 143.059C192.335 143.059 193.591 141.843 193.591 140.343C193.591 138.844 192.335 137.628 190.786 137.628C189.236 137.628 187.98 138.844 187.98 140.343C187.98 141.843 189.236 143.059 190.786 143.059Z" fill="#1D1D1B"/>
<path d="M187.842 146.094C189.391 146.094 190.647 144.878 190.647 143.378C190.647 141.879 189.391 140.663 187.842 140.663C186.292 140.663 185.036 141.879 185.036 143.378C185.036 144.878 186.292 146.094 187.842 146.094Z" fill="#1D1D1B"/>
<path d="M182.597 144.312C184.147 144.312 185.403 143.096 185.403 141.597C185.403 140.097 184.147 138.881 182.597 138.881C181.048 138.881 179.792 140.097 179.792 141.597C179.792 143.096 181.048 144.312 182.597 144.312Z" fill="#1D1D1B"/>
<path d="M180.501 140.664C182.05 140.664 183.306 139.448 183.306 137.948C183.306 136.448 182.05 135.233 180.501 135.233C178.951 135.233 177.695 136.448 177.695 137.948C177.695 139.448 178.951 140.664 180.501 140.664Z" fill="#1D1D1B"/>
<path d="M185.722 141.137C187.271 141.137 188.527 139.922 188.527 138.422C188.527 136.922 187.271 135.707 185.722 135.707C184.172 135.707 182.916 136.922 182.916 138.422C182.916 139.922 184.172 141.137 185.722 141.137Z" fill="#1D1D1B"/>
<path d="M190.339 141.137C191.889 141.137 193.145 139.922 193.145 138.422C193.145 136.922 191.889 135.707 190.339 135.707C188.79 135.707 187.534 136.922 187.534 138.422C187.534 139.922 188.79 141.137 190.339 141.137Z" fill="#1D1D1B"/>
<path d="M186.111 144.312C187.661 144.312 188.917 143.096 188.917 141.597C188.917 140.097 187.661 138.881 186.111 138.881C184.562 138.881 183.306 140.097 183.306 141.597C183.306 143.096 184.562 144.312 186.111 144.312Z" fill="#1D1D1B"/>
<path d="M188.947 138.117C188.947 138.117 190.079 137.517 191.036 137.535C191.992 137.553 192.911 137.911 193.071 139.08C193.232 140.249 192.027 141.082 190.572 141.755C189.714 142.152 186.836 142.553 185.305 141.788C183.772 141.022 182.976 140.425 182.662 139.399C182.349 138.374 183.212 137.362 184.049 137.089C184.886 136.817 185.73 137.234 186.12 137.552C186.51 137.869 187.462 138.642 188.947 138.117Z" fill="white"/>
<path d="M171.633 127.007L171.481 126.659C169.525 122.187 171.62 117.021 176.198 115.033C180.848 113.013 186.308 115.024 188.393 119.525L188.835 120.479L171.633 127.007Z" fill="#432918"/>
<path d="M171.908 130.829L190.319 124.086C191.512 123.649 192.271 122.51 192.189 121.278L192.147 120.019C192.073 118.901 190.88 118.19 189.816 118.63L168.406 126.845C167.232 127.33 167.027 128.858 168.034 129.617L169.096 130.418C169.896 131.02 170.961 131.176 171.908 130.829Z" fill="#683C11"/>
<path d="M170.754 123.407L186.905 117.28L187.622 118.183L170.748 124.755L170.754 123.407Z" fill="white"/>
<path d="M253.786 308.752C253.786 308.752 252.721 306.522 249.8 306.81C246.88 307.099 247.644 304.436 244.372 304.004C241.101 303.572 240.509 304.55 236.53 301.171C232.551 297.792 229.246 303.827 226.286 301.323C223.326 298.82 221.205 294.787 216.191 296.35C211.177 297.912 213.289 301.903 210.319 303.408C207.349 304.912 204.254 305.4 203 308.831L253.786 308.752Z" fill="#2FAC66"/>
<path d="M100 309.752C100 309.752 101.066 307.522 103.986 307.81C106.907 308.099 106.143 305.436 109.414 305.004C112.685 304.572 113.277 305.55 117.256 302.171C121.235 298.792 124.54 304.827 127.501 302.323C130.461 299.82 132.581 295.787 137.595 297.35C142.61 298.912 140.497 302.903 143.467 304.408C146.437 305.912 149.532 306.4 150.786 309.831L100 309.752Z" fill="#2FAC66"/>
<path d="M262.888 58.7268H210.348C210.348 58.7268 212.975 52.317 216.259 52.0511C219.542 51.7858 220.462 53.8261 221.512 53.6274C222.563 53.4282 224.271 48.1401 228.474 47.8749C232.677 47.6089 234.319 51.5727 236.618 52.3031C238.916 53.0336 243.448 52.6245 246.994 46.8475C250.541 41.0705 257.266 47.2751 257.436 51.7251C257.699 58.5645 268.01 54.7683 268.01 58.7274L262.888 58.7268Z" fill="white"/>
<path d="M54.6984 118.113H2.15826C2.15826 118.113 4.78511 111.704 8.06915 111.438C11.3525 111.172 12.2721 113.213 13.3228 113.014C14.3736 112.815 16.0815 107.527 20.2845 107.261C24.4874 106.996 26.1294 110.959 28.428 111.689C30.7266 112.42 35.2584 112.01 38.8048 106.233C42.3512 100.456 49.0766 106.661 49.2469 111.111C49.51 117.95 59.8209 114.154 59.8209 118.113H54.6984Z" fill="white"/>
<path d="M34.177 56.8277C49.6978 56.8277 62.28 44.1064 62.28 28.4139C62.28 12.7213 49.6978 0 34.177 0C18.6562 0 6.07404 12.7213 6.07404 28.4139C6.07404 44.1064 18.6562 56.8277 34.177 56.8277Z" fill="#FFF48D"/>
<g opacity="0.4">
<path d="M237.643 102.367C238.372 101.496 238.814 100.371 238.814 99.1407C238.814 96.3799 236.601 94.1417 233.87 94.1417C231.139 94.1417 228.926 96.3799 228.926 99.1407C228.926 99.2542 228.935 99.365 228.943 99.4772L228.909 99.4825C228.916 99.369 228.926 99.2562 228.926 99.1407C228.926 96.3799 226.712 94.1417 223.981 94.1417C221.251 94.1417 219.037 96.3799 219.037 99.1407C219.037 100.631 219.685 101.964 220.708 102.88L228.926 111.311L237.172 102.853C237.324 102.714 237.469 102.568 237.603 102.411L237.644 102.369L237.643 102.367Z" fill="white"/>
<path d="M87.3372 18.3538C87.9435 17.6299 88.3103 16.6949 88.3103 15.6722C88.3103 13.3778 86.4705 11.5177 84.2013 11.5177C81.9321 11.5177 80.0923 13.3778 80.0923 15.6722C80.0923 15.7665 80.1002 15.8589 80.106 15.9519L80.078 15.9565C80.0845 15.8622 80.0923 15.7678 80.0923 15.6722C80.0923 13.3778 78.2526 11.5184 75.9834 11.5184C73.7142 11.5184 71.8744 13.3785 71.8744 15.6728C71.8744 16.9107 72.4128 18.0192 73.2632 18.7801L80.0923 25.7864L86.9456 18.7576C87.0722 18.6428 87.1923 18.5207 87.3039 18.3907L87.3378 18.3558L87.3372 18.3538Z" fill="white"/>
<path d="M37.5754 155.426C38.1816 154.702 38.5484 153.767 38.5484 152.744C38.5484 150.45 36.7087 148.59 34.4395 148.59C32.1703 148.59 30.3305 150.45 30.3305 152.744C30.3305 152.839 30.3383 152.931 30.3442 153.024L30.3161 153.029C30.3227 152.934 30.3305 152.841 30.3305 152.745C30.3305 150.451 28.4907 148.591 26.2215 148.591C23.9523 148.591 22.1125 150.451 22.1125 152.745C22.1125 153.983 22.651 155.091 23.5013 155.853L30.3305 162.859L37.1838 155.831C37.3104 155.716 37.4305 155.594 37.5421 155.464L37.576 155.429L37.5754 155.426Z" fill="white"/>
<path d="M265.99 181.631C266.282 181.282 266.459 180.831 266.459 180.337C266.459 179.231 265.572 178.334 264.478 178.334C263.383 178.334 262.496 179.231 262.496 180.337C262.496 180.383 262.5 180.428 262.503 180.472L262.489 180.474C262.492 180.428 262.496 180.384 262.496 180.337C262.496 179.231 261.609 178.334 260.514 178.334C259.42 178.334 258.533 179.231 258.533 180.337C258.533 180.935 258.793 181.469 259.202 181.836L262.496 185.214L265.801 181.825C265.862 181.77 265.919 181.711 265.973 181.648L265.99 181.631Z" fill="white"/>
<path d="M232.419 18.5082C232.711 18.1591 232.888 17.7085 232.888 17.2156C232.888 16.109 232.001 15.2123 230.906 15.2123C229.812 15.2123 228.925 16.109 228.925 17.2156C228.925 17.2611 228.929 17.306 228.931 17.3502L228.918 17.3522C228.921 17.3066 228.924 17.2611 228.924 17.2149C228.924 16.1083 228.037 15.2116 226.943 15.2116C225.848 15.2116 224.962 16.1083 224.962 17.2149C224.962 17.8121 225.221 18.3465 225.631 18.7134L228.924 22.0919L232.229 18.7029C232.291 18.6474 232.348 18.5887 232.402 18.526L232.419 18.5082Z" fill="white"/>
<path d="M37.7867 83.0126C38.0791 82.6635 38.256 82.2128 38.256 81.7193C38.256 80.6127 37.3691 79.716 36.2746 79.716C35.1801 79.716 34.2932 80.6127 34.2932 81.7193C34.2932 81.7648 34.2971 81.8097 34.2997 81.8539L34.286 81.8559C34.2893 81.8103 34.2926 81.7648 34.2926 81.7186C34.2926 80.612 33.4056 79.7153 32.3112 79.7153C31.2167 79.7153 30.3298 80.612 30.3298 81.7186C30.3298 82.3158 30.5895 82.8503 30.9994 83.2171L34.2926 86.5956L37.5975 83.2066C37.6582 83.1511 37.7163 83.0924 37.7704 83.0297L37.7867 83.0126Z" fill="white"/>
<path d="M79.3314 181.003C79.6237 180.653 79.8006 180.203 79.8006 179.709C79.8006 178.603 78.9137 177.706 77.8192 177.706C76.7247 177.706 75.8378 178.603 75.8378 179.709C75.8378 179.755 75.8417 179.8 75.8444 179.844L75.8306 179.846C75.8339 179.8 75.8378 179.755 75.8378 179.709C75.8378 178.603 74.9502 177.706 73.8558 177.706C72.7613 177.706 71.8744 178.603 71.8744 179.709C71.8744 180.306 72.1341 180.841 72.544 181.208L75.8372 184.586L79.1421 181.197C79.2028 181.142 79.2609 181.083 79.315 181.02L79.3314 181.003Z" fill="white"/>
</g>
</svg>
